<svg width="183" height="62" viewBox="0 0 183 62" fill="none" xmlns="http://www.w3.org/2000/svg">
<g filter="url(#filter0_i)">
<path d="M1.02467 19.9883C1.03115 8.94715 9.98355 0 21.0247 0H182.337L162 62H21.0118C9.96147 62 1.00526 53.0385 1.01175 41.9883L1.02467 19.9883Z" fill="url(#paint0_linear)"/>
</g>
<path d="M51.5774 24.328V29.64C51.5774 31.112 51.4014 31.912 51.1934 32.44C50.8734 33.24 50.2654 33.912 49.4974 33.88V37.24H50.6174V35H58.1694V37.24H59.2894V33.88H58.0734V24.328H51.5774ZM52.7614 25.448H56.8894V33.88H51.5614C51.9134 33.528 52.1854 33.128 52.3774 32.616C52.6334 31.944 52.7614 31.112 52.7614 29.64V25.448ZM60.5958 28.36V35.464L65.1398 30.568V35H66.2918V27.848L61.7478 32.744V28.36H60.5958ZM73.5588 29.304C73.2548 28.904 72.5668 28.2 71.2868 28.2C69.5908 28.2 68.0548 29.384 68.0548 31.672C68.0548 34.008 69.6068 35.192 71.2868 35.192C72.4548 35.192 73.1748 34.568 73.5588 34.072V35H74.7108V28.36H73.5588V29.304ZM71.4148 29.224C72.4388 29.224 73.6228 29.976 73.6228 31.688C73.6228 33 72.8228 34.168 71.4148 34.168C70.0388 34.168 69.2388 33.096 69.2388 31.672C69.2388 30.056 70.2788 29.224 71.4148 29.224ZM76.8927 35H78.0447V29.416H80.8287V28.36H76.8927V35ZM83.1384 34.072C83.6344 34.712 84.3864 35.192 85.4584 35.192C87.4744 35.192 88.6424 33.544 88.6424 31.72C88.6424 29.928 87.4904 28.2 85.4104 28.2C84.9304 28.2 83.9224 28.312 83.1384 29.288V28.36H81.9864V38.68H83.1384V34.072ZM85.2984 34.168C83.9384 34.168 83.0744 33.064 83.0744 31.704C83.0744 30.104 84.2104 29.224 85.2824 29.224C86.3544 29.224 87.4584 30.088 87.4584 31.72C87.4584 33.048 86.6424 34.168 85.2984 34.168ZM95.4963 29.304C95.1923 28.904 94.5043 28.2 93.2243 28.2C91.5283 28.2 89.9923 29.384 89.9923 31.672C89.9923 34.008 91.5443 35.192 93.2243 35.192C94.3923 35.192 95.1123 34.568 95.4963 34.072V35H96.6483V28.36H95.4963V29.304ZM93.3523 29.224C94.3763 29.224 95.5603 29.976 95.5603 31.688C95.5603 33 94.7603 34.168 93.3523 34.168C91.9763 34.168 91.1763 33.096 91.1763 31.672C91.1763 30.056 92.2163 29.224 93.3523 29.224ZM98.0622 35H99.2462L100.094 30.888L102.382 35.464L104.638 30.888L105.518 35H106.702L105.102 27.848L102.414 33.256L99.6622 27.848L98.0622 35ZM107.343 35H108.527L109.375 30.888L111.663 35.464L113.919 30.888L114.799 35H115.983L114.383 27.848L111.695 33.256L108.943 27.848L107.343 35ZM122.481 29.304C122.177 28.904 121.489 28.2 120.209 28.2C118.513 28.2 116.977 29.384 116.977 31.672C116.977 34.008 118.529 35.192 120.209 35.192C121.377 35.192 122.097 34.568 122.481 34.072V35H123.633V28.36H122.481V29.304ZM120.337 29.224C121.361 29.224 122.545 29.976 122.545 31.688C122.545 33 121.745 34.168 120.337 34.168C118.961 34.168 118.161 33.096 118.161 31.672C118.161 30.056 119.201 29.224 120.337 29.224Z" fill="#DFAB5A"/>
<defs>
<filter id="filter0_i" x="1.01172" y="0" width="181.325" height="66" filterUnits="userSpaceOnUse" color-interpolation-filters="sRGB">
<feFlood flood-opacity="0" result="BackgroundImageFix"/>
<feBlend mode="normal" in="SourceGraphic" in2="BackgroundImageFix" result="shape"/>
<feColorMatrix in="SourceAlpha" type="matrix" values="0 0 0 0 0 0 0 0 0 0 0 0 0 0 0 0 0 0 127 0" result="hardAlpha"/>
<feOffset dy="4"/>
<feGaussianBlur stdDeviation="2"/>
<feComposite in2="hardAlpha" operator="arithmetic" k2="-1" k3="1"/>
<feColorMatrix type="matrix" values="0 0 0 0 0 0 0 0 0 0 0 0 0 0 0 0 0 0 0.25 0"/>
<feBlend mode="normal" in2="shape" result="effect1_innerShadow"/>
</filter>
<linearGradient id="paint0_linear" x1="187.719" y1="3.47015" x2="173.716" y2="88.1685" gradientUnits="userSpaceOnUse">
<stop stop-color="#191818"/>
<stop offset="1" stop-color="#2B2929"/>
</linearGradient>
</defs>
</svg>
