<svg width="614" height="306" viewBox="0 0 614 306" fill="none" xmlns="http://www.w3.org/2000/svg">
<g opacity="0.8">
<path d="M416 576.999C645.197 576.999 830.999 391.197 830.999 162C830.999 -67.1984 645.197 -253 416 -253C186.802 -253 1 -67.1984 1 162C1 391.197 186.802 576.999 416 576.999Z" stroke="#404041" stroke-width="0.5" stroke-miterlimit="10"/>
<path d="M416.002 576.242C644.781 576.242 830.243 390.78 830.243 162.001C830.243 -66.7784 644.781 -252.24 416.002 -252.24C187.223 -252.24 1.7605 -66.7784 1.7605 162.001C1.7605 390.78 187.223 576.242 416.002 576.242Z" stroke="#404041" stroke-width="0.5" stroke-miterlimit="10"/>
<path d="M416 573.532C643.283 573.532 827.532 389.282 827.532 161.999C827.532 -65.2835 643.283 -249.533 416 -249.533C188.717 -249.533 4.46802 -65.2835 4.46802 161.999C4.46802 389.282 188.717 573.532 416 573.532Z" stroke="#404041" stroke-width="0.5" stroke-miterlimit="10"/>
<path d="M416 571.255C642.026 571.255 825.257 388.025 825.257 161.999C825.257 -64.0274 642.026 -247.258 416 -247.258C189.974 -247.258 6.74341 -64.0274 6.74341 161.999C6.74341 388.025 189.974 571.255 416 571.255Z" stroke="#404041" stroke-width="0.5" stroke-miterlimit="10"/>
<path d="M416 575.047C644.12 575.047 829.049 390.119 829.049 161.998C829.049 -66.1224 644.12 -251.051 416 -251.051C187.879 -251.051 2.95068 -66.1224 2.95068 161.998C2.95068 390.119 187.879 575.047 416 575.047Z" stroke="#404041" stroke-width="0.5" stroke-miterlimit="10"/>
<path d="M416 568.548C640.531 568.548 822.548 386.53 822.548 162C822.548 -62.5302 640.531 -244.548 416 -244.548C191.47 -244.548 9.45264 -62.5302 9.45264 162C9.45264 386.53 191.47 568.548 416 568.548Z" stroke="#404041" stroke-width="0.5" stroke-miterlimit="10"/>
<path d="M416 564.754C638.436 564.754 818.755 384.434 818.755 161.998C818.755 -60.4373 638.436 -240.757 416 -240.757C193.564 -240.757 13.2446 -60.4373 13.2446 161.998C13.2446 384.434 193.564 564.754 416 564.754Z" stroke="#404041" stroke-width="0.5" stroke-miterlimit="10"/>
<path d="M416 559.879C635.743 559.879 813.88 381.743 813.88 162C813.88 -57.7429 635.743 -235.88 416 -235.88C196.258 -235.88 18.1208 -57.7429 18.1208 162C18.1208 381.743 196.258 559.879 416 559.879Z" stroke="#404041" stroke-width="0.5" stroke-miterlimit="10"/>
<path d="M416 553.811C632.391 553.811 807.811 378.391 807.811 162C807.811 -54.3918 632.391 -229.812 416 -229.812C199.608 -229.812 24.1885 -54.3918 24.1885 162C24.1885 378.391 199.608 553.811 416 553.811Z" stroke="#404041" stroke-width="0.5" stroke-miterlimit="10"/>
<path d="M416.001 546.227C628.204 546.227 800.228 374.203 800.228 162C800.228 -50.2021 628.204 -222.226 416.001 -222.226C203.799 -222.226 31.7747 -50.2021 31.7747 162C31.7747 374.203 203.799 546.227 416.001 546.227Z" stroke="#404041" stroke-width="0.5" stroke-miterlimit="10"/>
<path d="M416 537.015C623.116 537.015 791.016 369.115 791.016 161.999C791.016 -45.117 623.116 -213.018 416 -213.018C208.884 -213.018 40.9834 -45.117 40.9834 161.999C40.9834 369.115 208.884 537.015 416 537.015Z" stroke="#404041" stroke-width="0.5" stroke-miterlimit="10"/>
<path d="M416.001 526.289C617.192 526.289 780.29 363.191 780.29 161.999C780.29 -39.1921 617.192 -202.29 416.001 -202.29C214.809 -202.29 51.7112 -39.1921 51.7112 161.999C51.7112 363.191 214.809 526.289 416.001 526.289Z" stroke="#404041" stroke-width="0.5" stroke-miterlimit="10"/>
<path d="M416.001 512.855C609.772 512.855 766.854 355.773 766.854 162.002C766.854 -31.7694 609.772 -188.852 416.001 -188.852C222.23 -188.852 65.1475 -31.7694 65.1475 162.002C65.1475 355.773 222.23 512.855 416.001 512.855Z" stroke="#404041" stroke-width="0.5" stroke-miterlimit="10"/>
<path d="M416 497.683C601.393 497.683 751.684 347.392 751.684 161.999C751.684 -23.3939 601.393 -173.685 416 -173.685C230.607 -173.685 80.3167 -23.3939 80.3167 161.999C80.3167 347.392 230.607 497.683 416 497.683Z" stroke="#404041" stroke-width="0.5" stroke-miterlimit="10"/>
<path d="M416.001 480.454C591.879 480.454 734.456 337.877 734.456 161.999C734.456 -13.8788 591.879 -156.456 416.001 -156.456C240.123 -156.456 97.5457 -13.8788 97.5457 161.999C97.5457 337.877 240.123 480.454 416.001 480.454Z" stroke="#404041" stroke-width="0.5" stroke-miterlimit="10"/>
<path d="M416 460.192C580.688 460.192 714.193 326.687 714.193 161.999C714.193 -2.68813 580.688 -136.194 416 -136.194C251.313 -136.194 117.808 -2.68813 117.808 161.999C117.808 326.687 251.313 460.192 416 460.192Z" stroke="#404041" stroke-width="0.5" stroke-miterlimit="10"/>
<path d="M416.001 437.98C568.42 437.98 691.981 314.419 691.981 162C691.981 9.58025 568.42 -113.98 416.001 -113.98C263.581 -113.98 140.021 9.58025 140.021 162C140.021 314.419 263.581 437.98 416.001 437.98Z" stroke="#404041" stroke-width="0.5" stroke-miterlimit="10"/>
<path d="M416.001 353.354C521.683 353.354 607.355 267.682 607.355 161.999C607.355 56.3168 521.683 -29.3557 416.001 -29.3557C310.318 -29.3557 224.646 56.3168 224.646 161.999C224.646 267.682 310.318 353.354 416.001 353.354Z" stroke="#404041" stroke-width="0.5" stroke-miterlimit="10"/>
<path d="M416.001 381.094C537.003 381.094 635.095 283.002 635.095 162C635.095 40.9976 537.003 -57.094 416.001 -57.094C294.999 -57.094 196.907 40.9976 196.907 162C196.907 283.002 294.999 381.094 416.001 381.094Z" stroke="#404041" stroke-width="0.5" stroke-miterlimit="10"/>
<path d="M416.001 410.673C553.34 410.673 664.675 299.337 664.675 161.998C664.675 24.6591 553.34 -86.6763 416.001 -86.6763C278.661 -86.6763 167.326 24.6591 167.326 161.998C167.326 299.337 278.661 410.673 416.001 410.673Z" stroke="#404041" stroke-width="0.5" stroke-miterlimit="10"/>
<path d="M416 307.412C496.309 307.412 561.412 242.308 561.412 161.999C561.412 81.6903 496.309 16.5869 416 16.5869C335.691 16.5869 270.588 81.6903 270.588 161.999C270.588 242.308 335.691 307.412 416 307.412Z" stroke="#404041" stroke-width="0.5" stroke-miterlimit="10"/>
<path d="M416.001 329.408C508.458 329.408 583.409 254.457 583.409 162C583.409 69.5426 508.458 -5.40869 416.001 -5.40869C323.544 -5.40869 248.592 69.5426 248.592 162C248.592 254.457 323.544 329.408 416.001 329.408Z" stroke="#404041" stroke-width="0.5" stroke-miterlimit="10"/>
<path d="M416 236.764C457.292 236.764 490.765 203.291 490.765 162C490.765 120.708 457.292 87.2346 416 87.2346C374.709 87.2346 341.235 120.708 341.235 162C341.235 203.291 374.709 236.764 416 236.764Z" stroke="#404041" stroke-width="0.5" stroke-miterlimit="10"/>
<path d="M416.001 246.734C462.798 246.734 500.734 208.798 500.734 162.001C500.734 115.204 462.798 77.2671 416.001 77.2671C369.204 77.2671 331.267 115.204 331.267 162.001C331.267 208.798 369.204 246.734 416.001 246.734Z" stroke="#404041" stroke-width="0.5" stroke-miterlimit="10"/>
<path d="M416.001 259.088C469.62 259.088 513.087 215.621 513.087 162.002C513.087 108.382 469.62 64.9155 416.001 64.9155C362.381 64.9155 318.915 108.382 318.915 162.002C318.915 215.621 362.381 259.088 416.001 259.088Z" stroke="#404041" stroke-width="0.5" stroke-miterlimit="10"/>
<path d="M416 273.497C477.578 273.497 527.497 223.578 527.497 162C527.497 100.422 477.578 50.5029 416 50.5029C354.422 50.5029 304.503 100.422 304.503 162C304.503 223.578 354.422 273.497 416 273.497Z" stroke="#404041" stroke-width="0.5" stroke-miterlimit="10"/>
<path d="M416.001 290.075C486.735 290.075 544.077 232.734 544.077 161.999C544.077 91.2652 486.735 33.9238 416.001 33.9238C345.267 33.9238 287.926 91.2652 287.926 161.999C287.926 232.734 345.267 290.075 416.001 290.075Z" stroke="#404041" stroke-width="0.5" stroke-miterlimit="10"/>
<path d="M416.001 202.307C438.801 202.307 457.284 184.26 457.284 161.998C457.284 139.737 438.801 121.69 416.001 121.69C393.2 121.69 374.717 139.737 374.717 161.998C374.717 184.26 393.2 202.307 416.001 202.307Z" stroke="#404041" stroke-width="0.5" stroke-miterlimit="10"/>
<path d="M416 206.1C440.955 206.1 461.184 186.356 461.184 162C461.184 137.644 440.955 117.899 416 117.899C391.046 117.899 370.816 137.644 370.816 162C370.816 186.356 391.046 206.1 416 206.1Z" stroke="#404041" stroke-width="0.5" stroke-miterlimit="10"/>
<path d="M415.892 211.409C443.18 211.409 465.302 189.287 465.302 161.999C465.302 134.71 443.18 112.589 415.892 112.589C388.603 112.589 366.482 134.71 366.482 161.999C366.482 189.287 388.603 211.409 415.892 211.409Z" stroke="#404041" stroke-width="0.5" stroke-miterlimit="10"/>
<path d="M416.001 218.885C447.418 218.885 472.887 193.416 472.887 161.998C472.887 130.581 447.418 105.112 416.001 105.112C384.583 105.112 359.114 130.581 359.114 161.998C359.114 193.416 384.583 218.885 416.001 218.885Z" stroke="#404041" stroke-width="0.5" stroke-miterlimit="10"/>
<path d="M416 226.688C451.726 226.688 480.688 197.726 480.688 162C480.688 126.274 451.726 97.312 416 97.312C380.274 97.312 351.312 126.274 351.312 162C351.312 197.726 380.274 226.688 416 226.688Z" stroke="#404041" stroke-width="0.5" stroke-miterlimit="10"/>
<path d="M416.001 193.965C433.654 193.965 447.965 179.654 447.965 162C447.965 144.347 433.654 130.036 416.001 130.036C398.347 130.036 384.036 144.347 384.036 162C384.036 179.654 398.347 193.965 416.001 193.965Z" stroke="#404041" stroke-width="0.5" stroke-miterlimit="10"/>
<path d="M416.001 197.865C435.809 197.865 451.866 181.807 451.866 161.999C451.866 142.191 435.809 126.134 416.001 126.134C396.193 126.134 380.135 142.191 380.135 161.999C380.135 181.807 396.193 197.865 416.001 197.865Z" stroke="#404041" stroke-width="0.5" stroke-miterlimit="10"/>
<path d="M416.001 200.031C437.005 200.031 454.033 183.003 454.033 161.999C454.033 140.994 437.005 123.966 416.001 123.966C394.996 123.966 377.968 140.994 377.968 161.999C377.968 183.003 394.996 200.031 416.001 200.031Z" stroke="#404041" stroke-width="0.5" stroke-miterlimit="10"/>
<path d="M416 196.132C434.85 196.132 450.132 180.85 450.132 162C450.132 143.149 434.85 127.868 416 127.868C397.149 127.868 381.868 143.149 381.868 162C381.868 180.85 397.149 196.132 416 196.132Z" stroke="#404041" stroke-width="0.5" stroke-miterlimit="10"/>
<path d="M416.001 195.265C434.372 195.265 449.266 180.371 449.266 162C449.266 143.628 434.372 128.735 416.001 128.735C397.629 128.735 382.736 143.628 382.736 162C382.736 180.371 397.629 195.265 416.001 195.265Z" stroke="#404041" stroke-width="0.5" stroke-miterlimit="10"/>
<path d="M416 194.615C434.012 194.615 448.614 180.013 448.614 162C448.614 143.988 434.012 129.385 416 129.385C397.987 129.385 383.385 143.988 383.385 162C383.385 180.013 397.987 194.615 416 194.615Z" stroke="#404041" stroke-width="0.5" stroke-miterlimit="10"/>
<path d="M416 130.035C416 130.035 414.05 127.868 413.833 125.159C407.657 30.7816 416 -253 416 -253" stroke="#404041" stroke-width="0.5" stroke-miterlimit="10"/>
<path d="M416.001 193.965C416.001 193.965 417.951 196.132 418.168 198.841C424.344 293.218 416.001 577 416.001 577" stroke="#404041" stroke-width="0.5" stroke-miterlimit="10"/>
<path d="M447.965 162C447.965 162 450.132 160.05 452.841 159.833C547.218 153.657 831 162 831 162" stroke="#404041" stroke-width="0.5" stroke-miterlimit="10"/>
<path d="M384.036 162C384.036 162 381.869 163.951 379.16 164.168C284.783 170.344 1.00122 162 1.00122 162" stroke="#404041" stroke-width="0.5" stroke-miterlimit="10"/>
<path d="M438.538 139.462C438.538 139.462 438.646 136.537 440.488 134.478C502.793 63.3969 709.425 -131.425 709.425 -131.425" stroke="#404041" stroke-width="0.5" stroke-miterlimit="10"/>
<path d="M393.462 184.539C393.462 184.539 393.354 187.464 391.511 189.523C329.207 260.604 122.574 455.426 122.574 455.426" stroke="#404041" stroke-width="0.5" stroke-miterlimit="10"/>
<path d="M438.538 184.539C438.538 184.539 441.464 184.647 443.522 186.489C514.603 248.793 709.425 455.426 709.425 455.426" stroke="#404041" stroke-width="0.5" stroke-miterlimit="10"/>
<path d="M393.462 139.462C393.462 139.462 390.536 139.354 388.477 137.512C317.396 75.2076 122.574 -131.425 122.574 -131.425" stroke="#404041" stroke-width="0.5" stroke-miterlimit="10"/>
<path d="M428.136 132.527C428.136 132.527 427.161 129.71 428.028 127.11C458.259 37.5 574.198 -221.685 574.198 -221.685" stroke="#404041" stroke-width="0.5" stroke-miterlimit="10"/>
<path d="M403.865 191.472C403.865 191.472 404.84 194.289 403.973 196.89C373.742 286.499 257.802 545.684 257.802 545.684" stroke="#404041" stroke-width="0.5" stroke-miterlimit="10"/>
<path d="M445.474 174.136C445.474 174.136 448.291 173.161 450.891 174.028C540.501 204.259 799.686 320.199 799.686 320.199" stroke="#404041" stroke-width="0.5" stroke-miterlimit="10"/>
<path d="M386.529 149.864C386.529 149.864 383.712 150.839 381.111 149.972C291.502 119.741 32.3167 3.80151 32.3167 3.80151" stroke="#404041" stroke-width="0.5" stroke-miterlimit="10"/>
<path d="M445.473 149.756C445.473 149.756 446.774 147.047 449.157 145.855C533.891 103.814 799.144 2.61011 799.144 2.61011" stroke="#404041" stroke-width="0.5" stroke-miterlimit="10"/>
<path d="M386.527 174.243C386.527 174.243 385.227 176.952 382.843 178.143C298.11 220.185 32.8567 321.389 32.8567 321.389" stroke="#404041" stroke-width="0.5" stroke-miterlimit="10"/>
<path d="M428.245 191.472C428.245 191.472 430.954 192.772 432.146 195.156C474.187 279.89 575.391 545.143 575.391 545.143" stroke="#404041" stroke-width="0.5" stroke-miterlimit="10"/>
<path d="M403.757 132.527C403.757 132.527 401.048 131.227 399.856 128.843C357.814 44.1097 256.611 -221.143 256.611 -221.143" stroke="#404041" stroke-width="0.5" stroke-miterlimit="10"/>
<path d="M422.285 130.687C422.285 130.687 420.768 128.194 421.093 125.486C433.662 31.7584 497.808 -244.872 497.808 -244.872" stroke="#404041" stroke-width="0.5" stroke-miterlimit="10"/>
<path d="M409.717 193.315C409.717 193.315 411.233 195.807 410.908 198.516C398.339 292.243 334.193 568.873 334.193 568.873" stroke="#404041" stroke-width="0.5" stroke-miterlimit="10"/>
<path d="M447.315 168.284C447.315 168.284 449.808 166.767 452.516 167.092C546.244 179.661 822.874 243.808 822.874 243.808" stroke="#404041" stroke-width="0.5" stroke-miterlimit="10"/>
<path d="M384.686 155.715C384.686 155.715 382.193 157.232 379.485 156.906C285.757 144.337 9.1272 80.1912 9.1272 80.1912" stroke="#404041" stroke-width="0.5" stroke-miterlimit="10"/>
<path d="M442.548 144.337C442.548 144.337 443.307 141.52 445.474 139.786C520.564 82.3579 761.545 -67.9304 761.545 -67.9304" stroke="#404041" stroke-width="0.5" stroke-miterlimit="10"/>
<path d="M389.453 179.661C389.453 179.661 388.695 182.479 386.528 184.212C311.438 241.64 70.4563 391.929 70.4563 391.929" stroke="#404041" stroke-width="0.5" stroke-miterlimit="10"/>
<path d="M433.663 188.547C433.663 188.547 436.48 189.305 438.214 191.472C495.642 266.562 645.93 507.544 645.93 507.544" stroke="#404041" stroke-width="0.5" stroke-miterlimit="10"/>
<path d="M398.339 135.452C398.339 135.452 395.522 134.694 393.788 132.527C336.36 57.4365 186.072 -183.545 186.072 -183.545" stroke="#404041" stroke-width="0.5" stroke-miterlimit="10"/>
<path d="M433.771 135.452C433.771 135.452 433.338 132.527 434.746 130.143C481.989 48.2263 646.797 -183.003 646.797 -183.003" stroke="#404041" stroke-width="0.5" stroke-miterlimit="10"/>
<path d="M398.231 188.547C398.231 188.547 398.664 191.472 397.255 193.856C350.013 275.772 185.205 507.002 185.205 507.002" stroke="#404041" stroke-width="0.5" stroke-miterlimit="10"/>
<path d="M442.548 179.77C442.548 179.77 445.474 179.337 447.857 180.745C529.774 227.988 761.003 392.796 761.003 392.796" stroke="#404041" stroke-width="0.5" stroke-miterlimit="10"/>
<path d="M389.454 144.23C389.454 144.23 386.528 144.663 384.144 143.255C302.228 96.012 70.9985 -68.7959 70.9985 -68.7959" stroke="#404041" stroke-width="0.5" stroke-miterlimit="10"/>
<path d="M447.315 155.824C447.315 155.824 449.049 153.44 451.758 152.79C543.101 128.301 823.199 81.2754 823.199 81.2754" stroke="#404041" stroke-width="0.5" stroke-miterlimit="10"/>
<path d="M384.686 168.176C384.686 168.176 382.952 170.56 380.244 171.21C288.9 195.698 8.80273 242.724 8.80273 242.724" stroke="#404041" stroke-width="0.5" stroke-miterlimit="10"/>
<path d="M422.177 193.315C422.177 193.315 424.561 195.049 425.211 197.758C449.699 289.101 496.725 569.198 496.725 569.198" stroke="#404041" stroke-width="0.5" stroke-miterlimit="10"/>
<path d="M409.824 130.685C409.824 130.685 407.44 128.951 406.79 126.243C382.301 34.8993 335.275 -245.198 335.275 -245.198" stroke="#404041" stroke-width="0.5" stroke-miterlimit="10"/>
<path d="M419.033 130.253C419.033 130.253 417.3 127.869 417.3 125.16C420.117 30.6748 455.657 -251.156 455.657 -251.156" stroke="#404041" stroke-width="0.5" stroke-miterlimit="10"/>
<path d="M412.966 193.749C412.966 193.749 414.7 196.133 414.7 198.842C411.882 293.327 376.342 575.158 376.342 575.158" stroke="#404041" stroke-width="0.5" stroke-miterlimit="10"/>
<path d="M447.748 165.034C447.748 165.034 450.132 163.301 452.841 163.301C547.327 166.118 829.158 201.658 829.158 201.658" stroke="#404041" stroke-width="0.5" stroke-miterlimit="10"/>
<path d="M384.252 158.966C384.252 158.966 381.868 160.7 379.16 160.7C284.674 157.883 2.84277 122.342 2.84277 122.342" stroke="#404041" stroke-width="0.5" stroke-miterlimit="10"/>
<path d="M440.597 141.738C440.597 141.738 441.03 138.813 442.98 136.97C511.894 72.0659 736.189 -102.061 736.189 -102.061" stroke="#404041" stroke-width="0.5" stroke-miterlimit="10"/>
<path d="M391.404 182.263C391.404 182.263 390.97 185.188 389.02 187.03C320.106 251.935 95.8115 426.061 95.8115 426.061" stroke="#404041" stroke-width="0.5" stroke-miterlimit="10"/>
<path d="M436.263 186.598C436.263 186.598 439.188 187.031 441.03 188.982C505.935 257.895 680.061 482.19 680.061 482.19" stroke="#404041" stroke-width="0.5" stroke-miterlimit="10"/>
<path d="M395.738 137.405C395.738 137.405 392.813 136.972 390.97 135.021C326.066 66.1075 151.939 -158.187 151.939 -158.187" stroke="#404041" stroke-width="0.5" stroke-miterlimit="10"/>
<path d="M430.952 133.827C430.952 133.827 430.194 131.01 431.386 128.518C469.96 42.159 610.28 -204.782 610.28 -204.782" stroke="#404041" stroke-width="0.5" stroke-miterlimit="10"/>
<path d="M401.047 190.173C401.047 190.173 401.806 192.99 400.614 195.482C362.04 281.841 221.72 528.782 221.72 528.782" stroke="#404041" stroke-width="0.5" stroke-miterlimit="10"/>
<path d="M444.173 176.956C444.173 176.956 446.99 176.198 449.482 177.39C535.841 215.964 782.782 356.284 782.782 356.284" stroke="#404041" stroke-width="0.5" stroke-miterlimit="10"/>
<path d="M387.828 147.049C387.828 147.049 385.011 147.808 382.519 146.616C296.16 108.041 49.2192 -32.2783 49.2192 -32.2783" stroke="#404041" stroke-width="0.5" stroke-miterlimit="10"/>
<path d="M446.556 152.574C446.556 152.574 448.073 150.082 450.565 149.107C538.874 115.408 812.687 39.9934 812.687 39.9934" stroke="#404041" stroke-width="0.5" stroke-miterlimit="10"/>
<path d="M385.444 171.427C385.444 171.427 383.927 173.919 381.435 174.895C293.125 208.593 19.3123 284.008 19.3123 284.008" stroke="#404041" stroke-width="0.5" stroke-miterlimit="10"/>
<path d="M425.428 192.557C425.428 192.557 427.92 194.074 428.895 196.566C462.593 284.876 538.009 558.689 538.009 558.689" stroke="#404041" stroke-width="0.5" stroke-miterlimit="10"/>
<path d="M406.573 131.446C406.573 131.446 404.081 129.929 403.105 127.436C369.407 39.1272 293.992 -234.686 293.992 -234.686" stroke="#404041" stroke-width="0.5" stroke-miterlimit="10"/>
<path d="M425.21 131.445C425.21 131.445 423.91 128.736 424.56 126.135C446.014 34.0335 536.274 -235.229 536.274 -235.229" stroke="#404041" stroke-width="0.5" stroke-miterlimit="10"/>
<path d="M406.79 192.557C406.79 192.557 408.09 195.266 407.44 197.867C385.986 289.968 295.726 559.23 295.726 559.23" stroke="#404041" stroke-width="0.5" stroke-miterlimit="10"/>
<path d="M446.556 171.212C446.556 171.212 449.265 169.912 451.865 170.562C543.967 192.016 813.229 282.276 813.229 282.276" stroke="#404041" stroke-width="0.5" stroke-miterlimit="10"/>
<path d="M385.444 152.79C385.444 152.79 382.735 154.09 380.134 153.44C288.033 131.986 18.7705 41.7263 18.7705 41.7263" stroke="#404041" stroke-width="0.5" stroke-miterlimit="10"/>
<path d="M444.173 146.939C444.173 146.939 445.148 144.122 447.532 142.714C527.823 92.762 782.023 -33.7966 782.023 -33.7966" stroke="#404041" stroke-width="0.5" stroke-miterlimit="10"/>
<path d="M387.827 177.062C387.827 177.062 386.852 179.879 384.468 181.288C304.285 231.24 49.9763 357.798 49.9763 357.798" stroke="#404041" stroke-width="0.5" stroke-miterlimit="10"/>
<path d="M431.061 190.173C431.061 190.173 433.878 191.148 435.287 193.532C485.239 273.823 611.797 528.024 611.797 528.024" stroke="#404041" stroke-width="0.5" stroke-miterlimit="10"/>
<path d="M400.939 133.828C400.939 133.828 398.122 132.853 396.713 130.469C346.762 50.2866 220.203 -204.022 220.203 -204.022" stroke="#404041" stroke-width="0.5" stroke-miterlimit="10"/>
<path d="M436.155 137.298C436.155 137.298 436.046 134.372 437.563 132.097C492.499 55.0563 678.653 -159.378 678.653 -159.378" stroke="#404041" stroke-width="0.5" stroke-miterlimit="10"/>
<path d="M395.846 186.707C395.846 186.707 395.955 189.633 394.438 191.908C339.502 268.948 153.348 483.383 153.348 483.383" stroke="#404041" stroke-width="0.5" stroke-miterlimit="10"/>
<path d="M440.706 182.155C440.706 182.155 443.631 182.047 445.907 183.564C522.947 238.5 737.381 424.654 737.381 424.654" stroke="#404041" stroke-width="0.5" stroke-miterlimit="10"/>
<path d="M391.295 141.847C391.295 141.847 388.369 141.955 386.094 140.438C309.053 85.5022 94.6189 -100.652 94.6189 -100.652" stroke="#404041" stroke-width="0.5" stroke-miterlimit="10"/>
<path d="M447.748 158.857C447.748 158.857 449.699 156.69 452.408 156.257C545.701 140.654 828.941 120.608 828.941 120.608" stroke="#404041" stroke-width="0.5" stroke-miterlimit="10"/>
<path d="M384.253 165.143C384.253 165.143 382.302 167.31 379.593 167.743C286.3 183.346 3.05981 203.392 3.05981 203.392" stroke="#404041" stroke-width="0.5" stroke-miterlimit="10"/>
<path d="M419.143 193.749C419.143 193.749 421.31 195.699 421.743 198.408C437.346 291.702 457.392 574.942 457.392 574.942" stroke="#404041" stroke-width="0.5" stroke-miterlimit="10"/>
<path d="M412.858 130.253C412.858 130.253 410.691 128.302 410.257 125.594C394.654 32.2999 374.608 -250.94 374.608 -250.94" stroke="#404041" stroke-width="0.5" stroke-miterlimit="10"/>
<path d="M417.517 130.144C417.517 130.144 415.675 127.868 415.567 125.159C413.833 30.5654 435.504 -252.566 435.504 -252.566" stroke="#404041" stroke-width="0.5" stroke-miterlimit="10"/>
<path d="M414.484 193.856C414.484 193.856 416.327 196.131 416.435 198.84C418.169 293.434 396.498 576.566 396.498 576.566" stroke="#404041" stroke-width="0.5" stroke-miterlimit="10"/>
<path d="M447.857 163.515C447.857 163.515 450.132 161.673 452.841 161.565C547.435 159.831 830.566 181.502 830.566 181.502" stroke="#404041" stroke-width="0.5" stroke-miterlimit="10"/>
<path d="M384.145 160.481C384.145 160.481 381.869 162.323 379.161 162.431C284.567 164.165 1.43506 142.494 1.43506 142.494" stroke="#404041" stroke-width="0.5" stroke-miterlimit="10"/>
<path d="M439.622 140.547C439.622 140.547 439.947 137.621 441.789 135.671C507.344 67.5155 722.971 -117.23 722.971 -117.23" stroke="#404041" stroke-width="0.5" stroke-miterlimit="10"/>
<path d="M392.38 183.453C392.38 183.453 392.055 186.378 390.213 188.329C324.658 256.484 109.032 441.229 109.032 441.229" stroke="#404041" stroke-width="0.5" stroke-miterlimit="10"/>
<path d="M437.455 185.621C437.455 185.621 440.38 185.946 442.331 187.788C510.486 253.343 695.231 468.97 695.231 468.97" stroke="#404041" stroke-width="0.5" stroke-miterlimit="10"/>
<path d="M394.547 138.377C394.547 138.377 391.621 138.052 389.671 136.21C321.516 70.6555 136.771 -144.971 136.771 -144.971" stroke="#404041" stroke-width="0.5" stroke-miterlimit="10"/>
<path d="M429.546 133.067C429.546 133.067 428.679 130.25 429.654 127.649C464.111 39.6652 592.078 -213.777 592.078 -213.777" stroke="#404041" stroke-width="0.5" stroke-miterlimit="10"/>
<path d="M402.457 190.93C402.457 190.93 403.324 193.747 402.349 196.347C367.892 284.332 239.925 537.774 239.925 537.774" stroke="#404041" stroke-width="0.5" stroke-miterlimit="10"/>
<path d="M444.932 175.544C444.932 175.544 447.749 174.677 450.35 175.652C538.334 210.109 791.776 338.076 791.776 338.076" stroke="#404041" stroke-width="0.5" stroke-miterlimit="10"/>
<path d="M387.071 148.455C387.071 148.455 384.253 149.322 381.653 148.346C293.669 113.89 40.2263 -14.0776 40.2263 -14.0776" stroke="#404041" stroke-width="0.5" stroke-miterlimit="10"/>
<path d="M446.015 151.164C446.015 151.164 447.424 148.563 449.916 147.48C536.492 109.555 806.295 20.8127 806.295 20.8127" stroke="#404041" stroke-width="0.5" stroke-miterlimit="10"/>
<path d="M385.987 172.834C385.987 172.834 384.578 175.434 382.086 176.518C295.51 214.551 25.7065 303.185 25.7065 303.185" stroke="#404041" stroke-width="0.5" stroke-miterlimit="10"/>
<path d="M426.836 192.014C426.836 192.014 429.437 193.422 430.52 195.914C468.444 282.49 557.187 552.294 557.187 552.294" stroke="#404041" stroke-width="0.5" stroke-miterlimit="10"/>
<path d="M405.166 131.986C405.166 131.986 402.565 130.577 401.482 128.085C363.449 41.5092 274.815 -228.295 274.815 -228.295" stroke="#404041" stroke-width="0.5" stroke-miterlimit="10"/>
<path d="M423.802 131.009C423.802 131.009 422.394 128.408 422.936 125.699C439.839 32.6226 516.988 -240.649 516.988 -240.649" stroke="#404041" stroke-width="0.5" stroke-miterlimit="10"/>
<path d="M408.199 192.989C408.199 192.989 409.608 195.589 409.066 198.298C392.163 291.375 315.014 564.646 315.014 564.646" stroke="#404041" stroke-width="0.5" stroke-miterlimit="10"/>
<path d="M446.99 169.801C446.99 169.801 449.591 168.393 452.3 168.935C545.377 185.838 818.648 262.987 818.648 262.987" stroke="#404041" stroke-width="0.5" stroke-miterlimit="10"/>
<path d="M385.012 154.198C385.012 154.198 382.412 155.607 379.703 155.065C286.626 138.162 13.3545 61.0129 13.3545 61.0129" stroke="#404041" stroke-width="0.5" stroke-miterlimit="10"/>
<path d="M443.415 145.639C443.415 145.639 444.282 142.821 446.557 141.304C524.248 87.4519 772.056 -51.2424 772.056 -51.2424" stroke="#404041" stroke-width="0.5" stroke-miterlimit="10"/>
<path d="M388.586 178.361C388.586 178.361 387.719 181.178 385.444 182.695C307.753 236.656 59.9456 375.35 59.9456 375.35" stroke="#404041" stroke-width="0.5" stroke-miterlimit="10"/>
<path d="M432.363 189.414C432.363 189.414 435.18 190.28 436.697 192.556C490.549 270.246 629.244 518.054 629.244 518.054" stroke="#404041" stroke-width="0.5" stroke-miterlimit="10"/>
<path d="M399.638 134.586C399.638 134.586 396.821 133.719 395.304 131.443C341.343 53.7529 202.649 -194.055 202.649 -194.055" stroke="#404041" stroke-width="0.5" stroke-miterlimit="10"/>
<path d="M434.963 136.319C434.963 136.319 434.638 133.393 436.155 131.118C487.19 51.5852 662.725 -171.734 662.725 -171.734" stroke="#404041" stroke-width="0.5" stroke-miterlimit="10"/>
<path d="M397.039 187.679C397.039 187.679 397.364 190.605 395.847 192.88C344.812 272.413 169.277 495.733 169.277 495.733" stroke="#404041" stroke-width="0.5" stroke-miterlimit="10"/>
<path d="M441.681 180.962C441.681 180.962 444.606 180.637 446.882 182.154C526.414 233.189 749.734 408.724 749.734 408.724" stroke="#404041" stroke-width="0.5" stroke-miterlimit="10"/>
<path d="M390.321 143.037C390.321 143.037 387.395 143.362 385.119 141.845C305.479 90.8102 82.2673 -84.7249 82.2673 -84.7249" stroke="#404041" stroke-width="0.5" stroke-miterlimit="10"/>
<path d="M447.532 157.231C447.532 157.231 449.374 154.956 452.083 154.414C544.51 134.26 826.449 100.453 826.449 100.453" stroke="#404041" stroke-width="0.5" stroke-miterlimit="10"/>
<path d="M384.471 166.767C384.471 166.767 382.628 169.043 379.92 169.585C287.493 189.739 5.55322 223.545 5.55322 223.545" stroke="#404041" stroke-width="0.5" stroke-miterlimit="10"/>
<path d="M420.769 193.532C420.769 193.532 423.045 195.374 423.587 198.083C443.741 290.51 477.547 572.45 477.547 572.45" stroke="#404041" stroke-width="0.5" stroke-miterlimit="10"/>
<path d="M411.234 130.468C411.234 130.468 408.958 128.626 408.416 125.917C388.262 33.4904 354.456 -248.449 354.456 -248.449" stroke="#404041" stroke-width="0.5" stroke-miterlimit="10"/>
<path d="M420.552 130.359C420.552 130.359 418.926 127.866 419.143 125.158C426.403 30.8887 475.162 -248.884 475.162 -248.884" stroke="#404041" stroke-width="0.5" stroke-miterlimit="10"/>
<path d="M411.45 193.639C411.45 193.639 413.076 196.131 412.859 198.84C405.599 293.109 356.839 572.881 356.839 572.881" stroke="#404041" stroke-width="0.5" stroke-miterlimit="10"/>
<path d="M447.64 166.552C447.64 166.552 450.133 164.926 452.841 165.143C547.11 172.403 826.883 221.162 826.883 221.162" stroke="#404041" stroke-width="0.5" stroke-miterlimit="10"/>
<path d="M384.361 157.446C384.361 157.446 381.869 159.071 379.16 158.854C284.891 151.595 5.11865 102.835 5.11865 102.835" stroke="#404041" stroke-width="0.5" stroke-miterlimit="10"/>
<path d="M441.573 142.928C441.573 142.928 442.115 140.003 444.174 138.269C516.013 76.7235 748.326 -86.6758 748.326 -86.6758" stroke="#404041" stroke-width="0.5" stroke-miterlimit="10"/>
<path d="M390.429 181.069C390.429 181.069 389.887 183.994 387.829 185.728C315.989 247.274 83.6763 410.673 83.6763 410.673" stroke="#404041" stroke-width="0.5" stroke-miterlimit="10"/>
<path d="M435.072 187.572C435.072 187.572 437.997 188.114 439.731 190.173C501.277 262.012 664.676 494.325 664.676 494.325" stroke="#404041" stroke-width="0.5" stroke-miterlimit="10"/>
<path d="M396.931 136.428C396.931 136.428 394.005 135.886 392.271 133.828C330.726 61.9883 167.326 -170.325 167.326 -170.325" stroke="#404041" stroke-width="0.5" stroke-miterlimit="10"/>
<path d="M432.254 134.477C432.254 134.477 431.604 131.551 432.904 129.167C475.596 44.759 627.293 -195.247 627.293 -195.247" stroke="#404041" stroke-width="0.5" stroke-miterlimit="10"/>
<path d="M399.748 189.522C399.748 189.522 400.398 192.448 399.098 194.832C356.406 279.24 204.709 519.247 204.709 519.247" stroke="#404041" stroke-width="0.5" stroke-miterlimit="10"/>
<path d="M443.523 178.252C443.523 178.252 446.449 177.602 448.833 178.903C533.241 221.594 773.248 373.291 773.248 373.291" stroke="#404041" stroke-width="0.5" stroke-miterlimit="10"/>
<path d="M388.479 145.746C388.479 145.746 385.553 146.396 383.169 145.096C298.761 102.404 58.7546 -49.293 58.7546 -49.293" stroke="#404041" stroke-width="0.5" stroke-miterlimit="10"/>
<path d="M446.882 154.088C446.882 154.088 448.507 151.596 451.108 150.729C540.934 121.257 817.998 58.8442 817.998 58.8442" stroke="#404041" stroke-width="0.5" stroke-miterlimit="10"/>
<path d="M385.121 169.909C385.121 169.909 383.496 172.401 380.895 173.268C291.069 202.74 14.0054 265.153 14.0054 265.153" stroke="#404041" stroke-width="0.5" stroke-miterlimit="10"/>
<path d="M423.911 192.881C423.911 192.881 426.403 194.507 427.27 197.107C456.743 286.933 519.155 563.997 519.155 563.997" stroke="#404041" stroke-width="0.5" stroke-miterlimit="10"/>
<path d="M408.091 131.119C408.091 131.119 405.599 129.494 404.732 126.894C375.26 37.0673 312.847 -239.996 312.847 -239.996" stroke="#404041" stroke-width="0.5" stroke-miterlimit="10"/>
<path d="M426.728 131.878C426.728 131.878 425.536 129.169 426.295 126.568C451.975 35.5501 554.912 -229.053 554.912 -229.053" stroke="#404041" stroke-width="0.5" stroke-miterlimit="10"/>
<path d="M405.274 192.12C405.274 192.12 406.466 194.829 405.707 197.43C380.027 288.448 277.09 553.051 277.09 553.051" stroke="#404041" stroke-width="0.5" stroke-miterlimit="10"/>
<path d="M446.124 172.728C446.124 172.728 448.832 171.536 451.433 172.295C542.451 197.975 807.054 300.912 807.054 300.912" stroke="#404041" stroke-width="0.5" stroke-miterlimit="10"/>
<path d="M385.879 151.272C385.879 151.272 383.17 152.464 380.569 151.705C289.551 126.025 24.9485 23.0879 24.9485 23.0879" stroke="#404041" stroke-width="0.5" stroke-miterlimit="10"/>
<path d="M444.823 148.238C444.823 148.238 445.907 145.529 448.29 144.121C530.857 98.0699 790.8 -16.2446 790.8 -16.2446" stroke="#404041" stroke-width="0.5" stroke-miterlimit="10"/>
<path d="M387.179 175.76C387.179 175.76 386.096 178.469 383.712 179.878C301.145 225.929 41.2017 340.243 41.2017 340.243" stroke="#404041" stroke-width="0.5" stroke-miterlimit="10"/>
<path d="M429.762 190.822C429.762 190.822 432.471 191.905 433.879 194.289C479.93 276.855 594.245 536.799 594.245 536.799" stroke="#404041" stroke-width="0.5" stroke-miterlimit="10"/>
<path d="M402.24 133.177C402.24 133.177 399.531 132.093 398.122 129.709C352.072 47.1428 237.757 -212.801 237.757 -212.801" stroke="#404041" stroke-width="0.5" stroke-miterlimit="10"/>
<path d="M437.347 138.269C437.347 138.269 437.347 135.343 438.972 133.176C497.484 58.8448 693.498 -146.596 693.498 -146.596" stroke="#404041" stroke-width="0.5" stroke-miterlimit="10"/>
<path d="M394.655 185.729C394.655 185.729 394.655 188.654 393.029 190.821C334.518 265.153 138.504 470.594 138.504 470.594" stroke="#404041" stroke-width="0.5" stroke-miterlimit="10"/>
<path d="M439.731 183.346C439.731 183.346 442.657 183.346 444.824 184.972C519.155 243.483 724.596 439.497 724.596 439.497" stroke="#404041" stroke-width="0.5" stroke-miterlimit="10"/>
<path d="M392.271 140.653C392.271 140.653 389.346 140.653 387.178 139.027C312.847 80.5156 107.406 -115.499 107.406 -115.499" stroke="#404041" stroke-width="0.5" stroke-miterlimit="10"/>
<path d="M447.857 160.266C447.857 160.266 449.916 158.207 452.625 157.882C546.569 146.722 830.459 140.004 830.459 140.004" stroke="#404041" stroke-width="0.5" stroke-miterlimit="10"/>
<path d="M384.145 163.733C384.145 163.733 382.086 165.792 379.377 166.117C285.433 177.277 1.54321 183.995 1.54321 183.995" stroke="#404041" stroke-width="0.5" stroke-miterlimit="10"/>
<path d="M417.735 193.855C417.735 193.855 419.793 195.914 420.118 198.623C431.279 292.566 437.997 576.456 437.997 576.456" stroke="#404041" stroke-width="0.5" stroke-miterlimit="10"/>
<path d="M414.267 130.143C414.267 130.143 412.209 128.084 411.884 125.375C400.723 31.4316 394.005 -252.458 394.005 -252.458" stroke="#404041" stroke-width="0.5" stroke-miterlimit="10"/>
</g>
</svg>
