<svg width="60" height="60" viewBox="0 0 60 60" fill="none" xmlns="http://www.w3.org/2000/svg">
<g filter="url(#filter0_d)">
<rect x="4.5" y="0.5" width="51" height="51" rx="19.5" fill="#DFAB5A" stroke="#DFAB5A"/>
<path d="M17.536 15.0368L16.5907 15.3633L16.5907 15.3633L17.536 15.0368ZM17.5359 38.8199L18.4811 39.1464H18.4811L17.5359 38.8199ZM18.7961 39.9692L18.3842 39.058H18.3842L18.7961 39.9692ZM45.7714 27.7745L46.1833 28.6857V28.6857L45.7714 27.7745ZM45.7714 26.0822L46.1833 25.171L45.7714 26.0822ZM18.7962 13.8875L18.3842 14.7987L18.7962 13.8875ZM32.7859 27.9284C33.3382 27.9284 33.7859 27.4806 33.7859 26.9284C33.7859 26.3761 33.3382 25.9284 32.7859 25.9284V27.9284ZM16.5907 15.3633L20.6979 27.2548L22.5883 26.6019L18.4812 14.7103L16.5907 15.3633ZM20.6979 26.6019L16.5907 38.4934L18.4811 39.1464L22.5883 27.2548L20.6979 26.6019ZM19.2081 40.8804L46.1833 28.6857L45.3595 26.8633L18.3842 39.058L19.2081 40.8804ZM46.1833 25.171L19.2081 12.9763L18.3842 14.7987L45.3595 26.9934L46.1833 25.171ZM46.1833 28.6857C47.6955 28.0021 47.6955 25.8546 46.1833 25.171L45.3595 26.9934C45.3602 26.9938 45.3551 26.9914 45.3475 26.9848C45.3402 26.9783 45.3336 26.9704 45.3286 26.9621C45.3189 26.9463 45.3175 26.9344 45.3175 26.9284C45.3175 26.9223 45.3189 26.9104 45.3286 26.8946C45.3336 26.8863 45.3402 26.8784 45.3475 26.872C45.3551 26.8653 45.3602 26.863 45.3595 26.8633L46.1833 28.6857ZM16.5907 38.4934C16.0383 40.0927 17.6663 41.5774 19.2081 40.8804L18.3842 39.058C18.383 39.0585 18.3881 39.0561 18.3984 39.0549C18.4085 39.0537 18.4191 39.054 18.429 39.0559C18.4478 39.0593 18.4576 39.0665 18.4617 39.0703C18.4659 39.0741 18.4739 39.0831 18.4791 39.1015C18.4818 39.1112 18.4832 39.1218 18.4829 39.1319C18.4826 39.1423 18.4807 39.1476 18.4811 39.1464L16.5907 38.4934ZM18.4812 14.7103C18.4808 14.7091 18.4826 14.7144 18.4829 14.7248C18.4832 14.7349 18.4819 14.7455 18.4791 14.7552C18.474 14.7736 18.4659 14.7826 18.4618 14.7864C18.4576 14.7902 18.4479 14.7974 18.429 14.8008C18.4191 14.8027 18.4085 14.803 18.3985 14.8018C18.3882 14.8006 18.3831 14.7982 18.3842 14.7987L19.2081 12.9763C17.6663 12.2793 16.0384 13.7639 16.5907 15.3633L18.4812 14.7103ZM21.6431 27.9284H32.7859V25.9284H21.6431V27.9284Z" fill="#232323"/>
</g>
<defs>
<filter id="filter0_d" x="0" y="0" width="60" height="60" filterUnits="userSpaceOnUse" color-interpolation-filters="sRGB">
<feFlood flood-opacity="0" result="BackgroundImageFix"/>
<feColorMatrix in="SourceAlpha" type="matrix" values="0 0 0 0 0 0 0 0 0 0 0 0 0 0 0 0 0 0 127 0"/>
<feOffset dy="4"/>
<feGaussianBlur stdDeviation="2"/>
<feColorMatrix type="matrix" values="0 0 0 0 0 0 0 0 0 0 0 0 0 0 0 0 0 0 0.25 0"/>
<feBlend mode="normal" in2="BackgroundImageFix" result="effect1_dropShadow"/>
<feBlend mode="normal" in="SourceGraphic" in2="effect1_dropShadow" result="shape"/>
</filter>
</defs>
</svg>
