<svg width="52" height="52" viewBox="0 0 52 52" fill="none" xmlns="http://www.w3.org/2000/svg">
<rect x="0.5" y="0.5" width="51" height="51" rx="19.5" stroke="#DFAB5A"/>
<path d="M13.536 15.0368L12.5907 15.3633L12.5907 15.3633L13.536 15.0368ZM13.5359 38.8199L14.4811 39.1464H14.4811L13.5359 38.8199ZM14.7961 39.9692L14.3842 39.058H14.3842L14.7961 39.9692ZM41.7714 27.7745L42.1833 28.6857V28.6857L41.7714 27.7745ZM41.7714 26.0822L42.1833 25.171L41.7714 26.0822ZM14.7962 13.8875L14.3842 14.7987L14.7962 13.8875ZM28.7859 27.9284C29.3382 27.9284 29.7859 27.4806 29.7859 26.9284C29.7859 26.3761 29.3382 25.9284 28.7859 25.9284V27.9284ZM12.5907 15.3633L16.6979 27.2548L18.5883 26.6019L14.4812 14.7103L12.5907 15.3633ZM16.6979 26.6019L12.5907 38.4934L14.4811 39.1464L18.5883 27.2548L16.6979 26.6019ZM15.2081 40.8804L42.1833 28.6857L41.3595 26.8633L14.3842 39.058L15.2081 40.8804ZM42.1833 25.171L15.2081 12.9763L14.3842 14.7987L41.3595 26.9934L42.1833 25.171ZM42.1833 28.6857C43.6955 28.0021 43.6955 25.8546 42.1833 25.171L41.3595 26.9934C41.3602 26.9938 41.3551 26.9914 41.3475 26.9848C41.3402 26.9783 41.3336 26.9704 41.3286 26.9621C41.3189 26.9463 41.3175 26.9344 41.3175 26.9284C41.3175 26.9223 41.3189 26.9104 41.3286 26.8946C41.3336 26.8863 41.3402 26.8784 41.3475 26.872C41.3551 26.8653 41.3602 26.863 41.3595 26.8633L42.1833 28.6857ZM12.5907 38.4934C12.0383 40.0927 13.6663 41.5774 15.2081 40.8804L14.3842 39.058C14.383 39.0585 14.3881 39.0561 14.3984 39.0549C14.4085 39.0537 14.4191 39.054 14.429 39.0559C14.4478 39.0593 14.4576 39.0665 14.4617 39.0703C14.4659 39.0741 14.4739 39.0831 14.4791 39.1015C14.4818 39.1112 14.4832 39.1218 14.4829 39.1319C14.4826 39.1423 14.4807 39.1476 14.4811 39.1464L12.5907 38.4934ZM14.4812 14.7103C14.4808 14.7091 14.4826 14.7144 14.4829 14.7248C14.4832 14.7349 14.4819 14.7455 14.4791 14.7552C14.474 14.7736 14.4659 14.7826 14.4618 14.7864C14.4576 14.7902 14.4479 14.7974 14.429 14.8008C14.4191 14.8027 14.4085 14.803 14.3985 14.8018C14.3882 14.8006 14.3831 14.7982 14.3842 14.7987L15.2081 12.9763C13.6663 12.2793 12.0384 13.7639 12.5907 15.3633L14.4812 14.7103ZM17.6431 27.9284H28.7859V25.9284H17.6431V27.9284Z" fill="#DFAB5A"/>
</svg>
