<svg width="69" height="25" viewBox="0 0 69 25" fill="none" xmlns="http://www.w3.org/2000/svg">
<path d="M34.2391 3.0905C35.8858 1.8332 37.7434 1.19238 39.8037 1.19238C44.33 1.19238 48.183 4.64793 48.694 9.14177C49.2294 13.8708 46.147 18.1375 41.4909 19.046C38.8303 19.5652 36.4049 18.9649 34.2391 17.3183C34.1499 17.1317 34.3122 17.0506 34.4095 16.9533C34.8962 16.4828 35.3829 16.0042 35.7885 15.4526C36.8268 14.0168 37.4189 12.427 37.4919 10.6505C37.6055 7.7709 36.5672 5.38609 34.4176 3.47986C34.2878 3.38252 34.1418 3.28518 34.2391 3.0905Z" fill="#AAAAAA"/>
<path d="M34.1824 17.3346C32.3897 18.7461 30.3375 19.3625 28.0824 19.2084C24.1726 18.9407 20.9604 16.2558 19.9708 12.4839C18.5432 7.03288 22.4449 1.61432 28.0662 1.23308C30.3294 1.07896 32.3735 1.69544 34.1743 3.08253C34.2797 3.3421 34.0688 3.46377 33.9228 3.58545C33.1765 4.23438 32.5844 4.99687 32.0896 5.84859C31.5055 6.86254 31.1405 7.95761 31.0188 9.12568C30.6944 12.2162 31.684 14.8119 33.9958 16.9047C34.1256 17.0183 34.2554 17.1237 34.1824 17.3346Z" fill="#5B5B5B"/>
<path d="M34.1824 17.3346C33.7281 16.8642 33.2171 16.4423 32.8034 15.9313C31.6759 14.5361 31.027 12.9544 30.8242 11.1617C30.6376 9.50692 30.9215 7.93327 31.6029 6.4245C32.1139 5.29699 32.8359 4.31549 33.7768 3.49621C33.9228 3.36643 34.0688 3.24475 34.1743 3.08252C34.1986 3.08252 34.223 3.09063 34.2473 3.09063C34.8313 3.626 35.4154 4.16136 35.8858 4.81029C36.9566 6.28661 37.5812 7.92515 37.6623 9.75838C37.7758 12.2568 36.989 14.4307 35.3261 16.2963C34.9936 16.6695 34.6042 16.9777 34.2473 17.3265C34.2148 17.3265 34.1986 17.3346 34.1824 17.3346Z" fill="#888888"/>
<path d="M21.1713 22.461C21.1713 22.1528 21.1713 21.8445 21.1713 21.5444C21.1713 21.4552 21.1308 21.3011 21.2768 21.3011C21.4147 21.2929 21.6175 21.1875 21.6824 21.3984C21.7392 21.5687 21.804 21.4795 21.8689 21.4308C22.2907 21.1226 22.6963 21.1713 23.0613 21.5201C23.1668 21.6174 23.2155 21.5931 23.3047 21.5038C23.6373 21.1956 24.0266 21.1226 24.4322 21.3173C24.8297 21.5038 24.9514 21.8526 24.9351 22.2744C24.9189 22.6557 24.927 23.0451 24.9351 23.4344C24.9432 23.6372 24.8459 23.6778 24.6675 23.6778C24.4809 23.6778 24.4079 23.6291 24.416 23.4344C24.4322 23.0532 24.4241 22.6638 24.416 22.2744C24.4079 21.9256 24.2375 21.7472 23.8968 21.7472C23.548 21.7472 23.329 21.9419 23.3209 22.2744C23.3128 22.6638 23.3047 23.0451 23.3209 23.4344C23.329 23.6778 23.1992 23.6696 23.0289 23.6778C22.8342 23.6859 22.7774 23.6129 22.7856 23.4263C22.8018 23.0532 22.7937 22.68 22.7856 22.3069C22.7774 21.9256 22.599 21.731 22.2664 21.7229C21.8933 21.7147 21.6905 21.9175 21.6824 22.315C21.6743 22.6638 21.6824 23.0207 21.6905 23.3695C21.6986 23.5561 21.6905 23.6859 21.4309 23.6859C21.1632 23.6859 21.1389 23.5642 21.147 23.3533C21.1795 23.0532 21.1713 22.753 21.1713 22.461Z" fill="#888888"/>
<path d="M29.4777 23.7589C29.1451 23.7508 28.8774 23.694 28.6178 23.548C28.5367 23.4993 28.3583 23.4912 28.4637 23.3209C28.5367 23.2073 28.5773 23.0451 28.7963 23.1343C29.0802 23.256 29.3722 23.3371 29.6886 23.2479C29.8102 23.2154 29.94 23.1749 29.9481 23.0207C29.9562 22.8747 29.8183 22.8423 29.7129 22.8179C29.5182 22.7693 29.3154 22.7449 29.1126 22.6963C28.7152 22.607 28.488 22.3556 28.4799 22.0068C28.4718 21.6661 28.6989 21.3903 29.0721 21.2686C29.4777 21.1389 29.8589 21.2362 30.2239 21.3984C30.305 21.439 30.4997 21.4309 30.4024 21.6012C30.3294 21.731 30.2888 21.95 30.0374 21.8446C29.8913 21.7878 29.7372 21.7553 29.5831 21.7148C29.4452 21.6823 29.3154 21.7067 29.1856 21.7634C29.0964 21.804 29.0396 21.8689 29.0396 21.9743C29.0396 22.0798 29.1045 22.1447 29.21 22.1609C29.4209 22.2015 29.6318 22.2339 29.8427 22.2745C30.3131 22.3556 30.4997 22.5503 30.5078 22.9396C30.5078 23.3533 30.2807 23.621 29.8427 23.7021C29.7048 23.7427 29.5669 23.7508 29.4777 23.7589Z" fill="#888888"/>
<path d="M32.195 23.8075C31.6353 23.8156 31.3352 23.5236 31.3271 22.9964C31.319 22.7611 31.3271 22.5178 31.3271 22.2825C31.319 22.0554 31.4244 21.7715 31.0026 21.7958C30.8404 21.804 30.9134 21.6174 30.9053 21.52C30.8972 21.4227 30.881 21.2767 31.027 21.2929C31.3433 21.3335 31.3514 21.1469 31.3271 20.9279C31.3028 20.7008 31.3352 20.5791 31.6272 20.5791C31.903 20.5791 31.9274 20.717 31.8949 20.9117C31.8381 21.2524 32.0085 21.301 32.3005 21.2929C32.4465 21.2848 32.6574 21.1712 32.7304 21.4146C32.8196 21.6823 32.7223 21.804 32.4303 21.8121C31.8949 21.8202 31.8949 21.8202 31.8949 22.3555C31.8949 22.5178 31.8949 22.6719 31.8949 22.8341C31.903 23.191 32.122 23.3614 32.4546 23.2073C32.7791 23.0531 32.7385 23.3046 32.8196 23.4506C32.9494 23.6777 32.7547 23.6858 32.625 23.7264C32.4708 23.767 32.3167 23.8156 32.195 23.8075Z" fill="#888888"/>
<path d="M37.638 22.583C37.6299 21.9908 37.8164 21.6096 38.2626 21.3906C38.733 21.1553 39.2116 21.1959 39.6659 21.4392C39.893 21.5609 39.6659 21.6826 39.6334 21.8043C39.5848 21.9746 39.4955 21.9503 39.3576 21.8692C39.0251 21.6745 38.6763 21.715 38.441 21.9259C38.2058 22.145 38.1328 22.51 38.2626 22.8344C38.4329 23.2563 38.8628 23.4104 39.309 23.1589C39.5361 23.0291 39.5766 23.1346 39.674 23.2968C39.7957 23.4996 39.7064 23.5645 39.5361 23.6375C38.6114 24.035 37.638 23.4347 37.638 22.583Z" fill="#888888"/>
<path d="M43.1781 22.4613C43.1781 22.1531 43.1781 21.8529 43.1781 21.5447C43.1781 21.4555 43.1295 21.3095 43.2755 21.2932C43.4134 21.277 43.6162 21.204 43.6729 21.35C43.7459 21.5528 43.8108 21.4636 43.9001 21.3987C44.0298 21.3095 44.1758 21.2283 44.3381 21.2202C44.476 21.204 44.695 21.1878 44.695 21.35C44.695 21.496 44.7031 21.7718 44.3624 21.7232C43.9001 21.6583 43.7054 21.8773 43.7054 22.3559C43.7054 22.7209 43.6973 23.0778 43.7054 23.4428C43.7135 23.6699 43.5756 23.6618 43.4215 23.6618C43.2593 23.6699 43.17 23.6294 43.17 23.4428C43.1863 23.1184 43.1781 22.7939 43.1781 22.4613Z" fill="#888888"/>
<path d="M35.9993 22.4533C35.9993 22.137 35.9993 21.8206 35.9993 21.5043C35.9993 21.4232 35.9669 21.3015 36.1048 21.2934C36.2346 21.2853 36.4374 21.2123 36.4698 21.3421C36.5428 21.6341 36.6645 21.4313 36.7456 21.3826C36.9159 21.2934 37.0863 21.1798 37.281 21.2204C37.3702 21.2366 37.5568 21.2204 37.5 21.3988C37.4594 21.5286 37.5 21.7314 37.2566 21.7395C36.5915 21.7557 36.4941 21.8612 36.5022 22.5101C36.5022 22.8021 36.5104 23.1023 36.5266 23.3943C36.5347 23.589 36.486 23.6782 36.267 23.6782C36.0642 23.6782 35.9831 23.6214 35.9993 23.4105C36.0155 23.0942 35.9993 22.7778 35.9993 22.4533Z" fill="#888888"/>
<path d="M47.3394 20.5629C47.3394 20.352 47.242 20.3276 47.0717 20.3276C46.8932 20.3276 46.8284 20.3844 46.8365 20.5629C46.8446 20.863 46.8365 21.1712 46.8365 21.5363C46.4552 21.2767 46.1227 21.1307 45.7252 21.2524C45.2385 21.3984 44.9708 21.7553 44.8897 22.2258C44.7924 22.7449 44.9546 23.1992 45.3845 23.5155C45.7657 23.7994 46.1713 23.8156 46.5931 23.6047C46.6905 23.5561 46.7472 23.4587 46.8851 23.6291C47.0149 23.7913 47.3394 23.6453 47.3394 23.4425C47.3313 22.4853 47.3313 21.52 47.3394 20.5629ZM46.1226 23.2803C45.7171 23.2722 45.4007 22.9234 45.4007 22.4934C45.4088 22.0635 45.7414 21.7147 46.1389 21.7228C46.5445 21.7309 46.8527 22.0716 46.8527 22.5178C46.8527 22.9558 46.5363 23.2884 46.1226 23.2803Z" fill="#888888"/>
<path d="M42.513 23.3935C42.5211 23.0853 42.513 22.7852 42.513 22.4769C42.513 22.1849 42.513 21.8848 42.513 21.5928C42.513 21.3007 42.3183 21.1304 42.1399 21.3089C41.8397 21.6009 41.6937 21.2845 41.4828 21.2521C41.3125 21.2277 41.1502 21.2034 40.9799 21.2359C40.4688 21.3575 40.1849 21.6901 40.0795 22.1849C39.9578 22.7122 40.12 23.1583 40.5256 23.4909C40.915 23.8153 41.353 23.8316 41.7911 23.5882C41.8803 23.5395 41.9533 23.4341 42.0425 23.6288C42.0912 23.7261 42.294 23.6774 42.4238 23.6531C42.5617 23.6288 42.513 23.4909 42.513 23.3935ZM41.3287 23.28C40.9312 23.2881 40.5905 22.9312 40.5824 22.5094C40.5743 22.0957 40.915 21.7225 41.3125 21.7225C41.7099 21.7144 42.0506 22.0713 42.0588 22.4931C42.0588 22.9149 41.7262 23.2719 41.3287 23.28Z" fill="#888888"/>
<path d="M27.8878 21.5525C27.8878 21.4633 27.9364 21.3173 27.7904 21.3011C27.6525 21.2848 27.4416 21.2118 27.393 21.3578C27.32 21.5687 27.2551 21.4552 27.1658 21.3984C26.9063 21.2281 26.6305 21.1632 26.3222 21.2362C25.8355 21.3578 25.5516 21.6904 25.4381 22.169C25.3083 22.6963 25.4786 23.1424 25.8761 23.4831C26.2492 23.7994 26.671 23.8238 27.1172 23.6048C27.2145 23.5561 27.2794 23.4993 27.4173 23.6129C27.6363 23.7994 27.8878 23.6372 27.8878 23.3371C27.8878 23.0532 27.8878 22.7693 27.8878 22.4854C27.8959 22.1852 27.8959 21.8689 27.8878 21.5525ZM26.6629 23.2803C26.2655 23.2722 25.9248 22.899 25.941 22.4854C25.9491 22.0636 26.2979 21.7066 26.6954 21.7229C27.0928 21.731 27.4254 22.1041 27.4173 22.5178C27.4092 22.9396 27.0685 23.2884 26.6629 23.2803Z" fill="#888888"/>
<path d="M34.6934 21.2851C34.2148 21.1716 33.7605 21.2446 33.428 21.6502C33.0548 22.0963 33.0224 22.5992 33.2495 23.1184C33.4604 23.5888 33.866 23.7916 34.3689 23.7997C34.6285 23.8078 34.8475 23.6943 35.0827 23.5969C35.3099 23.5077 35.3342 23.4104 35.2044 23.1995C35.0908 23.021 35.0097 23.0859 34.8881 23.1508C34.4095 23.3779 34.0363 23.3212 33.8335 22.9886C33.72 22.8101 33.6956 22.6722 33.9877 22.6803C34.3932 22.6884 34.8069 22.6884 35.2125 22.6803C35.318 22.6803 35.4396 22.7128 35.4721 22.5424C35.5532 22.0557 35.172 21.3987 34.6934 21.2851ZM34.6934 22.2991C34.5717 22.291 34.4419 22.2991 34.3202 22.2991C34.2148 22.2991 34.1174 22.3072 34.012 22.2991C33.9147 22.291 33.7849 22.3559 33.7362 22.2423C33.6956 22.1369 33.7687 22.0233 33.8335 21.9341C34.0607 21.6421 34.6528 21.6826 34.8394 21.999C34.9448 22.1612 34.9935 22.3234 34.6934 22.2991Z" fill="#888888"/>
</svg>
