<svg width="29" height="29" viewBox="0 0 29 29" fill="none" xmlns="http://www.w3.org/2000/svg">
<path d="M28.1763 2.1548L19.9787 27.4971C19.9104 27.7036 19.7827 27.8853 19.6117 28.0196C19.4407 28.154 19.2339 28.2349 19.0171 28.2524C18.8004 28.2699 18.5833 28.2231 18.3929 28.118C18.2026 28.0128 18.0474 27.8539 17.9469 27.6611L12.4486 17.0627L23.6676 5.83202C23.8228 5.66552 23.9072 5.4453 23.9032 5.21775C23.8992 4.99021 23.807 4.77311 23.6461 4.61219C23.4852 4.45126 23.2681 4.35908 23.0405 4.35507C22.813 4.35105 22.5928 4.43552 22.4263 4.59066L11.1956 15.8097L0.597212 10.3407C0.403897 10.2412 0.244358 10.0868 0.138714 9.89677C0.0330705 9.70676 -0.0139482 9.48973 0.00358759 9.27304C0.0211233 9.05635 0.102428 8.8497 0.237249 8.67915C0.372071 8.50861 0.554372 8.3818 0.761165 8.31472L26.1035 0.081976C26.2722 0.0290877 26.4478 0.00146306 26.6246 0C26.8373 4.59446e-05 27.0479 0.0425372 27.2439 0.124984C27.44 0.207431 27.6176 0.328176 27.7664 0.480146C27.9853 0.692524 28.1398 0.962294 28.2123 1.2585C28.2848 1.55471 28.2723 1.86536 28.1763 2.1548Z" fill="#DFAB5A"/>
</svg>
