<svg width="24" height="30" viewBox="0 0 24 30" fill="none" xmlns="http://www.w3.org/2000/svg">
<path d="M21.9675 30H2.04176C0.918791 30 0 29.085 0 27.9667V2.03327C0 0.914972 0.918791 0 2.04176 0H21.9582C23.0811 0 23.9999 0.914972 23.9999 2.03327V27.9667C24.0092 29.085 23.0904 30 21.9675 30ZM2.04176 1.20148C1.57772 1.20148 1.20649 1.57116 1.20649 2.03327V27.9667C1.20649 28.4288 1.57772 28.7985 2.04176 28.7985H21.9582C22.4222 28.7985 22.7934 28.4288 22.7934 27.9667V2.03327C22.7934 1.57116 22.4222 1.20148 21.9582 1.20148H2.04176Z" fill="#DFAB5A"/>
<path d="M5.95178 18.2598C5.95178 18.574 6.20132 18.8236 6.51555 18.8236H17.449C17.7632 18.8236 18.0128 18.574 18.0128 18.2598C18.0128 17.9456 17.7632 17.696 17.449 17.696H6.51555C6.20132 17.696 5.95178 17.9548 5.95178 18.2598Z" fill="#DFAB5A"/>
<path d="M5.95203 14.6922C5.95203 15.0064 6.20156 15.256 6.5158 15.256H17.4493C17.7635 15.256 18.013 15.0064 18.013 14.6922C18.013 14.378 17.7635 14.1284 17.4493 14.1284H6.5158C6.20156 14.1284 5.95203 14.378 5.95203 14.6922Z" fill="#DFAB5A"/>
<path d="M5.95184 21.6517C5.95184 21.9659 6.20138 22.2154 6.51561 22.2154H17.4491C17.7633 22.2154 18.0128 21.9659 18.0128 21.6517C18.0128 21.3374 17.7633 21.0879 17.4491 21.0879H6.51561C6.20138 21.0879 5.95184 21.3374 5.95184 21.6517Z" fill="#DFAB5A"/>
<path d="M11.9686 11.5183C13.2447 11.5183 14.2792 10.4838 14.2792 9.20775C14.2792 7.93168 13.2447 6.89722 11.9686 6.89722C10.6925 6.89722 9.65808 7.93168 9.65808 9.20775C9.65808 10.4838 10.6925 11.5183 11.9686 11.5183Z" fill="#DFAB5A"/>
</svg>
