<svg width="69" height="25" viewBox="0 0 69 25" fill="none" xmlns="http://www.w3.org/2000/svg">
<path d="M42.9591 4.2343C43.2998 4.33164 43.6567 4.33163 43.9974 4.40464C44.5571 4.51009 45.1006 4.6561 45.636 4.84267C45.7739 4.89134 45.8225 4.95623 45.7982 5.10224C45.6279 6.13241 45.4575 7.16259 45.2953 8.18465C45.2628 8.36311 45.1898 8.33877 45.0682 8.28199C43.9569 7.75474 42.7807 7.52761 41.5558 7.5925C40.9637 7.62495 40.3959 7.72229 39.9092 8.08731C39.2927 8.54968 39.2521 9.20672 39.7956 9.75019C39.9416 9.8962 40.1038 10.0179 40.2823 10.1314C40.7609 10.4478 41.28 10.7074 41.7911 10.9588C42.3994 11.2671 42.9916 11.5996 43.5269 12.0214C45.0438 13.2057 45.5224 14.7388 45.0519 16.5802C44.6382 18.2025 43.5594 19.2651 42.0831 19.9627C41.1016 20.4251 40.0552 20.6522 38.9844 20.7252C37.2567 20.8469 35.5532 20.6522 33.9066 20.1087C33.3955 19.9384 33.4036 19.9384 33.4848 19.4111C33.6389 18.4621 33.793 17.5049 33.939 16.5558C33.9715 16.3531 34.0282 16.3368 34.2067 16.4179C35.0422 16.8154 35.8939 17.1723 36.8105 17.3102C37.6947 17.44 38.5708 17.513 39.4549 17.2859C39.8524 17.1804 40.2174 17.0182 40.5175 16.7262C40.9961 16.2395 41.0286 15.5743 40.5824 15.0552C40.3229 14.7551 39.9984 14.536 39.6577 14.3414C39.0899 14.025 38.5059 13.733 37.9299 13.4166C37.3621 13.1084 36.8349 12.7353 36.3644 12.281C35.0828 11.0562 34.7988 9.52307 35.4478 7.81152C35.9507 6.49744 36.9403 5.62949 38.1814 5.02923C39.0899 4.5831 40.0633 4.36408 41.061 4.25863C41.1178 4.25052 41.1908 4.27485 41.2395 4.20996C41.8235 4.2343 42.3913 4.2343 42.9591 4.2343Z" fill="#5B5B5B"/>
<path d="M13.0597 6.70058C13.0191 6.63568 12.9786 6.57079 12.9056 6.53023C11.6158 5.79208 10.2368 5.2486 8.80108 4.87547C8.76052 4.86735 8.71996 4.86735 8.67129 4.86735C8.67129 4.8268 8.67129 4.78624 8.67129 4.73757C8.70374 4.54289 8.83353 4.51855 9.01198 4.51855C11.0967 4.52667 13.1814 4.51855 15.266 4.51855C15.3715 4.51855 15.4769 4.51855 15.5824 4.52667C16.572 4.58345 17.1155 5.06203 17.3102 6.02731C17.7644 8.3229 18.2106 10.6185 18.6648 12.9141C18.6729 12.9709 18.681 13.0276 18.681 13.0844C18.5431 13.125 18.535 13.0114 18.4945 12.9303C18.2592 12.3787 18.0078 11.8271 17.6914 11.3161C17.2453 10.5698 16.7424 9.87222 16.1502 9.23951C15.339 8.35535 14.4143 7.58474 13.3841 6.94393C13.2706 6.87092 13.1732 6.78169 13.0597 6.70058Z" fill="#8C8C8C"/>
<path d="M13.0597 6.70045C13.1327 6.60311 13.1895 6.70045 13.2381 6.72479C14.0006 7.18715 14.7226 7.7144 15.3877 8.32278C16.4909 9.33673 17.4156 10.4805 18.097 11.8108C18.3079 12.2245 18.4863 12.6625 18.681 13.0843C18.8189 13.7657 18.9649 14.447 19.1028 15.1284C19.119 15.2014 19.1353 15.2744 19.1515 15.3637C19.2407 15.2988 19.2488 15.2095 19.2732 15.1284C20.5548 11.6891 21.8283 8.24166 23.1018 4.80234C23.183 4.58332 23.2884 4.51843 23.5155 4.52654C24.7891 4.53465 26.0707 4.53465 27.3442 4.53465C27.5876 4.53465 27.5876 4.53465 27.4983 4.76178C25.3893 9.95321 23.2803 15.1365 21.1713 20.328C21.1064 20.4821 21.0334 20.5389 20.863 20.5389C19.549 20.5307 18.2349 20.5307 16.9289 20.5389C16.7829 20.5389 16.7018 20.5064 16.6612 20.3442C15.4688 15.8098 14.2602 11.2835 13.0597 6.75723C13.0678 6.7329 13.0678 6.71668 13.0597 6.70045Z" fill="#5B5B5B"/>
<path d="M28.7475 20.539C28.1311 20.539 27.5146 20.5309 26.8981 20.539C26.7196 20.539 26.6872 20.4903 26.7196 20.32C27.3361 16.5319 27.9445 12.7518 28.561 8.96372C28.7881 7.5523 29.0233 6.14088 29.2424 4.72135C29.2667 4.551 29.3397 4.51855 29.4857 4.51855C30.7106 4.52667 31.9435 4.52667 33.1684 4.51855C33.3874 4.51855 33.4117 4.59156 33.3793 4.77813C33.1116 6.39234 32.852 8.00655 32.5924 9.62887C32.1706 12.2165 31.757 14.8041 31.3352 17.3998C31.1729 18.3894 31.0107 19.3709 30.8647 20.3605C30.8403 20.5147 30.7755 20.5552 30.6294 20.5471C29.9967 20.539 29.3721 20.539 28.7475 20.539Z" fill="#5B5B5B"/>
<path d="M59.7339 20.3119C59.5879 19.6305 59.45 18.9491 59.304 18.2759C58.3631 13.7658 57.4221 9.25574 56.4893 4.73757C56.4568 4.58345 56.4001 4.51855 56.2297 4.51855C55.1995 4.52667 54.1694 4.52667 53.1473 4.52667C52.1252 4.52667 51.4276 4.9728 51.0383 5.93809C50.4137 7.47929 49.7567 9.01239 49.1158 10.5536C47.7531 13.8145 46.3903 17.0672 45.0276 20.3281C44.9384 20.5471 44.9384 20.5471 45.1655 20.5471C46.4715 20.5471 47.7774 20.5471 49.0834 20.5471C49.2375 20.5471 49.3105 20.4903 49.3592 20.3524C49.5782 19.7197 49.8216 19.087 50.0406 18.4462C50.1136 18.2191 50.219 18.1298 50.4705 18.1298C51.2492 18.1542 52.0279 18.138 52.8147 18.138C53.6259 18.138 54.4289 18.1461 55.2401 18.138C55.4104 18.138 55.4916 18.1866 55.524 18.3651C55.6457 19.0302 55.7917 19.6873 55.9215 20.3443C55.9539 20.4984 56.0107 20.5471 56.1729 20.5471C57.3086 20.539 58.4442 20.539 59.5798 20.5471C59.7583 20.5471 59.7745 20.4822 59.7339 20.3119ZM54.5587 14.869C53.5448 14.8609 52.5308 14.869 51.5169 14.869C51.3952 14.869 51.3222 14.8609 51.379 14.7067C52.0766 12.8086 52.7661 10.9186 53.4637 9.0205C53.4718 8.99617 53.4799 8.96372 53.5448 8.95561C53.7638 10.002 53.9747 11.0403 54.1856 12.0786C54.3641 12.9384 54.5344 13.7982 54.721 14.6581C54.7615 14.8203 54.7291 14.869 54.5587 14.869Z" fill="#5B5B5B"/>
</svg>
