<svg width="31" height="31" viewBox="0 0 31 31" fill="none" xmlns="http://www.w3.org/2000/svg">
<path d="M15.4325 15.2074C14.7946 15.2074 14.1756 15.0832 13.5931 14.8381C13.0308 14.6012 12.5252 14.2621 12.0912 13.8311C11.6579 13.3994 11.317 12.8966 11.0787 12.3374C10.8323 11.758 10.7075 11.1424 10.7075 10.5079C10.7075 9.8735 10.8323 9.25787 11.0787 8.6785C11.317 8.11926 11.6579 7.61642 12.0912 7.18474C12.5252 6.75373 13.0308 6.4147 13.5931 6.17771C14.1756 5.93267 14.7946 5.80847 15.4325 5.80847C16.0703 5.80847 16.6893 5.93267 17.2718 6.17771C17.8341 6.4147 18.3396 6.75373 18.7737 7.18474C19.2071 7.61642 19.5479 8.11926 19.7862 8.6785C20.0325 9.25787 20.1575 9.8735 20.1575 10.5079C20.1575 11.1424 20.0325 11.758 19.7862 12.3374C19.5479 12.8966 19.2071 13.3994 18.7737 13.8311C18.3396 14.2621 17.8341 14.6012 17.2718 14.8381C16.6893 15.0832 16.0703 15.2074 15.4325 15.2074ZM15.4325 7.15117C14.5313 7.15185 13.6842 7.50095 13.0463 8.1347C12.4091 8.76913 12.0575 9.61235 12.0575 10.5079C12.0575 11.4035 12.4091 12.2467 13.0463 12.8818C13.6842 13.5149 14.5313 13.8647 15.4325 13.8647C16.3336 13.8647 17.1806 13.5149 17.8186 12.8818C18.4558 12.2467 18.8075 11.4035 18.8075 10.5079C18.8075 9.61235 18.4558 8.76913 17.8186 8.1347C17.1806 7.50095 16.3336 7.15185 15.4325 7.15117Z" fill="#DFAB5A"/>
<path d="M13.9772 28.9478C13.9508 28.9478 13.9238 28.9464 13.8975 28.9431C13.718 28.9223 13.558 28.833 13.4466 28.692C13.3352 28.5517 13.2853 28.3758 13.3062 28.198C13.3467 27.8603 13.6343 27.6052 13.9758 27.6052C14.0021 27.6052 14.0291 27.6072 14.0561 27.6099C14.235 27.6313 14.395 27.72 14.507 27.8609C14.6184 28.002 14.6684 28.1779 14.6468 28.3557C14.6069 28.6934 14.3187 28.9478 13.9772 28.9478ZM17.3414 28.9069C17.1806 28.9069 17.0248 28.8492 16.9019 28.7444C16.7783 28.6383 16.6974 28.4913 16.6737 28.3309C16.6697 28.2993 16.667 28.2678 16.667 28.2369C16.6655 27.9046 16.9147 27.6179 17.2461 27.5702C19.7422 27.2131 22.0325 26.1067 23.8699 24.3692V20.6788C23.8699 19.9357 23.5783 19.2361 23.0498 18.7091C22.52 18.1827 21.8159 17.8927 21.0687 17.8927H18.6286L16.0467 23.5415C15.9374 23.7805 15.6965 23.9349 15.4325 23.9349C15.1685 23.9349 14.9269 23.7805 14.8182 23.5415L12.2363 17.8927H9.79621C9.04898 17.8927 8.34563 18.1827 7.81576 18.7084C7.28656 19.2354 6.99563 19.9357 6.99496 20.6788V24.239C8.14516 25.3608 9.48233 26.2309 10.9687 26.8256C11.3143 26.964 11.4824 27.356 11.3433 27.6991C11.24 27.9549 10.9937 28.1201 10.7169 28.1201C10.6305 28.1201 10.5461 28.1039 10.4651 28.0717C9.59573 27.7239 8.75941 27.2829 7.97978 26.7612C7.20826 26.2456 6.48736 25.6481 5.83666 24.9855C5.71516 24.8607 5.64496 24.6901 5.64496 24.5163V20.6788C5.64496 20.1216 5.75498 19.5805 5.97166 19.0716C6.18023 18.5803 6.47993 18.1385 6.86063 17.7591C7.24201 17.3805 7.68616 17.0824 8.18026 16.8743C8.69191 16.6595 9.23596 16.55 9.79621 16.55H12.671C12.935 16.55 13.1766 16.7045 13.286 16.9434L15.4325 21.6409L17.579 16.9434C17.6883 16.7044 17.93 16.55 18.1939 16.55H21.0687C21.629 16.55 22.1729 16.6595 22.6846 16.8743C23.1787 17.0824 23.6228 17.3805 24.0035 17.7591C24.3849 18.1385 24.6846 18.5802 24.8933 19.0716C25.1099 19.5805 25.22 20.1217 25.22 20.6788V24.6525C25.22 24.8325 25.1491 25.0016 25.0208 25.1285C24.0083 26.1309 22.8507 26.9626 21.5797 27.601C20.2769 28.2563 18.8831 28.6927 17.438 28.8995C17.4062 28.9042 17.3738 28.9069 17.3414 28.9069Z" fill="#DFAB5A"/>
</svg>
