<svg width="28" height="25" viewBox="0 0 28 25" fill="none" xmlns="http://www.w3.org/2000/svg">
<path d="M5 25C4.76725 24.9638 4.5415 24.9078 4.377 24.7422L4.32575 20.6897H2.18663C0.980875 20.6897 0 19.7233 0 18.5362V2.15431C0 0.966379 0.980875 0 2.18663 0H25.8143C27.0191 0 28 0.966379 28 2.15431V18.5362C28 19.7233 27.0191 20.6897 25.8143 20.6897H13.7372L5.61863 24.7474C5.455 24.9095 5.23187 25 5 25ZM2.18663 1.72414C1.946 1.72414 1.75 1.91724 1.75 2.15431V18.5362C1.75 18.7724 1.946 18.9655 2.18663 18.9655H5C5.2345 18.9655 5.4585 19.0578 5.623 19.2233V22.8326L12.7564 19.2181C12.92 19.056 13.1423 18.9655 13.375 18.9655H25.8143C26.054 18.9655 26.25 18.7724 26.25 18.5362V2.15431C26.25 1.91724 26.054 1.72414 25.8143 1.72414H2.18663Z" fill="#DFAB5A"/>
<rect x="5" y="12" width="18" height="2" fill="#DFAB5A"/>
<rect x="5" y="6" width="18" height="2" fill="#DFAB5A"/>
</svg>
