<svg width="54" height="95" viewBox="0 0 54 95" fill="none" xmlns="http://www.w3.org/2000/svg">
<path d="M52.2584 41.7511V22.3031C52.2584 21.5174 51.6205 20.8795 50.8348 20.8795H48.5166V1.4236C48.5166 0.637897 47.8787 0 47.093 0H7.44219C6.65649 0 6.01859 0.637897 6.01859 1.4236V20.8795H3.6926C2.9069 20.8795 2.269 21.5174 2.269 22.3031V41.8601C1.30438 42.1557 0.604248 43.0581 0.604248 44.116V56.5706L0.612027 56.555V80.1883L0.604248 80.1728V92.6351C0.604248 93.942 1.66222 95 2.96914 95H3.14028H15.447H39.0181H51.3171H51.4804C52.7873 95 53.8453 93.942 53.8453 92.6351V92.464V80.1728V56.5862V44.2872V41.7511H52.2584ZM2.73576 41.7511V22.3031C2.73576 21.7741 3.16362 21.3462 3.6926 21.3462H6.01859H48.5166H50.8348C51.3638 21.3462 51.7916 21.7741 51.7916 22.3031V41.7511H39.0259H15.4315H2.96914H2.73576ZM53.3708 42.8247C53.1997 42.5913 52.9974 42.3813 52.7562 42.2179H53.3708V42.8247ZM14.4202 94.5099C11.5885 93.1174 9.00582 91.2737 6.77318 89.0644L10.8106 85.0504C15.2136 89.3912 21.0403 91.7716 27.2248 91.7716C33.3004 91.7716 39.0337 89.4612 43.4212 85.2604L47.443 89.2823C45.2648 91.3827 42.7677 93.1563 40.0294 94.4943H14.4202V94.5099ZM3.14028 94.5099C2.00451 94.5099 1.07878 93.5842 1.07878 92.4484V82.172C2.41681 84.6925 4.12046 87.0185 6.11973 89.0489L5.42737 89.7335C5.04619 89.4456 4.57944 89.2745 4.06601 89.2745C2.82133 89.2745 1.81003 90.2858 1.81003 91.5305C1.81003 92.7751 2.82133 93.7864 4.06601 93.7864C5.31068 93.7864 6.32199 92.7751 6.32199 91.5305C6.32199 90.9626 6.11195 90.4492 5.76966 90.0524L6.44645 89.3756C8.50795 91.4138 10.8573 93.1485 13.4166 94.5021H3.14028V94.5099ZM4.06601 93.3275C3.07804 93.3275 2.27678 92.5262 2.27678 91.5382C2.27678 90.5503 3.07804 89.749 4.06601 89.749C5.05397 89.749 5.85523 90.5503 5.85523 91.5382C5.85523 92.5262 5.05397 93.3275 4.06601 93.3275ZM50.508 43.3615C51.496 43.3615 52.2973 44.1627 52.2973 45.1507C52.2973 46.1386 51.496 46.9399 50.508 46.9399C49.5201 46.9399 48.7188 46.1386 48.7188 45.1507C48.7188 44.1627 49.5201 43.3615 50.508 43.3615ZM50.508 93.3275C49.5201 93.3275 48.7188 92.5262 48.7188 91.5382C48.7188 90.5503 49.5201 89.749 50.508 89.749C51.496 89.749 52.2973 90.5503 52.2973 91.5382C52.2973 92.5262 51.496 93.3275 50.508 93.3275ZM6.67983 47.7801C8.93581 45.5319 11.5496 43.6415 14.4279 42.2257H39.9905C42.8377 43.6182 45.4282 45.4696 47.6686 47.6867L43.6545 51.7008C39.2437 47.3522 33.4171 44.964 27.2248 44.964C20.9858 44.964 15.1203 47.3911 10.7017 51.7941L6.67983 47.7801ZM43.4289 84.6147L41.4141 82.5999C41.4219 82.5921 41.4297 82.5843 41.4297 82.5843C45.2259 78.7881 47.3108 73.7471 47.3108 68.3717C47.3108 63.0974 45.2959 58.142 41.6319 54.3691L43.6468 52.3542C47.8475 56.6639 50.158 62.335 50.158 68.3639C50.158 74.4939 47.7697 80.2506 43.4367 84.5836C43.4445 84.5992 43.4367 84.6069 43.4289 84.6147ZM43.3278 52.0275L41.313 54.0423C37.5323 50.3239 32.538 48.2779 27.2248 48.2779C21.8649 48.2779 16.8317 50.355 13.0432 54.1357L11.0284 52.1209C15.3615 47.8034 21.1103 45.4307 27.2248 45.4307C33.2926 45.4307 39.0025 47.7723 43.3278 52.0275ZM41.0874 82.2732L39.0025 80.1883C42.0364 77.1622 43.919 72.9848 43.919 68.3717C43.919 63.8753 42.1298 59.7834 39.2281 56.7806L41.313 54.6958C44.8914 58.3832 46.8518 63.2296 46.8518 68.3639C46.8518 73.6071 44.8136 78.5391 41.1029 82.2421C41.1029 82.2576 41.0952 82.2654 41.0874 82.2732ZM28.8818 66.4658C28.415 66.9325 27.7927 67.197 27.1314 67.197C26.4702 67.197 25.8479 66.9403 25.3811 66.4658L25.0699 66.1546C25.63 65.6101 26.3924 65.2756 27.2326 65.2756C28.026 65.2756 28.7495 65.5712 29.2941 66.069L28.8818 66.4658ZM25.0466 66.8081C25.6067 67.3604 26.3457 67.6638 27.1314 67.6638C27.9171 67.6638 28.6562 67.3526 29.2163 66.8003L29.613 66.4035C30.0564 66.9403 30.3209 67.6249 30.3209 68.3717C30.3209 69.2352 29.9631 70.0131 29.3952 70.581L29.1463 70.3321C28.0183 69.2041 26.2213 69.173 25.0544 70.262L24.8988 70.4176C24.4243 69.8731 24.1287 69.1574 24.1287 68.3795C24.1287 67.6793 24.362 67.0337 24.751 66.5202L25.0466 66.8081ZM25.3733 70.5965C26.3535 69.6864 27.8705 69.7175 28.8118 70.6666L29.0296 70.8844C28.5239 71.25 27.8938 71.4678 27.217 71.4678C26.4546 71.4678 25.7623 71.1955 25.2255 70.7366L25.3733 70.5965ZM24.8988 71.0711C25.5211 71.6078 26.338 71.9346 27.2248 71.9346C28.026 71.9346 28.7729 71.6701 29.3641 71.2189L31.2933 73.1481C30.1965 74.0816 28.7729 74.6495 27.2248 74.6495C25.5834 74.6495 24.0898 74.0194 22.9695 72.9848L24.8988 71.0711ZM29.6208 65.7345C28.9907 65.1589 28.1505 64.8088 27.2248 64.8088C26.2602 64.8088 25.3811 65.1978 24.7354 65.8279L22.814 63.9064C23.9497 62.7862 25.5056 62.0938 27.2248 62.0938C28.8973 62.0938 30.4143 62.7473 31.5345 63.8131L29.6208 65.7345ZM31.6434 72.8292L29.7219 70.9077C30.3754 70.262 30.7877 69.3596 30.7877 68.3717C30.7877 67.4926 30.4687 66.6914 29.9397 66.069L31.8612 64.1476C32.8803 65.26 33.5026 66.7458 33.5026 68.3717C33.5026 70.1142 32.7869 71.6856 31.6434 72.8292ZM24.4243 66.1779C23.9497 66.7847 23.6619 67.5471 23.6619 68.3717C23.6619 69.2819 24.0042 70.1065 24.5643 70.7366L22.635 72.6503C21.5848 71.5301 20.9469 70.0209 20.9469 68.3717C20.9469 66.7925 21.5304 65.3533 22.495 64.2487L24.4243 66.1779ZM22.635 73.3115C23.8408 74.4317 25.4511 75.1163 27.2248 75.1163C28.9051 75.1163 30.4454 74.5017 31.6278 73.4749L33.6193 75.4664C31.9234 76.9911 29.683 77.9246 27.2326 77.9246C24.6888 77.9246 22.3705 76.9211 20.6513 75.2874L22.635 73.3115ZM31.869 63.4863C30.6554 62.335 29.0218 61.6271 27.2248 61.6271C25.3811 61.6271 23.7086 62.3739 22.4872 63.5797L20.5035 61.596C22.2305 59.8845 24.611 58.8188 27.2248 58.8188C29.7997 58.8188 32.1335 59.8379 33.8527 61.5026L31.869 63.4863ZM33.9538 75.1396L31.9701 73.1559C33.1992 71.9346 33.9694 70.2387 33.9694 68.3717C33.9694 66.6136 33.2926 65.0188 32.1957 63.8131L34.1794 61.8293C35.7897 63.5408 36.7777 65.8434 36.7777 68.3717C36.7777 71.0166 35.6964 73.4126 33.9538 75.1396ZM22.1605 63.922C21.1103 65.1122 20.4802 66.668 20.4802 68.3717C20.4802 70.1531 21.1725 71.7712 22.3083 72.9848L20.3168 74.9607C18.6832 73.2493 17.6719 70.9233 17.6719 68.3717C17.6719 65.8901 18.621 63.6341 20.1768 61.9305L22.1605 63.922ZM20.3168 75.6219C22.1138 77.3411 24.5487 78.3913 27.2248 78.3913C29.8075 78.3913 32.1646 77.4112 33.946 75.7931L36.0387 77.8857C33.7204 80.0328 30.6243 81.3474 27.2248 81.3474C23.7319 81.3474 20.5502 79.955 18.2164 77.699L20.3168 75.6219ZM34.1872 61.1681C32.3824 59.4256 29.932 58.352 27.2248 58.352C24.4787 58.352 21.9816 59.4645 20.169 61.2615L18.0764 59.1689C20.4257 56.8351 23.6541 55.3881 27.217 55.3881C30.7332 55.3881 33.9227 56.7962 36.2643 59.0755L34.1872 61.1681ZM36.3732 77.559L34.2883 75.4741C36.1164 73.6616 37.2444 71.1489 37.2444 68.3717C37.2444 65.7112 36.202 63.2919 34.5139 61.5026L36.6065 59.41C38.8392 61.7438 40.2083 64.9022 40.2083 68.3717C40.2006 71.9579 38.7381 75.2096 36.3732 77.559ZM19.8423 61.6038C18.2009 63.3852 17.2051 65.7656 17.2051 68.3717C17.2051 71.0477 18.2631 73.4904 19.9823 75.2874L17.8819 77.3723C15.6337 75.0385 14.249 71.8646 14.249 68.3717C14.249 64.9488 15.5793 61.8293 17.7575 59.5111L19.8423 61.6038ZM17.8819 78.0335C20.3013 80.375 23.5997 81.8142 27.2248 81.8142C30.7488 81.8142 33.9694 80.4451 36.3654 78.2202L38.3335 80.1883C35.4241 82.9188 31.5189 84.5992 27.2248 84.5992C22.8295 84.5992 18.8388 82.8411 15.906 79.9939L17.8819 78.0335ZM36.6065 58.7488C34.1794 56.3839 30.8732 54.9292 27.2248 54.9292C23.5296 54.9292 20.1846 56.4228 17.7497 58.8421L15.7815 56.874C18.7143 53.949 22.7673 52.1442 27.2248 52.1442C31.6356 52.1442 35.6419 53.9179 38.5747 56.7806L36.6065 58.7488ZM38.6758 79.8616L36.7077 77.8935C39.1504 75.4586 40.6673 72.0902 40.6673 68.3717C40.6673 64.7699 39.2437 61.4948 36.9333 59.0833L38.9014 57.1151C41.7175 60.0323 43.4523 64.0075 43.4523 68.3717C43.4523 72.8525 41.6241 76.9211 38.6758 79.8616ZM17.423 59.1766C15.167 61.5804 13.7823 64.8166 13.7823 68.3717C13.7823 71.989 15.2214 75.2796 17.5552 77.699L15.5793 79.6594C12.7476 76.7344 10.9973 72.7514 10.9973 68.3717C10.9973 64.0542 12.6932 60.1179 15.4548 57.2085L17.423 59.1766ZM38.9014 56.4539C35.8909 53.5056 31.7679 51.6774 27.2248 51.6774C22.635 51.6774 18.4731 53.5367 15.4548 56.5473L13.37 54.4624C17.0807 50.7751 21.9971 48.7447 27.2248 48.7447C32.4058 48.7447 37.2833 50.7439 40.9863 54.3691L38.9014 56.4539ZM15.5793 80.3206C18.5898 83.2534 22.6973 85.0659 27.2248 85.0659C31.6512 85.0659 35.673 83.3389 38.668 80.5151L40.7529 82.5999C37.0811 86.085 32.3046 87.9987 27.2326 87.9987C22.0516 87.9987 17.1818 86.0072 13.4944 82.3976L15.5793 80.3206ZM15.1281 56.8818C12.2809 59.8768 10.5306 63.922 10.5306 68.3717C10.5306 72.8836 12.3276 76.9833 15.2448 79.9861L13.1522 82.0631C9.56592 78.3758 7.59 73.5215 7.59 68.3717C7.59 63.2763 9.51925 58.4765 13.0355 54.7969L15.1281 56.8818ZM13.1599 82.7244C16.9406 86.4273 21.9271 88.4654 27.2248 88.4654C32.4291 88.4654 37.3222 86.5051 41.0796 82.9266L43.0944 84.9414C38.8081 89.0489 33.1915 91.3126 27.2326 91.3126C21.1648 91.3126 15.4626 88.9711 11.1451 84.7236L13.1599 82.7244ZM12.7165 54.4702C9.11473 58.2276 7.13103 63.144 7.13103 68.3717C7.13103 73.6538 9.15363 78.6169 12.8332 82.3899L10.8106 84.3969C6.60204 80.0872 4.28383 74.4084 4.28383 68.3717C4.28383 62.3895 6.56314 56.7495 10.7017 52.4554L12.7165 54.4702ZM1.07878 44.2794C1.07878 43.1825 1.94228 42.2801 3.02359 42.2179V42.2257H13.4166C10.8184 43.6026 8.43016 45.3763 6.3531 47.4455L5.64519 46.7454C6.05749 46.3331 6.31421 45.773 6.32199 45.1429C6.32199 43.8982 5.31068 42.8869 4.06601 42.8869C2.82133 42.8869 1.81003 43.8982 1.81003 45.1429C1.81003 46.3876 2.82133 47.3989 4.06601 47.3989C4.50942 47.3989 4.9295 47.2666 5.27957 47.041L6.01859 47.7801C4.05823 49.7949 2.38569 52.082 1.071 54.5635V44.2794H1.07878ZM4.06601 43.3615C5.04619 43.3615 5.84745 44.1627 5.85523 45.1507C5.85523 46.1386 5.05397 46.9399 4.06601 46.9399C3.07804 46.9399 2.27678 46.1386 2.27678 45.1507C2.27678 44.1627 3.07804 43.3615 4.06601 43.3615ZM49.1 46.9088C49.489 47.22 49.9713 47.3989 50.508 47.3989C51.7527 47.3989 52.764 46.3876 52.764 45.1429C52.764 43.8982 51.7527 42.8869 50.508 42.8869C49.2634 42.8869 48.2521 43.8982 48.2521 45.1429C48.2521 45.6874 48.4465 46.1931 48.7733 46.5821L47.9953 47.36C45.9338 45.3218 43.5845 43.587 41.0252 42.2257H51.3093C52.4451 42.2257 53.3708 43.1514 53.3708 44.2872V54.5791C52.0328 52.0509 50.3213 49.7249 48.3221 47.6867L49.1 46.9088ZM47.762 89.6168L48.5554 90.4103C48.361 90.7448 48.2521 91.1259 48.2521 91.5382C48.2521 92.7829 49.2634 93.7942 50.508 93.7942C51.7527 93.7942 52.764 92.7829 52.764 91.5382C52.764 90.2936 51.7527 89.2823 50.508 89.2823C49.8468 89.2823 49.2478 89.5701 48.8355 90.0213L48.0965 89.2823C50.1891 87.1897 51.9783 84.7859 53.363 82.1643V92.4484C53.363 93.5842 52.4373 94.5099 51.3015 94.5099H41.0329C43.4989 93.2108 45.7627 91.5538 47.762 89.6168ZM47.7775 88.9633L43.7557 84.9414C43.7634 84.9337 43.7712 84.9259 43.7712 84.9259C48.1898 80.5073 50.6247 74.6262 50.6247 68.3717C50.6247 62.2183 48.2676 56.4306 43.9735 52.0275L47.9876 48.0134C50.158 50.2305 51.9861 52.7899 53.363 55.606V81.153C51.955 84.0546 50.0491 86.6918 47.7775 88.9633ZM10.375 52.1287C6.14306 56.5161 3.81707 62.265 3.81707 68.3717C3.81707 74.5328 6.18196 80.3284 10.4761 84.7236L6.43867 88.7377C4.26827 86.5284 2.44793 83.969 1.07878 81.1685V55.606C2.43237 52.8443 4.22159 50.3161 6.36088 48.1146L10.375 52.1287ZM7.44219 0.466754H47.093C47.6219 0.466754 48.0498 0.894612 48.0498 1.4236V20.8795H6.48535V1.4236C6.48535 0.894612 6.91321 0.466754 7.44219 0.466754Z" fill="#DFAB5A"/>
<path d="M5.46665 30.6807C4.94544 30.6807 4.51758 31.1085 4.51758 31.6297V34.3447C4.51758 34.8659 4.94544 35.2937 5.46665 35.2937C5.98785 35.2937 6.41571 34.8659 6.41571 34.3447V31.6297C6.41571 31.1085 5.98785 30.6807 5.46665 30.6807ZM5.94896 34.3369C5.94896 34.6014 5.73114 34.8192 5.46665 34.8192C5.20215 34.8192 4.98433 34.6014 4.98433 34.3369V31.6219C4.98433 31.3575 5.20215 31.1396 5.46665 31.1396C5.73114 31.1396 5.94896 31.3575 5.94896 31.6219V34.3369Z" fill="#DFAB5A"/>
<path d="M8.99785 12.4395C8.64 12.4395 8.35217 12.7273 8.35217 13.0851V14.6332C8.35217 14.991 8.64 15.2789 8.99785 15.2789C9.35569 15.2789 9.64353 14.991 9.64353 14.6332V13.0851C9.64353 12.7273 9.35569 12.4395 8.99785 12.4395ZM8.81893 13.0929C8.81893 12.9918 8.89672 12.914 8.99785 12.914C9.0912 12.914 9.17677 12.9918 9.17677 13.0851V14.641C9.17677 14.7421 9.09898 14.8199 8.99785 14.8199C8.89672 14.8199 8.81893 14.7421 8.81893 14.641V13.0929Z" fill="#DFAB5A"/>
<path d="M8.99785 16.002C8.64 16.002 8.35217 16.2898 8.35217 16.6476V18.1957C8.35217 18.5535 8.64 18.8414 8.99785 18.8414C9.35569 18.8414 9.64353 18.5535 9.64353 18.1957V16.6476C9.64353 16.2898 9.35569 16.002 8.99785 16.002ZM8.81893 16.6554C8.81893 16.5543 8.89672 16.4765 8.99785 16.4765C9.09898 16.4765 9.17677 16.5543 9.17677 16.6554V18.2035C9.17677 18.3046 9.09898 18.3824 8.99785 18.3824C8.89672 18.3824 8.81893 18.3046 8.81893 18.2035V16.6554Z" fill="#DFAB5A"/>
<path d="M10.9501 12.4395C10.5923 12.4395 10.3044 12.7273 10.3044 13.0851V14.6332C10.3044 14.991 10.5923 15.2789 10.9501 15.2789C11.3002 15.2789 11.588 14.991 11.5958 14.6332V13.0851C11.5958 12.7273 11.308 12.4395 10.9501 12.4395ZM10.7712 13.0929C10.7712 12.9918 10.849 12.914 10.9501 12.914C11.0435 12.914 11.1213 12.9918 11.1291 13.0851V14.641C11.1291 14.7421 11.0513 14.8199 10.9501 14.8199C10.849 14.8199 10.7712 14.7421 10.7712 14.641V13.0929Z" fill="#DFAB5A"/>
<path d="M10.9501 16.002C10.5923 16.002 10.3044 16.2898 10.3044 16.6476V18.1957C10.3044 18.5535 10.5923 18.8414 10.9501 18.8414C11.3002 18.8414 11.588 18.5535 11.5958 18.1957V16.6476C11.5958 16.2898 11.308 16.002 10.9501 16.002ZM10.7712 16.6554C10.7712 16.5543 10.849 16.4765 10.9501 16.4765C11.0435 16.4765 11.1213 16.5621 11.1291 16.6554V18.2035C11.1291 18.3046 11.0513 18.3824 10.9501 18.3824C10.849 18.3824 10.7712 18.3046 10.7712 18.2035V16.6554Z" fill="#DFAB5A"/>
<path d="M12.8953 12.4395C12.5375 12.4395 12.2496 12.7273 12.2496 13.0851V14.6332C12.2496 14.991 12.5375 15.2789 12.8953 15.2789C13.2454 15.2789 13.5332 14.991 13.541 14.6332V13.0851C13.541 12.7273 13.2531 12.4395 12.8953 12.4395ZM12.7164 13.0929C12.7164 12.9918 12.7942 12.914 12.8953 12.914C12.9886 12.914 13.0664 12.9918 13.0742 13.0851V14.641C13.0742 14.7421 12.9964 14.8199 12.8953 14.8199C12.7942 14.8199 12.7164 14.7421 12.7164 14.641V13.0929Z" fill="#DFAB5A"/>
<path d="M12.8953 16.002C12.5375 16.002 12.2496 16.2898 12.2496 16.6476V18.1957C12.2496 18.5535 12.5375 18.8414 12.8953 18.8414C13.2454 18.8414 13.5332 18.5535 13.541 18.1957V16.6476C13.541 16.2898 13.2531 16.002 12.8953 16.002ZM12.7164 16.6554C12.7164 16.5543 12.7942 16.4765 12.8953 16.4765C12.9886 16.4765 13.0664 16.5621 13.0742 16.6554V18.2035C13.0742 18.3046 12.9964 18.3824 12.8953 18.3824C12.7942 18.3824 12.7164 18.3046 12.7164 18.2035V16.6554Z" fill="#DFAB5A"/>
<path d="M14.84 12.4395C14.4822 12.4395 14.1943 12.7273 14.1943 13.0851V14.6332C14.1943 14.991 14.4822 15.2789 14.84 15.2789C15.19 15.2789 15.4778 14.991 15.4856 14.6332V13.0851C15.4856 12.7273 15.1978 12.4395 14.84 12.4395ZM14.6611 13.0929C14.6611 12.9918 14.7389 12.914 14.84 12.914C14.9333 12.914 15.0111 12.9918 15.0189 13.0851V14.641C15.0189 14.7421 14.9411 14.8199 14.84 14.8199C14.7389 14.8199 14.6611 14.7421 14.6611 14.641V13.0929Z" fill="#DFAB5A"/>
<path d="M14.84 16.002C14.4822 16.002 14.1943 16.2898 14.1943 16.6476V18.1957C14.1943 18.5535 14.4822 18.8414 14.84 18.8414C15.19 18.8414 15.4778 18.5535 15.4856 18.1957V16.6476C15.4856 16.2898 15.1978 16.002 14.84 16.002ZM14.6611 16.6554C14.6611 16.5543 14.7389 16.4765 14.84 16.4765C14.9333 16.4765 15.0111 16.5621 15.0189 16.6554V18.2035C15.0189 18.3046 14.9411 18.3824 14.84 18.3824C14.7389 18.3824 14.6611 18.3046 14.6611 18.2035V16.6554Z" fill="#DFAB5A"/>
<path d="M16.7843 12.4395C16.4265 12.4395 16.1387 12.7273 16.1387 13.0851V14.6332C16.1387 14.991 16.4265 15.2789 16.7843 15.2789C17.1344 15.2789 17.4222 14.991 17.43 14.6332V13.0851C17.43 12.7273 17.1422 12.4395 16.7843 12.4395ZM16.6054 13.0929C16.6054 12.9918 16.6832 12.914 16.7843 12.914C16.8777 12.914 16.9555 12.9918 16.9633 13.0851V14.641C16.9633 14.7421 16.8855 14.8199 16.7843 14.8199C16.6832 14.8199 16.6054 14.7421 16.6054 14.641V13.0929Z" fill="#DFAB5A"/>
<path d="M16.7843 16.002C16.4265 16.002 16.1387 16.2898 16.1387 16.6476V18.1957C16.1387 18.5535 16.4265 18.8414 16.7843 18.8414C17.1344 18.8414 17.4222 18.5535 17.43 18.1957V16.6476C17.43 16.2898 17.1422 16.002 16.7843 16.002ZM16.6054 16.6554C16.6054 16.5543 16.6832 16.4765 16.7843 16.4765C16.8777 16.4765 16.9555 16.5621 16.9633 16.6554V18.2035C16.9633 18.3046 16.8855 18.3824 16.7843 18.3824C16.6832 18.3824 16.6054 18.3046 16.6054 18.2035V16.6554Z" fill="#DFAB5A"/>
<path d="M18.7294 15.2789C19.0795 15.2789 19.3673 14.991 19.3751 14.6332V13.0851C19.3751 12.7273 19.0873 12.4395 18.7294 12.4395C18.3716 12.4395 18.0837 12.7273 18.0837 13.0851V14.6332C18.0837 14.991 18.3716 15.2789 18.7294 15.2789ZM18.5505 13.0929C18.5505 12.9918 18.6283 12.914 18.7294 12.914C18.8228 12.914 18.9006 12.9918 18.9083 13.0851V14.641C18.9083 14.7421 18.8305 14.8199 18.7294 14.8199C18.6283 14.8199 18.5505 14.7421 18.5505 14.641V13.0929Z" fill="#DFAB5A"/>
<path d="M18.7294 18.8414C19.0795 18.8414 19.3673 18.5535 19.3751 18.1957V16.6476C19.3751 16.2898 19.0873 16.002 18.7294 16.002C18.3716 16.002 18.0837 16.2898 18.0837 16.6476V18.1957C18.0837 18.5535 18.3716 18.8414 18.7294 18.8414ZM18.5505 16.6554C18.5505 16.5543 18.6283 16.4765 18.7294 16.4765C18.8228 16.4765 18.9006 16.5543 18.9083 16.6554V18.2035C18.9083 18.3046 18.8305 18.3824 18.7294 18.3824C18.6283 18.3824 18.5505 18.3046 18.5505 18.2035V16.6554Z" fill="#DFAB5A"/>
<path d="M20.6744 15.2789C21.0244 15.2789 21.3123 14.991 21.32 14.6332V13.0851C21.32 12.7195 21.04 12.4395 20.6744 12.4395C20.3165 12.4395 20.0287 12.7273 20.0287 13.0851V14.6332C20.0287 14.991 20.3165 15.2789 20.6744 15.2789ZM20.4954 13.0929C20.4954 12.9918 20.5732 12.914 20.6744 12.914C20.7677 12.914 20.8455 12.9918 20.8533 13.0851V14.641C20.8533 14.7421 20.7755 14.8199 20.6744 14.8199C20.5732 14.8199 20.4954 14.7421 20.4954 14.641V13.0929Z" fill="#DFAB5A"/>
<path d="M20.6744 18.8414C21.0244 18.8414 21.3123 18.5535 21.32 18.1957V16.6476C21.32 16.282 21.04 16.002 20.6744 16.002C20.3165 16.002 20.0287 16.2898 20.0287 16.6476V18.1957C20.0287 18.5535 20.3165 18.8414 20.6744 18.8414ZM20.4954 16.6554C20.4954 16.5543 20.5732 16.4765 20.6744 16.4765C20.7677 16.4765 20.8455 16.5543 20.8533 16.6554V18.2035C20.8533 18.3046 20.7755 18.3824 20.6744 18.3824C20.5732 18.3824 20.4954 18.3046 20.4954 18.2035V16.6554Z" fill="#DFAB5A"/>
<path d="M22.6192 15.2789C22.9693 15.2789 23.2649 14.9833 23.2649 14.6332V13.0851C23.2649 12.7273 22.977 12.4395 22.6192 12.4395C22.2613 12.4395 21.9735 12.7273 21.9735 13.0851V14.6332C21.9735 14.991 22.2613 15.2789 22.6192 15.2789ZM22.4403 13.0929C22.4403 12.9918 22.5181 12.914 22.6192 12.914C22.7125 12.914 22.7981 12.9918 22.7981 13.0851V14.641C22.7981 14.7421 22.7203 14.8199 22.6192 14.8199C22.5181 14.8199 22.4403 14.7421 22.4403 14.641V13.0929Z" fill="#DFAB5A"/>
<path d="M22.6192 18.8414C22.9693 18.8414 23.2649 18.5458 23.2649 18.1957V16.6476C23.2649 16.2898 22.977 16.002 22.6192 16.002C22.2613 16.002 21.9735 16.2898 21.9735 16.6476V18.1957C21.9735 18.5535 22.2613 18.8414 22.6192 18.8414ZM22.4403 16.6554C22.4403 16.5543 22.5181 16.4765 22.6192 16.4765C22.7203 16.4765 22.7981 16.5543 22.7981 16.6554V18.2035C22.7981 18.3046 22.7203 18.3824 22.6192 18.3824C22.5181 18.3824 22.4403 18.3046 22.4403 18.2035V16.6554Z" fill="#DFAB5A"/>
<path d="M24.5639 15.2789C24.914 15.2789 25.2096 14.9833 25.2096 14.6332V13.0851C25.2096 12.7195 24.9295 12.4395 24.5639 12.4395C24.206 12.4395 23.9182 12.7273 23.9182 13.0851V14.6332C23.9182 14.991 24.206 15.2789 24.5639 15.2789ZM24.385 13.0929C24.385 12.9918 24.4628 12.914 24.5639 12.914C24.6572 12.914 24.7428 12.9918 24.7428 13.0851V14.641C24.7428 14.7421 24.665 14.8199 24.5639 14.8199C24.4628 14.8199 24.385 14.7421 24.385 14.641V13.0929Z" fill="#DFAB5A"/>
<path d="M24.5639 18.8414C24.914 18.8414 25.2096 18.5458 25.2096 18.1957V16.6476C25.2096 16.282 24.9295 16.002 24.5639 16.002C24.206 16.002 23.9182 16.2898 23.9182 16.6476V18.1957C23.9182 18.5535 24.206 18.8414 24.5639 18.8414ZM24.385 16.6554C24.385 16.5543 24.4628 16.4765 24.5639 16.4765C24.665 16.4765 24.7428 16.5543 24.7428 16.6554V18.2035C24.7428 18.3046 24.665 18.3824 24.5639 18.3824C24.4628 18.3824 24.385 18.3046 24.385 18.2035V16.6554Z" fill="#DFAB5A"/>
<path d="M26.5087 15.2789C26.8588 15.2789 27.1544 14.9833 27.1544 14.6332V13.0851C27.1544 12.7273 26.8666 12.4395 26.5087 12.4395C26.1509 12.4395 25.863 12.7273 25.863 13.0851V14.6332C25.863 14.991 26.1509 15.2789 26.5087 15.2789ZM26.3298 13.0929C26.3298 12.9918 26.4076 12.914 26.5087 12.914C26.6021 12.914 26.6876 12.9918 26.6876 13.0851V14.641C26.6876 14.7421 26.6098 14.8199 26.5087 14.8199C26.4076 14.8199 26.3298 14.7421 26.3298 14.641V13.0929Z" fill="#DFAB5A"/>
<path d="M26.5087 18.8414C26.8588 18.8414 27.1544 18.5458 27.1544 18.1957V16.6476C27.1544 16.2898 26.8666 16.002 26.5087 16.002C26.1509 16.002 25.863 16.2898 25.863 16.6476V18.1957C25.863 18.5535 26.1509 18.8414 26.5087 18.8414ZM26.3298 16.6554C26.3298 16.5543 26.4076 16.4765 26.5087 16.4765C26.6098 16.4765 26.6876 16.5543 26.6876 16.6554V18.2035C26.6876 18.3046 26.6098 18.3824 26.5087 18.3824C26.4076 18.3824 26.3298 18.3046 26.3298 18.2035V16.6554Z" fill="#DFAB5A"/>
<path d="M28.4535 15.2789C28.8036 15.2789 29.0992 14.9833 29.0992 14.6332V13.0851C29.0992 12.7195 28.8192 12.4395 28.4535 12.4395C28.0957 12.4395 27.8079 12.7273 27.8079 13.0851V14.6332C27.8079 14.991 28.0957 15.2789 28.4535 15.2789ZM28.2746 13.0929C28.2746 12.9918 28.3524 12.914 28.4535 12.914C28.5469 12.914 28.6325 12.9918 28.6325 13.0851V14.641C28.6325 14.7421 28.5547 14.8199 28.4535 14.8199C28.3524 14.8199 28.2746 14.7421 28.2746 14.641V13.0929Z" fill="#DFAB5A"/>
<path d="M28.4535 18.8414C28.8036 18.8414 29.0992 18.5458 29.0992 18.1957V16.6476C29.0992 16.282 28.8192 16.002 28.4535 16.002C28.0957 16.002 27.8079 16.2898 27.8079 16.6476V18.1957C27.8079 18.5535 28.0957 18.8414 28.4535 18.8414ZM28.2746 16.6554C28.2746 16.5543 28.3524 16.4765 28.4535 16.4765C28.5547 16.4765 28.6325 16.5543 28.6325 16.6554V18.2035C28.6325 18.3046 28.5547 18.3824 28.4535 18.3824C28.3524 18.3824 28.2746 18.3046 28.2746 18.2035V16.6554Z" fill="#DFAB5A"/>
<path d="M30.3982 15.2789C30.7482 15.2789 31.0438 14.9833 31.0438 14.6332V13.0851C31.0438 12.7273 30.756 12.4395 30.3982 12.4395C30.0404 12.4395 29.7526 12.7273 29.7526 13.0851V14.6332C29.7526 14.991 30.0404 15.2789 30.3982 15.2789ZM30.2193 13.0929C30.2193 12.9918 30.2971 12.914 30.3982 12.914C30.4915 12.914 30.5771 12.9918 30.5771 13.0851V14.641C30.5771 14.7421 30.4993 14.8199 30.3982 14.8199C30.2971 14.8199 30.2193 14.7421 30.2193 14.641V13.0929Z" fill="#DFAB5A"/>
<path d="M30.3982 18.8414C30.7482 18.8414 31.0438 18.5458 31.0438 18.1957V16.6476C31.0438 16.2898 30.756 16.002 30.3982 16.002C30.0404 16.002 29.7526 16.2898 29.7526 16.6476V18.1957C29.7526 18.5535 30.0404 18.8414 30.3982 18.8414ZM30.2193 16.6554C30.2193 16.5543 30.2971 16.4765 30.3982 16.4765C30.4993 16.4765 30.5771 16.5543 30.5771 16.6554V18.2035C30.5771 18.3046 30.4993 18.3824 30.3982 18.3824C30.2971 18.3824 30.2193 18.3046 30.2193 18.2035V16.6554Z" fill="#DFAB5A"/>
<path d="M32.3431 15.2789C32.7009 15.2789 32.9887 14.991 32.9887 14.6332V13.0851C32.9887 12.7273 32.7009 12.4395 32.3431 12.4395C31.9852 12.4395 31.6974 12.7273 31.6974 13.0851V14.6332C31.6974 14.991 31.9852 15.2789 32.3431 15.2789ZM32.1641 13.0929C32.1641 12.9918 32.2419 12.914 32.3431 12.914C32.4364 12.914 32.522 12.9918 32.522 13.0851V14.641C32.522 14.7421 32.4442 14.8199 32.3431 14.8199C32.2419 14.8199 32.1641 14.7421 32.1641 14.641V13.0929Z" fill="#DFAB5A"/>
<path d="M32.3431 18.8414C32.7009 18.8414 32.9887 18.5535 32.9887 18.1957V16.6476C32.9887 16.2898 32.7009 16.002 32.3431 16.002C31.9852 16.002 31.6974 16.2898 31.6974 16.6476V18.1957C31.6974 18.5535 31.9852 18.8414 32.3431 18.8414ZM32.1641 16.6554C32.1641 16.5543 32.2419 16.4765 32.3431 16.4765C32.4442 16.4765 32.522 16.5543 32.522 16.6554V18.2035C32.522 18.3046 32.4442 18.3824 32.3431 18.3824C32.2419 18.3824 32.1641 18.3046 32.1641 18.2035V16.6554Z" fill="#DFAB5A"/>
<path d="M34.2878 15.2789C34.6456 15.2789 34.9334 14.991 34.9334 14.6332V13.0851C34.9334 12.7273 34.6456 12.4395 34.2878 12.4395C33.9299 12.4395 33.6421 12.7273 33.6421 13.0851V14.6332C33.6421 14.991 33.9299 15.2789 34.2878 15.2789ZM34.1088 13.0929C34.1088 12.9918 34.1866 12.914 34.2878 12.914C34.3811 12.914 34.4667 12.9918 34.4667 13.0851V14.641C34.4667 14.7421 34.3889 14.8199 34.2878 14.8199C34.1866 14.8199 34.1088 14.7421 34.1088 14.641V13.0929Z" fill="#DFAB5A"/>
<path d="M34.2878 18.8414C34.6456 18.8414 34.9334 18.5535 34.9334 18.1957V16.6476C34.9334 16.2898 34.6456 16.002 34.2878 16.002C33.9299 16.002 33.6421 16.2898 33.6421 16.6476V18.1957C33.6421 18.5535 33.9299 18.8414 34.2878 18.8414ZM34.1088 16.6554C34.1088 16.5543 34.1866 16.4765 34.2878 16.4765C34.3889 16.4765 34.4667 16.5543 34.4667 16.6554V18.2035C34.4667 18.3046 34.3889 18.3824 34.2878 18.3824C34.1866 18.3824 34.1088 18.3046 34.1088 18.2035V16.6554Z" fill="#DFAB5A"/>
<path d="M36.2326 15.2789C36.5904 15.2789 36.8783 14.991 36.8783 14.6332V13.0851C36.8783 12.7273 36.5904 12.4395 36.2326 12.4395C35.8747 12.4395 35.5869 12.7273 35.5869 13.0851V14.6332C35.5869 14.991 35.8747 15.2789 36.2326 15.2789ZM36.0537 13.0929C36.0537 12.9918 36.1315 12.914 36.2326 12.914C36.3259 12.914 36.4115 12.9918 36.4115 13.0851V14.641C36.4115 14.7421 36.3337 14.8199 36.2326 14.8199C36.1315 14.8199 36.0537 14.7421 36.0537 14.641V13.0929Z" fill="#DFAB5A"/>
<path d="M36.2326 18.8414C36.5904 18.8414 36.8783 18.5535 36.8783 18.1957V16.6476C36.8783 16.2898 36.5904 16.002 36.2326 16.002C35.8747 16.002 35.5869 16.2898 35.5869 16.6476V18.1957C35.5869 18.5535 35.8747 18.8414 36.2326 18.8414ZM36.0537 16.6554C36.0537 16.5543 36.1315 16.4765 36.2326 16.4765C36.3337 16.4765 36.4115 16.5543 36.4115 16.6554V18.2035C36.4115 18.3046 36.3337 18.3824 36.2326 18.3824C36.1315 18.3824 36.0537 18.3046 36.0537 18.2035V16.6554Z" fill="#DFAB5A"/>
<path d="M38.1774 15.2789C38.5353 15.2789 38.8231 14.991 38.8231 14.6332V13.0851C38.8231 12.7195 38.543 12.4395 38.1774 12.4395C37.8196 12.4395 37.5317 12.7273 37.5317 13.0851V14.6332C37.5317 14.991 37.8196 15.2789 38.1774 15.2789ZM37.9985 13.0929C37.9985 12.9918 38.0763 12.914 38.1774 12.914C38.2708 12.914 38.3563 12.9918 38.3563 13.0851V14.641C38.3563 14.7421 38.2785 14.8199 38.1774 14.8199C38.0763 14.8199 37.9985 14.7421 37.9985 14.641V13.0929Z" fill="#DFAB5A"/>
<path d="M38.1774 18.8414C38.5353 18.8414 38.8231 18.5535 38.8231 18.1957V16.6476C38.8231 16.282 38.543 16.002 38.1774 16.002C37.8196 16.002 37.5317 16.2898 37.5317 16.6476V18.1957C37.5317 18.5535 37.8196 18.8414 38.1774 18.8414ZM37.9985 16.6554C37.9985 16.5543 38.0763 16.4765 38.1774 16.4765C38.2785 16.4765 38.3563 16.5543 38.3563 16.6554V18.2035C38.3563 18.3046 38.2785 18.3824 38.1774 18.3824C38.0763 18.3824 37.9985 18.3046 37.9985 18.2035V16.6554Z" fill="#DFAB5A"/>
<path d="M40.1308 15.2789C40.4808 15.2789 40.7687 14.991 40.7765 14.6332V13.0851C40.7765 12.7273 40.4886 12.4395 40.1308 12.4395C39.7729 12.4395 39.4851 12.7273 39.4851 13.0851V14.6332C39.4851 14.991 39.7729 15.2789 40.1308 15.2789ZM39.9519 13.0929C39.9519 12.9918 40.0297 12.914 40.1308 12.914C40.2241 12.914 40.3019 12.9918 40.3097 13.0851V14.641C40.3097 14.7421 40.2319 14.8199 40.1308 14.8199C40.0297 14.8199 39.9519 14.7421 39.9519 14.641V13.0929Z" fill="#DFAB5A"/>
<path d="M40.1308 18.8414C40.4808 18.8414 40.7687 18.5535 40.7765 18.1957V16.6476C40.7765 16.2898 40.4886 16.002 40.1308 16.002C39.7729 16.002 39.4851 16.2898 39.4851 16.6476V18.1957C39.4851 18.5535 39.7729 18.8414 40.1308 18.8414ZM39.9519 16.6554C39.9519 16.5543 40.0297 16.4765 40.1308 16.4765C40.2241 16.4765 40.3019 16.5621 40.3097 16.6554V18.2035C40.3097 18.3046 40.2319 18.3824 40.1308 18.3824C40.0297 18.3824 39.9519 18.3046 39.9519 18.2035V16.6554Z" fill="#DFAB5A"/>
<path d="M42.0748 15.2789C42.4248 15.2789 42.7126 14.991 42.7204 14.6332V13.0851C42.7204 12.7195 42.4404 12.4395 42.0748 12.4395C41.7169 12.4395 41.4291 12.7273 41.4291 13.0851V14.6332C41.4291 14.991 41.7169 15.2789 42.0748 15.2789ZM41.8958 13.0929C41.8958 12.9918 41.9736 12.914 42.0748 12.914C42.1681 12.914 42.2459 12.9918 42.2537 13.0851V14.641C42.2537 14.7421 42.1759 14.8199 42.0748 14.8199C41.9736 14.8199 41.8958 14.7421 41.8958 14.641V13.0929Z" fill="#DFAB5A"/>
<path d="M42.0748 18.8414C42.4248 18.8414 42.7126 18.5535 42.7204 18.1957V16.6476C42.7204 16.282 42.4404 16.002 42.0748 16.002C41.7169 16.002 41.4291 16.2898 41.4291 16.6476V18.1957C41.4291 18.5535 41.7169 18.8414 42.0748 18.8414ZM41.8958 16.6554C41.8958 16.5543 41.9736 16.4765 42.0748 16.4765C42.1681 16.4765 42.2459 16.5621 42.2537 16.6554V18.2035C42.2537 18.3046 42.1759 18.3824 42.0748 18.3824C41.9736 18.3824 41.8958 18.3046 41.8958 18.2035V16.6554Z" fill="#DFAB5A"/>
<path d="M44.0195 15.2789C44.3695 15.2789 44.6574 14.991 44.6651 14.6332V13.0851C44.6651 12.7273 44.3773 12.4395 44.0195 12.4395C43.6616 12.4395 43.3738 12.7273 43.3738 13.0851V14.6332C43.3738 14.991 43.6616 15.2789 44.0195 15.2789ZM43.8405 13.0929C43.8405 12.9918 43.9183 12.914 44.0195 12.914C44.1128 12.914 44.1906 12.9918 44.1984 13.0851V14.641C44.1984 14.7421 44.1206 14.8199 44.0195 14.8199C43.9183 14.8199 43.8405 14.7421 43.8405 14.641V13.0929Z" fill="#DFAB5A"/>
<path d="M44.0195 18.8414C44.3695 18.8414 44.6574 18.5535 44.6651 18.1957V16.6476C44.6651 16.2898 44.3773 16.002 44.0195 16.002C43.6616 16.002 43.3738 16.2898 43.3738 16.6476V18.1957C43.3738 18.5535 43.6616 18.8414 44.0195 18.8414ZM43.8405 16.6554C43.8405 16.5543 43.9183 16.4765 44.0195 16.4765C44.1128 16.4765 44.1906 16.5621 44.1984 16.6554V18.2035C44.1984 18.3046 44.1206 18.3824 44.0195 18.3824C43.9183 18.3824 43.8405 18.3046 43.8405 18.2035V16.6554Z" fill="#DFAB5A"/>
<path d="M45.9643 15.2789C46.3143 15.2789 46.6022 14.991 46.61 14.6332V13.0851C46.61 12.7195 46.3299 12.4395 45.9643 12.4395C45.6064 12.4395 45.3186 12.7273 45.3186 13.0851V14.6332C45.3186 14.991 45.6064 15.2789 45.9643 15.2789ZM45.7854 13.0929C45.7854 12.9918 45.8631 12.914 45.9643 12.914C46.0576 12.914 46.1354 12.9918 46.1432 13.0851V14.641C46.1432 14.7421 46.0654 14.8199 45.9643 14.8199C45.8631 14.8199 45.7854 14.7421 45.7854 14.641V13.0929Z" fill="#DFAB5A"/>
<path d="M20.6744 11.7393C21.0244 11.7393 21.3123 11.4515 21.32 11.0936V9.54558C21.32 9.17995 21.04 8.8999 20.6744 8.8999C20.3165 8.8999 20.0287 9.18773 20.0287 9.54558V11.0936C20.0287 11.4515 20.3165 11.7393 20.6744 11.7393ZM20.4954 9.55336C20.4954 9.45223 20.5732 9.37444 20.6744 9.37444C20.7677 9.37444 20.8455 9.45223 20.8533 9.55336V11.1014C20.8533 11.2026 20.7755 11.2803 20.6744 11.2803C20.5732 11.2803 20.4954 11.2026 20.4954 11.1014V9.55336Z" fill="#DFAB5A"/>
<path d="M22.6192 11.7393C22.9693 11.7393 23.2649 11.4437 23.2649 11.0936V9.54558C23.2649 9.18773 22.977 8.8999 22.6192 8.8999C22.2613 8.8999 21.9735 9.18773 21.9735 9.54558V11.0936C21.9735 11.4515 22.2613 11.7393 22.6192 11.7393ZM22.4403 9.55336C22.4403 9.45223 22.5181 9.37444 22.6192 9.37444C22.7203 9.37444 22.7981 9.45223 22.7981 9.55336V11.1014C22.7981 11.2026 22.7203 11.2803 22.6192 11.2803C22.5181 11.2803 22.4403 11.2026 22.4403 11.1014V9.55336Z" fill="#DFAB5A"/>
<path d="M24.5639 11.7393C24.914 11.7393 25.2096 11.4437 25.2096 11.0936V9.54558C25.2096 9.17995 24.9295 8.8999 24.5639 8.8999C24.206 8.8999 23.9182 9.18773 23.9182 9.54558V11.0936C23.9182 11.4515 24.206 11.7393 24.5639 11.7393ZM24.385 9.55336C24.385 9.45223 24.4628 9.37444 24.5639 9.37444C24.665 9.37444 24.7428 9.45223 24.7428 9.55336V11.1014C24.7428 11.2026 24.665 11.2803 24.5639 11.2803C24.4628 11.2803 24.385 11.2026 24.385 11.1014V9.55336Z" fill="#DFAB5A"/>
<path d="M26.5087 11.7393C26.8588 11.7393 27.1544 11.4437 27.1544 11.0936V9.54558C27.1544 9.18773 26.8666 8.8999 26.5087 8.8999C26.1509 8.8999 25.863 9.18773 25.863 9.54558V11.0936C25.863 11.4515 26.1509 11.7393 26.5087 11.7393ZM26.3298 9.55336C26.3298 9.45223 26.4076 9.37444 26.5087 9.37444C26.6098 9.37444 26.6876 9.45223 26.6876 9.55336V11.1014C26.6876 11.2026 26.6098 11.2803 26.5087 11.2803C26.4076 11.2803 26.3298 11.2026 26.3298 11.1014V9.55336Z" fill="#DFAB5A"/>
<path d="M28.4535 11.7393C28.8036 11.7393 29.0992 11.4437 29.0992 11.0936V9.54558C29.0992 9.17995 28.8192 8.8999 28.4535 8.8999C28.0957 8.8999 27.8079 9.18773 27.8079 9.54558V11.0936C27.8079 11.4515 28.0957 11.7393 28.4535 11.7393ZM28.2746 9.55336C28.2746 9.45223 28.3524 9.37444 28.4535 9.37444C28.5547 9.37444 28.6325 9.45223 28.6325 9.55336V11.1014C28.6325 11.2026 28.5547 11.2803 28.4535 11.2803C28.3524 11.2803 28.2746 11.2026 28.2746 11.1014V9.55336Z" fill="#DFAB5A"/>
<path d="M30.3982 11.7393C30.7482 11.7393 31.0438 11.4437 31.0438 11.0936V9.54558C31.0438 9.18773 30.756 8.8999 30.3982 8.8999C30.0404 8.8999 29.7526 9.18773 29.7526 9.54558V11.0936C29.7526 11.4515 30.0404 11.7393 30.3982 11.7393ZM30.2193 9.55336C30.2193 9.45223 30.2971 9.37444 30.3982 9.37444C30.4993 9.37444 30.5771 9.45223 30.5771 9.55336V11.1014C30.5771 11.2026 30.4993 11.2803 30.3982 11.2803C30.2971 11.2803 30.2193 11.2026 30.2193 11.1014V9.55336Z" fill="#DFAB5A"/>
<path d="M32.3431 11.7393C32.7009 11.7393 32.9887 11.4515 32.9887 11.0936V9.54558C32.9887 9.18773 32.7009 8.8999 32.3431 8.8999C31.9852 8.8999 31.6974 9.18773 31.6974 9.54558V11.0936C31.6974 11.4515 31.9852 11.7393 32.3431 11.7393ZM32.1641 9.55336C32.1641 9.45223 32.2419 9.37444 32.3431 9.37444C32.4442 9.37444 32.522 9.45223 32.522 9.55336V11.1014C32.522 11.2026 32.4442 11.2803 32.3431 11.2803C32.2419 11.2803 32.1641 11.2026 32.1641 11.1014V9.55336Z" fill="#DFAB5A"/>
<path d="M34.2878 11.7393C34.6456 11.7393 34.9334 11.4515 34.9334 11.0936V9.54558C34.9334 9.18773 34.6456 8.8999 34.2878 8.8999C33.9299 8.8999 33.6421 9.18773 33.6421 9.54558V11.0936C33.6421 11.4515 33.9299 11.7393 34.2878 11.7393ZM34.1088 9.55336C34.1088 9.45223 34.1866 9.37444 34.2878 9.37444C34.3889 9.37444 34.4667 9.45223 34.4667 9.55336V11.1014C34.4667 11.2026 34.3889 11.2803 34.2878 11.2803C34.1866 11.2803 34.1088 11.2026 34.1088 11.1014V9.55336Z" fill="#DFAB5A"/>
<path d="M36.2326 11.7393C36.5904 11.7393 36.8783 11.4515 36.8783 11.0936V9.54558C36.8783 9.18773 36.5904 8.8999 36.2326 8.8999C35.8747 8.8999 35.5869 9.18773 35.5869 9.54558V11.0936C35.5869 11.4515 35.8747 11.7393 36.2326 11.7393ZM36.0537 9.55336C36.0537 9.45223 36.1315 9.37444 36.2326 9.37444C36.3337 9.37444 36.4115 9.45223 36.4115 9.55336V11.1014C36.4115 11.2026 36.3337 11.2803 36.2326 11.2803C36.1315 11.2803 36.0537 11.2026 36.0537 11.1014V9.55336Z" fill="#DFAB5A"/>
<path d="M38.1774 11.7393C38.5353 11.7393 38.8231 11.4515 38.8231 11.0936V9.54558C38.8231 9.17995 38.543 8.8999 38.1774 8.8999C37.8196 8.8999 37.5317 9.18773 37.5317 9.54558V11.0936C37.5317 11.4515 37.8196 11.7393 38.1774 11.7393ZM37.9985 9.55336C37.9985 9.45223 38.0763 9.37444 38.1774 9.37444C38.2785 9.37444 38.3563 9.45223 38.3563 9.55336V11.1014C38.3563 11.2026 38.2785 11.2803 38.1774 11.2803C38.0763 11.2803 37.9985 11.2026 37.9985 11.1014V9.55336Z" fill="#DFAB5A"/>
<path d="M40.1308 11.7393C40.4808 11.7393 40.7687 11.4515 40.7765 11.0936V9.54558C40.7765 9.18773 40.4886 8.8999 40.1308 8.8999C39.7729 8.8999 39.4851 9.18773 39.4851 9.54558V11.0936C39.4851 11.4515 39.7729 11.7393 40.1308 11.7393ZM39.9519 9.55336C39.9519 9.45223 40.0297 9.37444 40.1308 9.37444C40.2241 9.37444 40.3019 9.46001 40.3097 9.55336V11.1014C40.3097 11.2026 40.2319 11.2803 40.1308 11.2803C40.0297 11.2803 39.9519 11.2026 39.9519 11.1014V9.55336Z" fill="#DFAB5A"/>
<path d="M42.0748 11.7393C42.4248 11.7393 42.7126 11.4515 42.7204 11.0936V9.54558C42.7204 9.17995 42.4404 8.8999 42.0748 8.8999C41.7169 8.8999 41.4291 9.18773 41.4291 9.54558V11.0936C41.4291 11.4515 41.7169 11.7393 42.0748 11.7393ZM41.8958 9.55336C41.8958 9.45223 41.9736 9.37444 42.0748 9.37444C42.1681 9.37444 42.2459 9.46001 42.2537 9.55336V11.1014C42.2537 11.2026 42.1759 11.2803 42.0748 11.2803C41.9736 11.2803 41.8958 11.2026 41.8958 11.1014V9.55336Z" fill="#DFAB5A"/>
<path d="M44.0195 11.7393C44.3695 11.7393 44.6574 11.4515 44.6651 11.0936V9.54558C44.6651 9.18773 44.3773 8.8999 44.0195 8.8999C43.6616 8.8999 43.3738 9.18773 43.3738 9.54558V11.0936C43.3738 11.4515 43.6616 11.7393 44.0195 11.7393ZM43.8405 9.55336C43.8405 9.45223 43.9183 9.37444 44.0195 9.37444C44.1128 9.37444 44.1906 9.46001 44.1984 9.55336V11.1014C44.1984 11.2026 44.1206 11.2803 44.0195 11.2803C43.9183 11.2803 43.8405 11.2026 43.8405 11.1014V9.55336Z" fill="#DFAB5A"/>
<path d="M45.9643 11.7393C46.3143 11.7393 46.6022 11.4515 46.61 11.0936V9.54558C46.61 9.17995 46.3299 8.8999 45.9643 8.8999C45.6064 8.8999 45.3186 9.18773 45.3186 9.54558V11.0936C45.3186 11.4515 45.6064 11.7393 45.9643 11.7393ZM45.7854 9.55336C45.7854 9.45223 45.8631 9.37444 45.9643 9.37444C46.0576 9.37444 46.1354 9.46001 46.1432 9.55336V11.1014C46.1432 11.2026 46.0654 11.2803 45.9643 11.2803C45.8631 11.2803 45.7854 11.2026 45.7854 11.1014V9.55336Z" fill="#DFAB5A"/>
<path d="M20.6744 8.19151C21.0244 8.19151 21.3123 7.90367 21.32 7.55361V6.00554C21.32 5.63992 21.04 5.35986 20.6744 5.35986C20.3165 5.35986 20.0287 5.6477 20.0287 6.00554V7.54583C20.0287 7.90367 20.3165 8.19151 20.6744 8.19151ZM20.4954 6.01332C20.4954 5.91219 20.5732 5.8344 20.6744 5.8344C20.7755 5.8344 20.8455 5.91219 20.8533 6.00554V7.56139C20.8533 7.66252 20.7755 7.74031 20.6744 7.74031C20.5732 7.74031 20.4954 7.66252 20.4954 7.56139V6.01332Z" fill="#DFAB5A"/>
<path d="M22.6192 8.19151C22.977 8.19151 23.2649 7.90367 23.2649 7.55361V6.00554C23.2649 5.6477 22.977 5.35986 22.6192 5.35986C22.2613 5.35986 21.9735 5.6477 21.9735 6.00554V7.54583C21.9735 7.90367 22.2613 8.19151 22.6192 8.19151ZM22.4403 6.01332C22.4403 5.91219 22.5181 5.8344 22.6192 5.8344C22.7203 5.8344 22.7981 5.91219 22.7981 6.00554V7.56139C22.7981 7.66252 22.7203 7.74031 22.6192 7.74031C22.5181 7.74031 22.4403 7.66252 22.4403 7.56139V6.01332Z" fill="#DFAB5A"/>
<path d="M24.5639 8.19151C24.9217 8.19151 25.2096 7.90367 25.2096 7.55361V6.00554C25.2096 5.63992 24.9295 5.35986 24.5639 5.35986C24.206 5.35986 23.9182 5.6477 23.9182 6.00554V7.54583C23.9182 7.90367 24.206 8.19151 24.5639 8.19151ZM24.385 6.01332C24.385 5.91219 24.4628 5.8344 24.5639 5.8344C24.665 5.8344 24.7428 5.91219 24.7428 6.00554V7.56139C24.7428 7.66252 24.665 7.74031 24.5639 7.74031C24.4628 7.74031 24.385 7.66252 24.385 7.56139V6.01332Z" fill="#DFAB5A"/>
<path d="M26.5087 8.19151C26.8666 8.19151 27.1544 7.90367 27.1544 7.55361V6.00554C27.1544 5.6477 26.8666 5.35986 26.5087 5.35986C26.1509 5.35986 25.863 5.6477 25.863 6.00554V7.54583C25.863 7.90367 26.1509 8.19151 26.5087 8.19151ZM26.3298 6.01332C26.3298 5.91219 26.4076 5.8344 26.5087 5.8344C26.6098 5.8344 26.6876 5.91219 26.6876 6.00554V7.56139C26.6876 7.66252 26.6098 7.74031 26.5087 7.74031C26.4076 7.74031 26.3298 7.66252 26.3298 7.56139V6.01332Z" fill="#DFAB5A"/>
<path d="M28.4535 8.19151C28.8114 8.19151 29.0992 7.90367 29.0992 7.55361V6.00554C29.0992 5.63992 28.8192 5.35986 28.4535 5.35986C28.0957 5.35986 27.8079 5.6477 27.8079 6.00554V7.54583C27.8079 7.90367 28.0957 8.19151 28.4535 8.19151ZM28.2746 6.01332C28.2746 5.91219 28.3524 5.8344 28.4535 5.8344C28.5547 5.8344 28.6325 5.91219 28.6325 6.00554V7.56139C28.6325 7.66252 28.5547 7.74031 28.4535 7.74031C28.3524 7.74031 28.2746 7.66252 28.2746 7.56139V6.01332Z" fill="#DFAB5A"/>
<path d="M30.3982 8.19151C30.756 8.19151 31.0438 7.90367 31.0438 7.55361V6.00554C31.0438 5.6477 30.756 5.35986 30.3982 5.35986C30.0404 5.35986 29.7526 5.6477 29.7526 6.00554V7.54583C29.7526 7.90367 30.0404 8.19151 30.3982 8.19151ZM30.2193 6.01332C30.2193 5.91219 30.2971 5.8344 30.3982 5.8344C30.4993 5.8344 30.5771 5.91219 30.5771 6.00554V7.56139C30.5771 7.66252 30.4993 7.74031 30.3982 7.74031C30.2971 7.74031 30.2193 7.66252 30.2193 7.56139V6.01332Z" fill="#DFAB5A"/>
<path d="M32.3431 8.19151C32.7009 8.19151 32.9887 7.90367 32.9887 7.55361V6.00554C32.9887 5.6477 32.7009 5.35986 32.3431 5.35986C31.9852 5.35986 31.6974 5.6477 31.6974 6.00554V7.54583C31.6974 7.90367 31.9852 8.19151 32.3431 8.19151ZM32.1641 6.01332C32.1641 5.91219 32.2419 5.8344 32.3431 5.8344C32.4442 5.8344 32.522 5.91219 32.522 6.00554V7.56139C32.522 7.66252 32.4442 7.74031 32.3431 7.74031C32.2419 7.74031 32.1641 7.66252 32.1641 7.56139V6.01332Z" fill="#DFAB5A"/>
<path d="M34.2878 8.19151C34.6456 8.19151 34.9334 7.90367 34.9334 7.55361V6.00554C34.9334 5.6477 34.6456 5.35986 34.2878 5.35986C33.9299 5.35986 33.6421 5.6477 33.6421 6.00554V7.54583C33.6421 7.90367 33.9299 8.19151 34.2878 8.19151ZM34.1088 6.01332C34.1088 5.91219 34.1866 5.8344 34.2878 5.8344C34.3889 5.8344 34.4667 5.91219 34.4667 6.00554V7.56139C34.4667 7.66252 34.3889 7.74031 34.2878 7.74031C34.1866 7.74031 34.1088 7.66252 34.1088 7.56139V6.01332Z" fill="#DFAB5A"/>
<path d="M36.2326 8.19151C36.5904 8.19151 36.8783 7.90367 36.8783 7.55361V6.00554C36.8783 5.6477 36.5904 5.35986 36.2326 5.35986C35.8747 5.35986 35.5869 5.6477 35.5869 6.00554V7.54583C35.5869 7.90367 35.8747 8.19151 36.2326 8.19151ZM36.0537 6.01332C36.0537 5.91219 36.1315 5.8344 36.2326 5.8344C36.3337 5.8344 36.4115 5.91219 36.4115 6.00554V7.56139C36.4115 7.66252 36.3337 7.74031 36.2326 7.74031C36.1315 7.74031 36.0537 7.66252 36.0537 7.56139V6.01332Z" fill="#DFAB5A"/>
<path d="M38.1774 8.19151C38.5353 8.19151 38.8231 7.90367 38.8231 7.55361V6.00554C38.8231 5.63992 38.543 5.35986 38.1774 5.35986C37.8196 5.35986 37.5317 5.6477 37.5317 6.00554V7.54583C37.5317 7.90367 37.8196 8.19151 38.1774 8.19151ZM37.9985 6.01332C37.9985 5.91219 38.0763 5.8344 38.1774 5.8344C38.2785 5.8344 38.3563 5.91219 38.3563 6.00554V7.56139C38.3563 7.66252 38.2785 7.74031 38.1774 7.74031C38.0763 7.74031 37.9985 7.66252 37.9985 7.56139V6.01332Z" fill="#DFAB5A"/>
<path d="M40.1308 8.19151C40.4808 8.19151 40.7687 7.90367 40.7765 7.55361V6.00554C40.7765 5.6477 40.4886 5.35986 40.1308 5.35986C39.7729 5.35986 39.4851 5.6477 39.4851 6.00554V7.54583C39.4851 7.90367 39.7729 8.19151 40.1308 8.19151ZM39.9519 6.01332C39.9519 5.91219 40.0297 5.8344 40.1308 5.8344C40.2241 5.8344 40.3019 5.91219 40.3097 6.00554V7.56139C40.3097 7.66252 40.2319 7.74031 40.1308 7.74031C40.0297 7.74031 39.9519 7.66252 39.9519 7.56139V6.01332Z" fill="#DFAB5A"/>
<path d="M42.0748 8.19151C42.4248 8.19151 42.7126 7.90367 42.7204 7.55361V6.00554C42.7204 5.63992 42.4404 5.35986 42.0748 5.35986C41.7169 5.35986 41.4291 5.6477 41.4291 6.00554V7.54583C41.4291 7.90367 41.7169 8.19151 42.0748 8.19151ZM41.8958 6.01332C41.8958 5.91219 41.9736 5.8344 42.0748 5.8344C42.1681 5.8344 42.2459 5.91219 42.2537 6.00554V7.56139C42.2537 7.66252 42.1759 7.74031 42.0748 7.74031C41.9736 7.74031 41.8958 7.66252 41.8958 7.56139V6.01332Z" fill="#DFAB5A"/>
<path d="M44.0195 8.19151C44.3695 8.19151 44.6574 7.90367 44.6651 7.55361V6.00554C44.6651 5.6477 44.3773 5.35986 44.0195 5.35986C43.6616 5.35986 43.3738 5.6477 43.3738 6.00554V7.54583C43.3738 7.90367 43.6616 8.19151 44.0195 8.19151ZM43.8405 6.01332C43.8405 5.91219 43.9183 5.8344 44.0195 5.8344C44.1128 5.8344 44.1906 5.91219 44.1984 6.00554V7.56139C44.1984 7.66252 44.1206 7.74031 44.0195 7.74031C43.9183 7.74031 43.8405 7.66252 43.8405 7.56139V6.01332Z" fill="#DFAB5A"/>
<path d="M45.9643 8.19151C46.3143 8.19151 46.6022 7.90367 46.61 7.55361V6.00554C46.61 5.63992 46.3299 5.35986 45.9643 5.35986C45.6064 5.35986 45.3186 5.6477 45.3186 6.00554V7.54583C45.3186 7.90367 45.6064 8.19151 45.9643 8.19151ZM45.7854 6.01332C45.7854 5.91219 45.8631 5.8344 45.9643 5.8344C46.0576 5.8344 46.1354 5.91219 46.1432 6.00554V7.56139C46.1432 7.66252 46.0654 7.74031 45.9643 7.74031C45.8631 7.74031 45.7854 7.66252 45.7854 7.56139V6.01332Z" fill="#DFAB5A"/>
<path d="M20.6744 4.65195C21.0244 4.65195 21.3123 4.36411 21.32 4.01405V2.46599C21.32 2.10036 21.04 1.82031 20.6744 1.82031C20.3165 1.82031 20.0287 2.10814 20.0287 2.46599V4.00627C20.0287 4.36411 20.3165 4.65195 20.6744 4.65195ZM20.4954 2.47377C20.4954 2.37264 20.5732 2.29484 20.6744 2.29484C20.7755 2.29484 20.8455 2.37264 20.8533 2.46599V4.02183C20.8533 4.12296 20.7755 4.20075 20.6744 4.20075C20.5732 4.20075 20.4954 4.12296 20.4954 4.02183V2.47377Z" fill="#DFAB5A"/>
<path d="M22.6192 4.65195C22.977 4.65195 23.2649 4.36411 23.2649 4.01405V2.46599C23.2649 2.10814 22.977 1.82031 22.6192 1.82031C22.2613 1.82031 21.9735 2.10814 21.9735 2.46599V4.00627C21.9735 4.36411 22.2613 4.65195 22.6192 4.65195ZM22.4403 2.47377C22.4403 2.37264 22.5181 2.29484 22.6192 2.29484C22.7203 2.29484 22.7981 2.37264 22.7981 2.46599V4.02183C22.7981 4.12296 22.7203 4.20075 22.6192 4.20075C22.5181 4.20075 22.4403 4.12296 22.4403 4.02183V2.47377Z" fill="#DFAB5A"/>
<path d="M24.5639 4.65195C24.9217 4.65195 25.2096 4.36411 25.2096 4.01405V2.46599C25.2096 2.10036 24.9295 1.82031 24.5639 1.82031C24.206 1.82031 23.9182 2.10814 23.9182 2.46599V4.00627C23.9182 4.36411 24.206 4.65195 24.5639 4.65195ZM24.385 2.47377C24.385 2.37264 24.4628 2.29484 24.5639 2.29484C24.665 2.29484 24.7428 2.37264 24.7428 2.46599V4.02183C24.7428 4.12296 24.665 4.20075 24.5639 4.20075C24.4628 4.20075 24.385 4.12296 24.385 4.02183V2.47377Z" fill="#DFAB5A"/>
<path d="M26.5087 4.65195C26.8666 4.65195 27.1544 4.36411 27.1544 4.01405V2.46599C27.1544 2.10814 26.8666 1.82031 26.5087 1.82031C26.1509 1.82031 25.863 2.10814 25.863 2.46599V4.00627C25.863 4.36411 26.1509 4.65195 26.5087 4.65195ZM26.3298 2.47377C26.3298 2.37264 26.4076 2.29484 26.5087 2.29484C26.6098 2.29484 26.6876 2.37264 26.6876 2.46599V4.02183C26.6876 4.12296 26.6098 4.20075 26.5087 4.20075C26.4076 4.20075 26.3298 4.12296 26.3298 4.02183V2.47377Z" fill="#DFAB5A"/>
<path d="M28.4535 4.65195C28.8114 4.65195 29.0992 4.36411 29.0992 4.01405V2.46599C29.0992 2.10036 28.8192 1.82031 28.4535 1.82031C28.0957 1.82031 27.8079 2.10814 27.8079 2.46599V4.00627C27.8079 4.36411 28.0957 4.65195 28.4535 4.65195ZM28.2746 2.47377C28.2746 2.37264 28.3524 2.29484 28.4535 2.29484C28.5547 2.29484 28.6325 2.37264 28.6325 2.46599V4.02183C28.6325 4.12296 28.5547 4.20075 28.4535 4.20075C28.3524 4.20075 28.2746 4.12296 28.2746 4.02183V2.47377Z" fill="#DFAB5A"/>
<path d="M30.3982 4.65195C30.756 4.65195 31.0438 4.36411 31.0438 4.01405V2.46599C31.0438 2.10814 30.756 1.82031 30.3982 1.82031C30.0404 1.82031 29.7526 2.10814 29.7526 2.46599V4.00627C29.7526 4.36411 30.0404 4.65195 30.3982 4.65195ZM30.2193 2.47377C30.2193 2.37264 30.2971 2.29484 30.3982 2.29484C30.4993 2.29484 30.5771 2.37264 30.5771 2.46599V4.02183C30.5771 4.12296 30.4993 4.20075 30.3982 4.20075C30.2971 4.20075 30.2193 4.12296 30.2193 4.02183V2.47377Z" fill="#DFAB5A"/>
<path d="M32.3431 4.65195C32.7009 4.65195 32.9887 4.36411 32.9887 4.01405V2.46599C32.9887 2.10814 32.7009 1.82031 32.3431 1.82031C31.9852 1.82031 31.6974 2.10814 31.6974 2.46599V4.00627C31.6974 4.36411 31.9852 4.65195 32.3431 4.65195ZM32.1641 2.47377C32.1641 2.37264 32.2419 2.29484 32.3431 2.29484C32.4442 2.29484 32.522 2.37264 32.522 2.46599V4.02183C32.522 4.12296 32.4442 4.20075 32.3431 4.20075C32.2419 4.20075 32.1641 4.12296 32.1641 4.02183V2.47377Z" fill="#DFAB5A"/>
<path d="M34.2878 4.65195C34.6456 4.65195 34.9334 4.36411 34.9334 4.01405V2.46599C34.9334 2.10814 34.6456 1.82031 34.2878 1.82031C33.9299 1.82031 33.6421 2.10814 33.6421 2.46599V4.00627C33.6421 4.36411 33.9299 4.65195 34.2878 4.65195ZM34.1088 2.47377C34.1088 2.37264 34.1866 2.29484 34.2878 2.29484C34.3889 2.29484 34.4667 2.37264 34.4667 2.46599V4.02183C34.4667 4.12296 34.3889 4.20075 34.2878 4.20075C34.1866 4.20075 34.1088 4.12296 34.1088 4.02183V2.47377Z" fill="#DFAB5A"/>
<path d="M36.2326 4.65195C36.5904 4.65195 36.8783 4.36411 36.8783 4.01405V2.46599C36.8783 2.10814 36.5904 1.82031 36.2326 1.82031C35.8747 1.82031 35.5869 2.10814 35.5869 2.46599V4.00627C35.5869 4.36411 35.8747 4.65195 36.2326 4.65195ZM36.0537 2.47377C36.0537 2.37264 36.1315 2.29484 36.2326 2.29484C36.3337 2.29484 36.4115 2.37264 36.4115 2.46599V4.02183C36.4115 4.12296 36.3337 4.20075 36.2326 4.20075C36.1315 4.20075 36.0537 4.12296 36.0537 4.02183V2.47377Z" fill="#DFAB5A"/>
<path d="M38.1774 4.65195C38.5353 4.65195 38.8231 4.36411 38.8231 4.01405V2.46599C38.8231 2.10036 38.543 1.82031 38.1774 1.82031C37.8196 1.82031 37.5317 2.10814 37.5317 2.46599V4.00627C37.5317 4.36411 37.8196 4.65195 38.1774 4.65195ZM37.9985 2.47377C37.9985 2.37264 38.0763 2.29484 38.1774 2.29484C38.2785 2.29484 38.3563 2.37264 38.3563 2.46599V4.02183C38.3563 4.12296 38.2785 4.20075 38.1774 4.20075C38.0763 4.20075 37.9985 4.12296 37.9985 4.02183V2.47377Z" fill="#DFAB5A"/>
<path d="M40.1308 4.65195C40.4808 4.65195 40.7687 4.36411 40.7765 4.01405V2.46599C40.7765 2.10814 40.4886 1.82031 40.1308 1.82031C39.7729 1.82031 39.4851 2.10814 39.4851 2.46599V4.00627C39.4851 4.36411 39.7729 4.65195 40.1308 4.65195ZM39.9519 2.47377C39.9519 2.37264 40.0297 2.29484 40.1308 2.29484C40.2241 2.29484 40.3019 2.37264 40.3097 2.46599V4.02183C40.3097 4.12296 40.2319 4.20075 40.1308 4.20075C40.0297 4.20075 39.9519 4.12296 39.9519 4.02183V2.47377Z" fill="#DFAB5A"/>
<path d="M42.0748 4.65195C42.4248 4.65195 42.7126 4.36411 42.7204 4.01405V2.46599C42.7204 2.10036 42.4404 1.82031 42.0748 1.82031C41.7169 1.82031 41.4291 2.10814 41.4291 2.46599V4.00627C41.4291 4.36411 41.7169 4.65195 42.0748 4.65195ZM41.8958 2.47377C41.8958 2.37264 41.9736 2.29484 42.0748 2.29484C42.1681 2.29484 42.2459 2.37264 42.2537 2.46599V4.02183C42.2537 4.12296 42.1759 4.20075 42.0748 4.20075C41.9736 4.20075 41.8958 4.12296 41.8958 4.02183V2.47377Z" fill="#DFAB5A"/>
<path d="M44.0195 4.65195C44.3695 4.65195 44.6574 4.36411 44.6651 4.01405V2.46599C44.6651 2.10814 44.3773 1.82031 44.0195 1.82031C43.6616 1.82031 43.3738 2.10814 43.3738 2.46599V4.00627C43.3738 4.36411 43.6616 4.65195 44.0195 4.65195ZM43.8405 2.47377C43.8405 2.37264 43.9183 2.29484 44.0195 2.29484C44.1128 2.29484 44.1906 2.37264 44.1984 2.46599V4.02183C44.1984 4.12296 44.1206 4.20075 44.0195 4.20075C43.9183 4.20075 43.8405 4.12296 43.8405 4.02183V2.47377Z" fill="#DFAB5A"/>
<path d="M45.9643 4.65195C46.3143 4.65195 46.6022 4.36411 46.61 4.01405V2.46599C46.61 2.10036 46.3299 1.82031 45.9643 1.82031C45.6064 1.82031 45.3186 2.10814 45.3186 2.46599V4.00627C45.3186 4.36411 45.6064 4.65195 45.9643 4.65195ZM45.7854 2.47377C45.7854 2.37264 45.8631 2.29484 45.9643 2.29484C46.0576 2.29484 46.1354 2.37264 46.1432 2.46599V4.02183C46.1432 4.12296 46.0654 4.20075 45.9643 4.20075C45.8631 4.20075 45.7854 4.12296 45.7854 4.02183V2.47377Z" fill="#DFAB5A"/>
<path d="M45.9643 18.8414C46.3143 18.8414 46.6022 18.5535 46.61 18.1957V16.6476C46.61 16.282 46.3299 16.002 45.9643 16.002C45.6064 16.002 45.3186 16.2898 45.3186 16.6476V18.1957C45.3186 18.5535 45.6064 18.8414 45.9643 18.8414ZM45.7854 16.6554C45.7854 16.5543 45.8631 16.4765 45.9643 16.4765C46.0576 16.4765 46.1354 16.5621 46.1432 16.6554V18.2035C46.1432 18.3046 46.0654 18.3824 45.9643 18.3824C45.8631 18.3824 45.7854 18.3046 45.7854 18.2035V16.6554Z" fill="#DFAB5A"/>
<path d="M7.7767 30.6807C7.25549 30.6807 6.82764 31.1085 6.82764 31.6297V34.3447C6.82764 34.8659 7.25549 35.2937 7.7767 35.2937C8.29791 35.2937 8.72577 34.8659 8.72577 34.3447V31.6297C8.72577 31.1085 8.29791 30.6807 7.7767 30.6807ZM7.7767 31.1396C8.0412 31.1396 8.25902 31.3575 8.25902 31.6219V34.3369C8.25902 34.6014 8.0412 34.8192 7.7767 34.8192C7.51221 34.8192 7.29439 34.6014 7.29439 34.3369V31.6219C7.29439 31.3575 7.51221 31.1396 7.7767 31.1396Z" fill="#DFAB5A"/>
<path d="M10.0869 30.6807C9.56568 30.6807 9.13782 31.1085 9.13782 31.6297V34.3447C9.13782 34.8659 9.56568 35.2937 10.0869 35.2937C10.6081 35.2937 11.036 34.8659 11.036 34.3447V31.6297C11.036 31.1085 10.6081 30.6807 10.0869 30.6807ZM10.0869 31.1396C10.3514 31.1396 10.5692 31.3575 10.5692 31.6219V34.3369C10.5692 34.6014 10.3514 34.8192 10.0869 34.8192C9.8224 34.8192 9.60458 34.6014 9.60458 34.3369V31.6219C9.60458 31.3575 9.8224 31.1396 10.0869 31.1396Z" fill="#DFAB5A"/>
<path d="M12.3901 30.6807C11.8689 30.6807 11.441 31.1085 11.441 31.6297V34.3447C11.441 34.8659 11.8689 35.2937 12.3901 35.2937C12.6468 35.2937 12.8958 35.1926 13.0747 35.0137C13.2536 34.8348 13.347 34.5936 13.3392 34.3447V31.6297C13.3392 31.1085 12.9113 30.6807 12.3901 30.6807ZM12.8724 34.3369C12.8724 34.6014 12.6546 34.8192 12.3901 34.8192C12.1256 34.8192 11.9078 34.6014 11.9078 34.3369V31.6219C11.9078 31.3575 12.1256 31.1396 12.3901 31.1396C12.5224 31.1396 12.6468 31.1941 12.7402 31.2874C12.8258 31.3808 12.8724 31.4975 12.8724 31.6219V34.3369Z" fill="#DFAB5A"/>
<path d="M13.7513 31.6297V34.3447C13.7513 34.8659 14.1792 35.2937 14.7004 35.2937C14.9571 35.2937 15.2061 35.1926 15.385 35.0137C15.5639 34.8348 15.6573 34.5936 15.6495 34.3447V31.6297C15.6495 31.1085 15.2216 30.6807 14.7004 30.6807C14.1792 30.6807 13.7513 31.1085 13.7513 31.6297ZM15.1827 34.3369C15.1827 34.6014 14.9649 34.8192 14.7004 34.8192C14.4359 34.8192 14.2181 34.6014 14.2181 34.3369V31.6219C14.2181 31.3575 14.4359 31.1396 14.7004 31.1396C14.8327 31.1396 14.9571 31.1941 15.0505 31.2874C15.136 31.3808 15.1827 31.4975 15.1827 31.6219V34.3369Z" fill="#DFAB5A"/>
<path d="M17.0101 35.2937C17.2668 35.2937 17.5158 35.1926 17.6947 35.0059C17.8736 34.827 17.967 34.5936 17.9592 34.3447V31.6297C17.9592 31.1085 17.5313 30.6807 17.0101 30.6807C16.4889 30.6807 16.061 31.1085 16.061 31.6297V34.3447C16.061 34.8659 16.4889 35.2937 17.0101 35.2937ZM17.0101 31.1396C17.1424 31.1396 17.2668 31.1941 17.3602 31.2874C17.4458 31.3808 17.4924 31.4975 17.4924 31.6219V34.3369C17.4924 34.6014 17.2746 34.8192 17.0101 34.8192C16.7456 34.8192 16.5278 34.6014 16.5278 34.3369V31.6219C16.5278 31.3575 16.7456 31.1396 17.0101 31.1396Z" fill="#DFAB5A"/>
<path d="M18.3722 31.6297V34.3447C18.3722 34.8659 18.8001 35.2937 19.3213 35.2937C19.8425 35.2937 20.2703 34.8659 20.2703 34.3447V31.6297C20.2703 31.1085 19.8425 30.6807 19.3213 30.6807C18.8001 30.6807 18.3722 31.1085 18.3722 31.6297ZM19.8036 34.3369C19.8036 34.6014 19.5858 34.8192 19.3213 34.8192C19.0568 34.8192 18.8389 34.6014 18.8389 34.3369V31.6219C18.8389 31.3575 19.0568 31.1396 19.3213 31.1396C19.5858 31.1396 19.8036 31.3575 19.8036 31.6219V34.3369Z" fill="#DFAB5A"/>
<path d="M21.6314 35.2937C22.1526 35.2937 22.5805 34.8659 22.5805 34.3447V31.6297C22.5805 31.1085 22.1526 30.6807 21.6314 30.6807C21.1102 30.6807 20.6824 31.1085 20.6824 31.6297V34.3447C20.6824 34.8659 21.1102 35.2937 21.6314 35.2937ZM21.6314 31.1396C21.8959 31.1396 22.1138 31.3575 22.1138 31.6219V34.3369C22.1138 34.6014 21.8959 34.8192 21.6314 34.8192C21.3669 34.8192 21.1491 34.6014 21.1491 34.3369V31.6219C21.1491 31.3575 21.3669 31.1396 21.6314 31.1396Z" fill="#DFAB5A"/>
<path d="M22.9934 31.6297V34.3447C22.9934 34.8659 23.4213 35.2937 23.9425 35.2937C24.4637 35.2937 24.8915 34.8659 24.8915 34.3447V31.6297C24.8915 31.1085 24.4637 30.6807 23.9425 30.6807C23.4213 30.6807 22.9934 31.1085 22.9934 31.6297ZM24.4248 34.3369C24.4248 34.6014 24.207 34.8192 23.9425 34.8192C23.678 34.8192 23.4602 34.6014 23.4602 34.3369V31.6219C23.4602 31.3575 23.678 31.1396 23.9425 31.1396C24.207 31.1396 24.4248 31.3575 24.4248 31.6219V34.3369Z" fill="#DFAB5A"/>
<path d="M26.2523 30.6807C25.7311 30.6807 25.3032 31.1085 25.3032 31.6297V34.3447C25.3032 34.8659 25.7311 35.2937 26.2523 35.2937C26.7735 35.2937 27.2014 34.8659 27.2014 34.3447V31.6297C27.2014 31.1085 26.7735 30.6807 26.2523 30.6807ZM26.2523 31.1396C26.5168 31.1396 26.7346 31.3575 26.7346 31.6219V34.3369C26.7346 34.6014 26.5168 34.8192 26.2523 34.8192C25.9878 34.8192 25.77 34.6014 25.77 34.3369V31.6219C25.77 31.3575 25.9878 31.1396 26.2523 31.1396Z" fill="#DFAB5A"/>
<path d="M28.5547 30.6807C28.0335 30.6807 27.6056 31.1085 27.6056 31.6297V34.3447C27.6056 34.8659 28.0335 35.2937 28.5547 35.2937C28.8114 35.2937 29.0603 35.1926 29.2393 35.0137C29.4182 34.8348 29.5115 34.5936 29.5038 34.3447V31.6297C29.5038 31.1085 29.0759 30.6807 28.5547 30.6807ZM29.037 34.3369C29.037 34.6014 28.8192 34.8192 28.5547 34.8192C28.2902 34.8192 28.0724 34.6014 28.0724 34.3369V31.6219C28.0724 31.3575 28.2902 31.1396 28.5547 31.1396C28.6869 31.1396 28.8114 31.1941 28.9047 31.2874C28.9903 31.3808 29.037 31.4975 29.037 31.6219V34.3369Z" fill="#DFAB5A"/>
<path d="M30.8658 30.6807C30.3446 30.6807 29.9167 31.1085 29.9167 31.6297V34.3447C29.9167 34.8659 30.3446 35.2937 30.8658 35.2937C31.1225 35.2937 31.3715 35.1926 31.5504 35.0059C31.7293 34.827 31.8227 34.5936 31.8149 34.3447V31.6297C31.8149 31.1085 31.387 30.6807 30.8658 30.6807ZM30.8658 31.1396C30.9981 31.1396 31.1225 31.1941 31.2159 31.2874C31.3015 31.3808 31.3481 31.4975 31.3481 31.6219V34.3369C31.3481 34.6014 31.1303 34.8192 30.8658 34.8192C30.6013 34.8192 30.3835 34.6014 30.3835 34.3369V31.6219C30.3835 31.3575 30.6013 31.1396 30.8658 31.1396Z" fill="#DFAB5A"/>
<path d="M33.1759 30.6807C32.6547 30.6807 32.2268 31.1085 32.2268 31.6297V34.3447C32.2268 34.8659 32.6547 35.2937 33.1759 35.2937C33.6971 35.2937 34.125 34.8659 34.125 34.3447V31.6297C34.125 31.1085 33.6971 30.6807 33.1759 30.6807ZM33.1759 31.1396C33.4404 31.1396 33.6582 31.3575 33.6582 31.6219V34.3369C33.6582 34.6014 33.4404 34.8192 33.1759 34.8192C32.9114 34.8192 32.6936 34.6014 32.6936 34.3369V31.6219C32.6936 31.3575 32.9114 31.1396 33.1759 31.1396Z" fill="#DFAB5A"/>
<path d="M35.4858 30.6807C34.9646 30.6807 34.5367 31.1085 34.5367 31.6297V34.3447C34.5367 34.8659 34.9646 35.2937 35.4858 35.2937C36.007 35.2937 36.4349 34.8659 36.4349 34.3447V31.6297C36.4349 31.1085 36.007 30.6807 35.4858 30.6807ZM35.4858 31.1396C35.7503 31.1396 35.9681 31.3575 35.9681 31.6219V34.3369C35.9681 34.6014 35.7503 34.8192 35.4858 34.8192C35.2213 34.8192 35.0035 34.6014 35.0035 34.3369V31.6219C35.0035 31.3575 35.2213 31.1396 35.4858 31.1396Z" fill="#DFAB5A"/>
<path d="M37.797 30.6807C37.2758 30.6807 36.8479 31.1085 36.8479 31.6297V34.3447C36.8479 34.8659 37.2758 35.2937 37.797 35.2937C38.3182 35.2937 38.746 34.8659 38.746 34.3447V31.6297C38.746 31.1085 38.3182 30.6807 37.797 30.6807ZM38.2793 34.3369C38.2793 34.6014 38.0615 34.8192 37.797 34.8192C37.5325 34.8192 37.3147 34.6014 37.3147 34.3369V31.6219C37.3147 31.3575 37.5325 31.1396 37.797 31.1396C38.0615 31.1396 38.2793 31.3575 38.2793 31.6219V34.3369Z" fill="#DFAB5A"/>
<path d="M40.107 30.6807C39.5858 30.6807 39.158 31.1085 39.158 31.6297V34.3447C39.158 34.8659 39.5858 35.2937 40.107 35.2937C40.6282 35.2937 41.0561 34.8659 41.0561 34.3447V31.6297C41.0561 31.1085 40.6282 30.6807 40.107 30.6807ZM40.5893 34.3369C40.5893 34.6014 40.3715 34.8192 40.107 34.8192C39.8425 34.8192 39.6247 34.6014 39.6247 34.3369V31.6219C39.6247 31.3575 39.8425 31.1396 40.107 31.1396C40.3715 31.1396 40.5893 31.3575 40.5893 31.6219V34.3369Z" fill="#DFAB5A"/>
<path d="M41.468 31.6297V34.3447C41.468 34.8659 41.8959 35.2937 42.4171 35.2937C42.9383 35.2937 43.3661 34.8659 43.3661 34.3447V31.6297C43.3661 31.1085 42.9383 30.6807 42.4171 30.6807C41.8959 30.6807 41.468 31.1085 41.468 31.6297ZM42.4171 31.1396C42.6816 31.1396 42.8994 31.3575 42.8994 31.6219V34.3369C42.8994 34.6014 42.6816 34.8192 42.4171 34.8192C42.1526 34.8192 41.9348 34.6014 41.9348 34.3369V31.6219C41.9348 31.3575 42.1526 31.1396 42.4171 31.1396Z" fill="#DFAB5A"/>
<path d="M44.7204 35.2937C44.9771 35.2937 45.226 35.1926 45.405 35.0137C45.5839 34.8348 45.6772 34.5936 45.6695 34.3447V31.6297C45.6695 31.1085 45.2416 30.6807 44.7204 30.6807C44.1992 30.6807 43.7714 31.1085 43.7714 31.6297V34.3447C43.7714 34.8659 44.1992 35.2937 44.7204 35.2937ZM45.2027 34.3369C45.2027 34.6014 44.9849 34.8192 44.7204 34.8192C44.4559 34.8192 44.2381 34.6014 44.2381 34.3369V31.6219C44.2381 31.3575 44.4559 31.1396 44.7204 31.1396C44.8527 31.1396 44.9771 31.1941 45.0705 31.2874C45.156 31.3808 45.2027 31.4975 45.2027 31.6219V34.3369Z" fill="#DFAB5A"/>
<path d="M47.0306 35.2937C47.2873 35.2937 47.5362 35.1926 47.7151 35.0059C47.8941 34.827 47.9874 34.5936 47.9796 34.3447V31.6297C47.9796 31.1085 47.5518 30.6807 47.0306 30.6807C46.5094 30.6807 46.0815 31.1085 46.0815 31.6297V34.3447C46.0815 34.8659 46.5094 35.2937 47.0306 35.2937ZM47.5129 34.3369C47.5129 34.6014 47.2951 34.8192 47.0306 34.8192C46.7661 34.8192 46.5483 34.6014 46.5483 34.3369V31.6219C46.5483 31.3575 46.7661 31.1396 47.0306 31.1396C47.1628 31.1396 47.2873 31.1941 47.3807 31.2874C47.4662 31.3808 47.5129 31.4975 47.5129 31.6219V34.3369Z" fill="#DFAB5A"/>
<path d="M49.3405 35.2937C49.8618 35.2937 50.2896 34.8659 50.2896 34.3447V31.6297C50.2896 31.1085 49.8618 30.6807 49.3405 30.6807C48.8193 30.6807 48.3915 31.1085 48.3915 31.6297V34.3447C48.3915 34.8659 48.8193 35.2937 49.3405 35.2937ZM49.3405 31.1396C49.605 31.1396 49.8229 31.3575 49.8229 31.6219V34.3369C49.8229 34.6014 49.605 34.8192 49.3405 34.8192C49.076 34.8192 48.8582 34.6014 48.8582 34.3369V31.6219C48.8582 31.3575 49.076 31.1396 49.3405 31.1396Z" fill="#DFAB5A"/>
<path d="M5.46665 35.6289C4.94544 35.6289 4.51758 36.0568 4.51758 36.578V39.3007C4.51758 39.8219 4.94544 40.2498 5.46665 40.2498C5.98785 40.2498 6.41571 39.8219 6.41571 39.2929V36.578C6.41571 36.0568 5.98785 35.6289 5.46665 35.6289ZM5.94896 39.2929C5.94896 39.5574 5.73114 39.7752 5.46665 39.7752C5.20215 39.7752 4.98433 39.5574 4.98433 39.2929V36.578C4.98433 36.3135 5.20215 36.0957 5.46665 36.0957C5.73114 36.0957 5.94896 36.3135 5.94896 36.578V39.2929Z" fill="#DFAB5A"/>
<path d="M7.7767 35.6289C7.25549 35.6289 6.82764 36.0568 6.82764 36.578V39.3007C6.82764 39.8219 7.25549 40.2498 7.7767 40.2498C8.29791 40.2498 8.72577 39.8219 8.72577 39.2929V36.578C8.72577 36.0568 8.29791 35.6289 7.7767 35.6289ZM7.7767 36.0957C8.0412 36.0957 8.25902 36.3135 8.25902 36.578V39.2929C8.25902 39.5574 8.0412 39.7752 7.7767 39.7752C7.51221 39.7752 7.29439 39.5574 7.29439 39.2929V36.578C7.29439 36.3135 7.51221 36.0957 7.7767 36.0957Z" fill="#DFAB5A"/>
<path d="M10.0869 35.6289C9.56568 35.6289 9.13782 36.0568 9.13782 36.578V39.3007C9.13782 39.8219 9.56568 40.2498 10.0869 40.2498C10.6081 40.2498 11.036 39.8219 11.036 39.2929V36.578C11.036 36.0568 10.6081 35.6289 10.0869 35.6289ZM10.0869 36.0957C10.3514 36.0957 10.5692 36.3135 10.5692 36.578V39.2929C10.5692 39.5574 10.3514 39.7752 10.0869 39.7752C9.8224 39.7752 9.60458 39.5574 9.60458 39.2929V36.578C9.60458 36.3135 9.8224 36.0957 10.0869 36.0957Z" fill="#DFAB5A"/>
<path d="M12.3901 35.6289C11.8689 35.6289 11.441 36.0568 11.441 36.578V39.3007C11.441 39.8219 11.8689 40.2498 12.3901 40.2498C12.6468 40.2498 12.888 40.1486 13.0669 39.9697C13.2459 39.7908 13.3392 39.5496 13.3392 39.2929V36.578C13.3392 36.0568 12.9113 35.6289 12.3901 35.6289ZM12.8724 39.2929C12.8724 39.5574 12.6546 39.7752 12.3901 39.7752C12.1256 39.7752 11.9078 39.5574 11.9078 39.2929V36.578C11.9078 36.3135 12.1256 36.0957 12.3901 36.0957C12.5224 36.0957 12.6468 36.1501 12.7402 36.2435C12.8258 36.3368 12.8724 36.4535 12.8724 36.578V39.2929Z" fill="#DFAB5A"/>
<path d="M15.6494 36.578C15.6494 36.0568 15.2216 35.6289 14.7004 35.6289C14.1792 35.6289 13.7513 36.0568 13.7513 36.578V39.3007C13.7513 39.8219 14.1792 40.2498 14.7004 40.2498C14.9571 40.2498 15.1983 40.1486 15.3772 39.9697C15.5561 39.7908 15.6494 39.5496 15.6494 39.2929V36.578ZM14.7004 36.0957C14.8326 36.0957 14.9571 36.1501 15.0505 36.2435C15.136 36.3368 15.1827 36.4535 15.1827 36.578V39.2929C15.1827 39.5574 14.9649 39.7752 14.7004 39.7752C14.4359 39.7752 14.2181 39.5574 14.2181 39.2929V36.578C14.2181 36.3135 14.4359 36.0957 14.7004 36.0957Z" fill="#DFAB5A"/>
<path d="M17.0101 40.2498C17.2668 40.2498 17.508 40.1486 17.6869 39.9619C17.8658 39.783 17.9592 39.5419 17.9592 39.2929V36.578C17.9592 36.0568 17.5313 35.6289 17.0101 35.6289C16.4889 35.6289 16.061 36.0568 16.061 36.578V39.3007C16.061 39.8219 16.4889 40.2498 17.0101 40.2498ZM17.0101 36.0957C17.1423 36.0957 17.2668 36.1501 17.3602 36.2435C17.4457 36.3368 17.4924 36.4535 17.4924 36.578V39.2929C17.4924 39.5574 17.2746 39.7752 17.0101 39.7752C16.7456 39.7752 16.5278 39.5574 16.5278 39.2929V36.578C16.5278 36.3135 16.7456 36.0957 17.0101 36.0957Z" fill="#DFAB5A"/>
<path d="M19.3213 35.6289C18.8001 35.6289 18.3722 36.0568 18.3722 36.578V39.3007C18.3722 39.8219 18.8001 40.2498 19.3213 40.2498C19.8425 40.2498 20.2703 39.8219 20.2703 39.2929V36.578C20.2703 36.0568 19.8425 35.6289 19.3213 35.6289ZM19.8036 39.2929C19.8036 39.5574 19.5858 39.7752 19.3213 39.7752C19.0568 39.7752 18.8389 39.5574 18.8389 39.2929V36.578C18.8389 36.3135 19.0568 36.0957 19.3213 36.0957C19.5858 36.0957 19.8036 36.3135 19.8036 36.578V39.2929Z" fill="#DFAB5A"/>
<path d="M21.6314 40.2498C22.1526 40.2498 22.5805 39.8219 22.5805 39.2929V36.578C22.5805 36.0568 22.1526 35.6289 21.6314 35.6289C21.1102 35.6289 20.6824 36.0568 20.6824 36.578V39.3007C20.6824 39.8219 21.1102 40.2498 21.6314 40.2498ZM21.6314 36.0957C21.8959 36.0957 22.1138 36.3135 22.1138 36.578V39.2929C22.1138 39.5574 21.8959 39.7752 21.6314 39.7752C21.3669 39.7752 21.1491 39.5574 21.1491 39.2929V36.578C21.1491 36.3135 21.3669 36.0957 21.6314 36.0957Z" fill="#DFAB5A"/>
<path d="M23.9425 35.6289C23.4213 35.6289 22.9934 36.0568 22.9934 36.578V39.3007C22.9934 39.8219 23.4213 40.2498 23.9425 40.2498C24.4637 40.2498 24.8915 39.8219 24.8915 39.2929V36.578C24.8915 36.0568 24.4637 35.6289 23.9425 35.6289ZM24.4248 39.2929C24.4248 39.5574 24.207 39.7752 23.9425 39.7752C23.678 39.7752 23.4602 39.5574 23.4602 39.2929V36.578C23.4602 36.3135 23.678 36.0957 23.9425 36.0957C24.207 36.0957 24.4248 36.3135 24.4248 36.578V39.2929Z" fill="#DFAB5A"/>
<path d="M26.2523 35.6289C25.7311 35.6289 25.3032 36.0568 25.3032 36.578V39.3007C25.3032 39.8219 25.7311 40.2498 26.2523 40.2498C26.7735 40.2498 27.2014 39.8219 27.2014 39.2929V36.578C27.2014 36.0568 26.7735 35.6289 26.2523 35.6289ZM26.2523 36.0957C26.5168 36.0957 26.7346 36.3135 26.7346 36.578V39.2929C26.7346 39.5574 26.5168 39.7752 26.2523 39.7752C25.9878 39.7752 25.77 39.5574 25.77 39.2929V36.578C25.77 36.3135 25.9878 36.0957 26.2523 36.0957Z" fill="#DFAB5A"/>
<path d="M28.5547 35.6289C28.0335 35.6289 27.6056 36.0568 27.6056 36.578V39.3007C27.6056 39.8219 28.0335 40.2498 28.5547 40.2498C28.8114 40.2498 29.0526 40.1486 29.2315 39.9697C29.4104 39.7908 29.5038 39.5496 29.5038 39.2929V36.578C29.5038 36.0568 29.0759 35.6289 28.5547 35.6289ZM29.037 39.2929C29.037 39.5574 28.8192 39.7752 28.5547 39.7752C28.2902 39.7752 28.0724 39.5574 28.0724 39.2929V36.578C28.0724 36.3135 28.2902 36.0957 28.5547 36.0957C28.6869 36.0957 28.8114 36.1501 28.9048 36.2435C28.9903 36.3368 29.037 36.4535 29.037 36.578V39.2929Z" fill="#DFAB5A"/>
<path d="M30.8658 35.6289C30.3446 35.6289 29.9167 36.0568 29.9167 36.578V39.3007C29.9167 39.8219 30.3446 40.2498 30.8658 40.2498C31.1225 40.2498 31.3637 40.1486 31.5426 39.9619C31.7215 39.783 31.8149 39.5419 31.8149 39.2929V36.578C31.8149 36.0568 31.387 35.6289 30.8658 35.6289ZM30.8658 36.0957C30.9981 36.0957 31.1225 36.1501 31.2159 36.2435C31.3015 36.3368 31.3481 36.4535 31.3481 36.578V39.2929C31.3481 39.5574 31.1303 39.7752 30.8658 39.7752C30.6013 39.7752 30.3835 39.5574 30.3835 39.2929V36.578C30.3835 36.3135 30.6013 36.0957 30.8658 36.0957Z" fill="#DFAB5A"/>
<path d="M33.1759 35.6289C32.6547 35.6289 32.2268 36.0568 32.2268 36.578V39.3007C32.2268 39.8219 32.6547 40.2498 33.1759 40.2498C33.6971 40.2498 34.125 39.8219 34.125 39.2929V36.578C34.125 36.0568 33.6971 35.6289 33.1759 35.6289ZM33.1759 36.0957C33.4404 36.0957 33.6582 36.3135 33.6582 36.578V39.2929C33.6582 39.5574 33.4404 39.7752 33.1759 39.7752C32.9114 39.7752 32.6936 39.5574 32.6936 39.2929V36.578C32.6936 36.3135 32.9114 36.0957 33.1759 36.0957Z" fill="#DFAB5A"/>
<path d="M35.4858 35.6289C34.9646 35.6289 34.5367 36.0568 34.5367 36.578V39.3007C34.5367 39.8219 34.9646 40.2498 35.4858 40.2498C36.007 40.2498 36.4349 39.8219 36.4349 39.2929V36.578C36.4349 36.0568 36.007 35.6289 35.4858 35.6289ZM35.4858 36.0957C35.7503 36.0957 35.9681 36.3135 35.9681 36.578V39.2929C35.9681 39.5574 35.7503 39.7752 35.4858 39.7752C35.2213 39.7752 35.0035 39.5574 35.0035 39.2929V36.578C35.0035 36.3135 35.2213 36.0957 35.4858 36.0957Z" fill="#DFAB5A"/>
<path d="M37.797 35.6289C37.2758 35.6289 36.8479 36.0568 36.8479 36.578V39.3007C36.8479 39.8219 37.2758 40.2498 37.797 40.2498C38.3182 40.2498 38.746 39.8219 38.746 39.2929V36.578C38.746 36.0568 38.3182 35.6289 37.797 35.6289ZM38.2793 39.2929C38.2793 39.5574 38.0615 39.7752 37.797 39.7752C37.5325 39.7752 37.3147 39.5574 37.3147 39.2929V36.578C37.3147 36.3135 37.5325 36.0957 37.797 36.0957C38.0615 36.0957 38.2793 36.3135 38.2793 36.578V39.2929Z" fill="#DFAB5A"/>
<path d="M40.107 35.6289C39.5858 35.6289 39.158 36.0568 39.158 36.578V39.3007C39.158 39.8219 39.5858 40.2498 40.107 40.2498C40.6282 40.2498 41.0561 39.8219 41.0561 39.2929V36.578C41.0561 36.0568 40.6282 35.6289 40.107 35.6289ZM40.5893 39.2929C40.5893 39.5574 40.3715 39.7752 40.107 39.7752C39.8425 39.7752 39.6247 39.5574 39.6247 39.2929V36.578C39.6247 36.3135 39.8425 36.0957 40.107 36.0957C40.3715 36.0957 40.5893 36.3135 40.5893 36.578V39.2929Z" fill="#DFAB5A"/>
<path d="M42.4171 35.6289C41.8959 35.6289 41.468 36.0568 41.468 36.578V39.3007C41.468 39.8219 41.8959 40.2498 42.4171 40.2498C42.9383 40.2498 43.3661 39.8219 43.3661 39.2929V36.578C43.3661 36.0568 42.9383 35.6289 42.4171 35.6289ZM42.4171 36.0957C42.6816 36.0957 42.8994 36.3135 42.8994 36.578V39.2929C42.8994 39.5574 42.6816 39.7752 42.4171 39.7752C42.1526 39.7752 41.9348 39.5574 41.9348 39.2929V36.578C41.9348 36.3135 42.1526 36.0957 42.4171 36.0957Z" fill="#DFAB5A"/>
<path d="M44.7204 40.2498C44.9771 40.2498 45.2183 40.1486 45.3972 39.9697C45.5761 39.7908 45.6695 39.5496 45.6695 39.2929V36.578C45.6695 36.0568 45.2416 35.6289 44.7204 35.6289C44.1992 35.6289 43.7714 36.0568 43.7714 36.578V39.3007C43.7714 39.8219 44.1992 40.2498 44.7204 40.2498ZM45.2027 39.2929C45.2027 39.5574 44.9849 39.7752 44.7204 39.7752C44.4559 39.7752 44.2381 39.5574 44.2381 39.2929V36.578C44.2381 36.3135 44.4559 36.0957 44.7204 36.0957C44.8527 36.0957 44.9771 36.1501 45.0705 36.2435C45.1561 36.3368 45.2027 36.4535 45.2027 36.578V39.2929Z" fill="#DFAB5A"/>
<path d="M47.0306 40.2498C47.2873 40.2498 47.5285 40.1486 47.7074 39.9619C47.8863 39.783 47.9797 39.5419 47.9797 39.2929V36.578C47.9797 36.0568 47.5518 35.6289 47.0306 35.6289C46.5094 35.6289 46.0815 36.0568 46.0815 36.578V39.3007C46.0815 39.8219 46.5094 40.2498 47.0306 40.2498ZM47.5129 39.2929C47.5129 39.5574 47.2951 39.7752 47.0306 39.7752C46.7661 39.7752 46.5483 39.5574 46.5483 39.2929V36.578C46.5483 36.3135 46.7661 36.0957 47.0306 36.0957C47.1629 36.0957 47.2873 36.1501 47.3807 36.2435C47.4662 36.3368 47.5129 36.4535 47.5129 36.578V39.2929Z" fill="#DFAB5A"/>
<path d="M49.3405 40.2498C49.8618 40.2498 50.2896 39.8219 50.2896 39.2929V36.578C50.2896 36.0568 49.8618 35.6289 49.3405 35.6289C48.8193 35.6289 48.3915 36.0568 48.3915 36.578V39.3007C48.3915 39.8219 48.8193 40.2498 49.3405 40.2498ZM49.3405 36.0957C49.605 36.0957 49.8229 36.3135 49.8229 36.578V39.2929C49.8229 39.5574 49.605 39.7752 49.3405 39.7752C49.076 39.7752 48.8582 39.5574 48.8582 39.2929V36.578C48.8582 36.3135 49.076 36.0957 49.3405 36.0957Z" fill="#DFAB5A"/>
<path d="M41.927 24.3959V22.9022V22.8789H32.942V22.9022V24.3959V27.3753H41.927V24.3959ZM33.4088 24.3959H41.4603V26.9086H33.4088V24.3959ZM33.4088 23.369H41.4603V23.9291H33.4088V23.369Z" fill="#DFAB5A"/>
<path d="M32.6938 25.3294H32.8027V24.2792V23.9291V22.8789H24.5956V23.9291V24.3959V25.4461H32.6938V25.3294ZM25.0623 23.3457H32.336V23.9291H25.0623V23.3457ZM25.0623 24.3959H32.336V24.9793H25.0623V24.3959Z" fill="#DFAB5A"/>
<path d="M39.9596 24.5825H38.676H38.6682H37.3846H37.3769H36.0933H36.0855H34.8019H34.7942H33.5028V26.7296H34.7942H34.8019H36.0855H36.0933H37.3769H37.3846H38.6682H38.676H39.9596H39.9673H41.2587V24.5825H39.9596ZM33.9618 26.2628V25.0493H34.3274V26.2628H33.9618ZM35.2609 26.2628V25.0493H35.6265V26.2628H35.2609ZM36.5523 26.2628V25.0493H36.9179V26.2628H36.5523ZM37.8436 26.2628V25.0493H38.2092V26.2628H37.8436ZM39.135 26.2628V25.0493H39.5006V26.2628H39.135ZM40.4263 26.2628V25.0493H40.7919V26.2628H40.4263Z" fill="#DFAB5A"/>
<path d="M13.7665 25.7724C14.4589 25.7724 15.019 25.2123 15.019 24.52C15.019 23.8277 14.4589 23.2676 13.7665 23.2676C13.0742 23.2676 12.514 23.8277 12.514 24.52C12.514 25.2123 13.0742 25.7724 13.7665 25.7724ZM13.7665 23.7343C14.2022 23.7343 14.5522 24.0844 14.5522 24.52C14.5522 24.9556 14.2022 25.3057 13.7665 25.3057C13.3309 25.3057 12.9808 24.9556 12.9808 24.52C12.9808 24.0844 13.3309 23.7343 13.7665 23.7343Z" fill="#DFAB5A"/>
<path d="M13.7665 28.4795C14.4589 28.4795 15.019 27.9194 15.019 27.227C15.019 26.5347 14.4589 25.9746 13.7665 25.9746C13.0742 25.9746 12.514 26.5347 12.514 27.227C12.514 27.9194 13.0742 28.4795 13.7665 28.4795ZM13.7665 26.4414C14.2022 26.4414 14.5522 26.7914 14.5522 27.227C14.5522 27.6627 14.2022 28.0127 13.7665 28.0127C13.3309 28.0127 12.9808 27.6627 12.9808 27.227C12.9808 26.7914 13.3309 26.4414 13.7665 26.4414Z" fill="#DFAB5A"/>
<path d="M17.7336 27.0947C18.5893 27.0947 19.2894 26.3945 19.2894 25.5388C19.2894 24.6831 18.5893 23.9829 17.7336 23.9829C16.8779 23.9829 16.1777 24.6831 16.1777 25.5388C16.1777 26.3945 16.8779 27.0947 17.7336 27.0947ZM17.7336 24.4497C18.3326 24.4497 18.8227 24.9398 18.8227 25.5388C18.8227 26.1378 18.3326 26.6279 17.7336 26.6279C17.1346 26.6279 16.6445 26.1378 16.6445 25.5388C16.6445 24.9398 17.1346 24.4497 17.7336 24.4497Z" fill="#DFAB5A"/>
<path d="M22.347 27.0947C23.2027 27.0947 23.9028 26.3945 23.9028 25.5388C23.9028 24.6831 23.2027 23.9829 22.347 23.9829C21.4913 23.9829 20.7911 24.6831 20.7911 25.5388C20.7911 26.3945 21.4913 27.0947 22.347 27.0947ZM22.347 26.6279C21.748 26.6279 21.2579 26.1378 21.2579 25.5388C21.2579 24.9398 21.748 24.4497 22.347 24.4497C22.946 24.4497 23.4361 24.9398 23.4361 25.5388C23.4361 26.1378 22.946 26.6279 22.347 26.6279Z" fill="#DFAB5A"/>
<path d="M11.596 23.2676H3.14771V30.37H11.596V23.2676ZM3.61446 29.9033V23.7343H11.1292V29.9033H3.61446Z" fill="#DFAB5A"/>
<path d="M4.29956 27.912V29.4056H6.04989H8.97489H10.7252V27.912V24.4502H4.29956V27.912ZM4.76632 28.9388V28.3787H5.58314V28.9388H4.76632ZM9.44165 28.3787H10.2585V28.9388H9.44165V28.3787ZM10.2585 24.9169V27.912H8.97489V28.9388H6.04989V27.912H4.76632V24.9169H10.2585Z" fill="#DFAB5A"/>
<path d="M8.39082 11.9018H17.0958C17.3369 11.9018 17.5703 11.8085 17.7414 11.6295C17.9048 11.4584 17.9981 11.2406 17.9904 11.0072V3.99032C17.9904 3.50022 17.5859 3.0957 17.0958 3.0957H8.39082C7.90073 3.0957 7.49622 3.50022 7.49622 3.99032V11.0072C7.49622 11.4973 7.90073 11.9018 8.39082 11.9018ZM17.5236 11.0072C17.5236 11.2484 17.3369 11.4351 17.0958 11.4351H8.39082C8.14967 11.4351 7.96297 11.2484 7.96297 11.0072V3.99032C7.96297 3.74916 8.14967 3.56246 8.39082 3.56246H17.0958C17.3369 3.56246 17.5236 3.74916 17.5236 3.99032V11.0072Z" fill="#DFAB5A"/>
<path d="M15.9997 4.44141H9.49626C9.09174 4.44141 8.76501 4.76813 8.76501 5.17265V9.82462C8.76501 10.2291 9.09174 10.5559 9.49626 10.5559H15.9997C16.3964 10.5559 16.7232 10.2291 16.7309 9.82462V5.17265C16.7309 4.76813 16.4042 4.44141 15.9997 4.44141ZM9.49626 4.90816H15.9997C16.1475 4.90816 16.2642 5.02485 16.2642 5.17265V9.82462C16.2642 9.97243 16.1475 10.0891 15.9997 10.0891H9.49626C9.34846 10.0891 9.23177 9.97243 9.23177 9.82462V5.17265C9.23177 5.02485 9.34846 4.90816 9.49626 4.90816Z" fill="#DFAB5A"/>
<path d="M11.1846 7.73242H10.08V9.94174H11.1846V7.73242ZM10.5389 9.47498V8.19918H10.7101V9.47498H10.5389Z" fill="#DFAB5A"/>
<path d="M15.3925 7.73242H14.2878V9.94174H15.3925V7.73242ZM14.7468 9.47498V8.19918H14.918V9.47498H14.7468Z" fill="#DFAB5A"/>
<path d="M13.2999 5.36816H12.1953V7.57747H13.2999V5.36816ZM12.6621 7.11071V5.83492H12.8332V7.11071H12.6621Z" fill="#DFAB5A"/>
</svg>
