<svg width="54" height="55" viewBox="0 0 54 55" fill="none" xmlns="http://www.w3.org/2000/svg">
<g clip-path="url(#clip0)">
<path d="M27.9047 5.79999C27.9047 7.64796 26.3879 9.1117 24.4874 9.1117C22.5869 9.1117 21.1067 7.64796 21.1067 5.79999C21.1067 3.93372 22.5869 2.48828 24.5057 2.48828C26.4062 2.50658 27.9047 3.97032 27.9047 5.79999ZM22.861 5.81829C22.861 6.82461 23.5554 7.53818 24.5057 7.53818C25.4377 7.53818 26.1504 6.80631 26.1504 5.81829C26.1504 4.81197 25.4377 4.0801 24.5057 4.0801C23.5554 4.0801 22.861 4.81197 22.861 5.81829Z" fill="#979085"/>
<path d="M30.5178 8.25186V4.0985H29.1655C28.7452 4.0985 28.4163 3.78746 28.4163 3.36664C28.4163 2.96411 28.7452 2.63477 29.1655 2.63477H33.6061C34.0447 2.63477 34.3554 2.96411 34.3554 3.36664C34.3554 3.78746 34.0447 4.0985 33.6061 4.0985H32.2356V8.27016C32.2356 8.76417 31.8701 9.14841 31.3767 9.14841C30.8833 9.13011 30.5178 8.74588 30.5178 8.25186Z" fill="#979085"/>
<path d="M8.27817 42.9791C8.27817 43.6012 7.80305 44.0586 7.16345 44.0586L1.13299 44.0769C0.511675 44.0769 0 43.5646 0 42.9425C0 42.5949 0.146193 42.2655 0.475127 41.9911L3.87411 39.1185C5.11675 38.0573 5.53706 37.3803 5.53706 36.4837C5.53706 35.4957 4.93401 34.8553 4.00203 34.8553C3.1797 34.8553 2.59492 35.3859 2.46701 36.2459C2.44873 36.4106 2.41218 36.5752 2.39391 36.7399C2.30254 37.3437 1.86396 37.7279 1.26091 37.7279C0.657868 37.7279 0.182741 37.2705 0.127919 36.6118C0.0913706 36.3923 0.109645 36.0812 0.164467 35.7702C0.475127 33.9954 2.0467 32.7329 4.05685 32.7329C6.26802 32.7329 7.85787 34.2698 7.85787 36.3557C7.85787 37.8011 7.1269 38.9904 5.2264 40.5822L3.65482 41.9179H7.16345C7.80305 41.9362 8.27817 42.3753 8.27817 42.9791Z" fill="#979085"/>
<path d="M9.77661 42.7049C9.77661 41.8449 10.4528 41.1313 11.3482 41.1313C12.2436 41.1313 12.9015 41.8449 12.9015 42.7049C12.9015 43.5831 12.2436 44.2784 11.3482 44.2784C10.4345 44.2601 9.77661 43.5831 9.77661 42.7049Z" fill="#979085"/>
<path d="M22.3309 40.4172C22.3309 42.686 20.4486 44.2778 18.073 44.2778C16.4832 44.2778 15.1674 43.5642 14.3634 42.4847C14.2537 42.3201 14.1624 42.0822 14.1624 41.8626C14.1624 41.2954 14.6375 40.8197 15.2223 40.8197C15.5329 40.8197 15.807 40.9478 15.9715 41.1491C16.5014 41.7895 17.1228 42.1737 17.9999 42.1737C19.1512 42.1737 19.9918 41.4967 19.9918 40.4538C19.9918 39.4109 19.2243 38.862 17.7258 38.862H16.2822C15.6243 38.862 15.1309 38.368 15.1309 37.7093V34.1048C15.1309 33.4462 15.6243 32.9521 16.2822 32.9521H20.7228C21.3258 32.9521 21.7644 33.3913 21.7644 33.9768C21.7644 34.544 21.3258 35.0014 20.7228 35.0014H17.3238V36.8859H18.475C20.5766 36.8859 22.3309 38.2399 22.3309 40.4172Z" fill="#979085"/>
<path d="M29.2385 43.4002V39.0638C29.2385 38.6064 29.5857 38.2588 30.0426 38.2588H32.9664C33.3502 38.2588 33.6426 38.5332 33.6426 38.9358C33.6426 39.32 33.3502 39.6127 32.9664 39.6127H30.8101V43.4185C30.8101 43.8759 30.4629 44.2235 30.0243 44.2235C29.5675 44.2052 29.2385 43.8576 29.2385 43.4002Z" fill="#979085"/>
<path d="M40.3127 41.1496C40.3127 42.8512 38.9239 44.2051 37.1696 44.2051C35.4335 44.2051 34.063 42.8695 34.063 41.1496C34.063 39.448 35.4335 38.1123 37.1696 38.1123C38.9239 38.1123 40.3127 39.448 40.3127 41.1496ZM35.6894 41.1679C35.6894 42.0827 36.329 42.7414 37.1879 42.7414C38.0467 42.7414 38.6863 42.0644 38.6863 41.1679C38.6863 40.253 38.0467 39.576 37.1879 39.576C36.3107 39.5577 35.6894 40.2347 35.6894 41.1679Z" fill="#979085"/>
<path d="M48.006 43.5282V45.0651C48.006 45.5409 47.6588 45.8702 47.2202 45.8702C46.7816 45.8702 46.4344 45.5226 46.4344 45.0651V44.0771H42.4324V45.0651C42.4324 45.5409 42.0852 45.8702 41.6466 45.8702C41.1897 45.8702 40.8425 45.5226 40.8425 45.0651V43.5282C40.8425 43.0708 41.1897 42.7232 41.6466 42.7232H41.7014C42.3958 41.9181 42.6699 40.8569 42.6699 39.0089V38.9906C42.6699 38.5515 43.0171 38.2222 43.474 38.2222H46.1603C46.6171 38.2222 46.9644 38.5698 46.9644 39.0272V42.7049H47.2019C47.6588 42.7232 48.006 43.0708 48.006 43.5282ZM43.3826 42.7232H45.3928V39.5761H44.2598C44.2415 41.0582 43.9674 42.0645 43.3826 42.7232Z" fill="#979085"/>
<path d="M53.9998 40.6007V43.4001C53.9998 43.8575 53.6709 44.1868 53.2323 44.1868C52.8485 44.1868 52.5379 43.9307 52.4648 43.583C52.0445 43.9856 51.4597 44.2051 50.7653 44.2051C49.5592 44.2051 48.7551 43.4915 48.7551 42.4669C48.7551 41.424 49.5957 40.7653 50.948 40.7653H52.41V40.5092C52.41 39.8688 52.0262 39.4846 51.3135 39.4846C50.8932 39.4846 50.546 39.6309 50.1988 39.9237C50.016 40.0701 49.8881 40.1066 49.7237 40.1066C49.3399 40.1066 49.0475 39.8139 49.0475 39.4663C49.0475 39.2467 49.1572 39.0271 49.3765 38.8259C49.8699 38.3685 50.6374 38.1123 51.478 38.1123C53.0861 38.1123 53.9998 39.0088 53.9998 40.6007ZM52.41 41.8814V41.8082H51.1673C50.6374 41.8082 50.3633 42.0095 50.3633 42.3937C50.3633 42.778 50.6739 43.0341 51.2039 43.0341C51.88 43.0341 52.41 42.5401 52.41 41.8814Z" fill="#979085"/>
<path d="M9.46601 13.7353V24.8415C9.46601 25.7197 8.95433 26.2503 8.09545 26.2503C7.2183 26.2503 6.74317 25.7197 6.74317 24.8415V15.6931L5.44571 16.2603C5.26297 16.3335 5.06195 16.4067 4.82439 16.4067C4.12997 16.4067 3.56348 15.8395 3.56348 15.1076C3.56348 14.5953 3.81931 14.1562 4.42236 13.9183L7.45586 12.546C7.69342 12.4729 7.93099 12.3814 8.16855 12.3814C8.88124 12.3448 9.46601 12.9852 9.46601 13.7353Z" fill="#979085"/>
<path d="M20.5585 25.0792V17.4312H18.0732C17.525 17.4312 17.0864 17.0103 17.0864 16.4614C17.0864 15.9125 17.5067 15.4917 18.0732 15.4917H25.2184C25.7849 15.4917 26.2052 15.9125 26.2052 16.4614C26.2052 17.0103 25.7849 17.4312 25.2184 17.4312H22.7149V25.0792C22.7149 25.7013 22.258 26.177 21.6367 26.177C21.0336 26.177 20.5585 25.7013 20.5585 25.0792Z" fill="#979085"/>
<path d="M27.4844 25.061V16.4066C27.4844 15.7662 27.923 15.2905 28.5625 15.2905C29.1839 15.2905 29.6224 15.7662 29.6224 16.4066V19.5171H34.2641V16.3883C34.2641 15.7479 34.7027 15.2905 35.3422 15.2905C35.9636 15.2905 36.4021 15.7479 36.4021 16.3883V25.061C36.4021 25.7014 35.9453 26.1771 35.3422 26.1771C34.7209 26.1771 34.2641 25.7014 34.2641 25.061V21.4382H29.6224V25.061C29.6224 25.7014 29.1656 26.1771 28.5625 26.1771C27.9412 26.1771 27.4844 25.7014 27.4844 25.061Z" fill="#979085"/>
<path d="M37.864 26.6165L41.263 15.0713H42.8711L39.4721 26.6165H37.864Z" fill="#979085"/>
<path d="M43.5839 25.0422C43.3828 24.8593 43.2732 24.6214 43.2732 24.3652C43.2732 23.8712 43.6752 23.4504 44.1686 23.4504C44.3696 23.4504 44.5707 23.5053 44.7899 23.6883C45.2468 24.0908 45.8316 24.3835 46.5077 24.3835C47.0559 24.3835 47.5128 24.1823 47.5128 23.7249C47.5128 23.3589 47.1839 23.2125 46.7087 23.0113L45.8681 22.6636C44.5341 22.1147 43.73 21.4926 43.73 20.2668C43.73 18.7481 44.9544 17.8882 46.6174 17.8882C47.5493 17.8882 48.4631 18.1992 49.1027 18.7298C49.3585 18.9128 49.4864 19.169 49.4864 19.4617C49.4864 19.9557 49.0844 20.3582 48.6092 20.3582C48.4265 20.3582 48.2255 20.2668 48.0427 20.1387C47.6224 19.8459 47.129 19.663 46.6174 19.663C46.1057 19.663 45.7768 19.8459 45.7768 20.2119C45.7768 20.5229 46.0326 20.6876 46.5991 20.9072L47.3666 21.2182C48.7737 21.7854 49.5778 22.3892 49.5778 23.6151C49.5778 25.2435 48.2255 26.1217 46.5077 26.1217C45.3016 26.1766 44.2965 25.7375 43.5839 25.0422Z" fill="#979085"/>
</g>
<defs>
<clipPath id="clip0">
<rect width="54" height="55" fill="white"/>
</clipPath>
</defs>
</svg>
