<svg width="28" height="25" viewBox="0 0 28 25" fill="none" xmlns="http://www.w3.org/2000/svg">
<path d="M14 25C13.7673 24.9638 13.5415 24.9078 13.377 24.7422L9.32575 20.6897H2.18663C0.980875 20.6897 0 19.7233 0 18.5362V2.15431C0 0.966379 0.980875 0 2.18663 0H25.8143C27.0191 0 28 0.966379 28 2.15431V18.5362C28 19.7233 27.0191 20.6897 25.8143 20.6897H18.7372L14.6186 24.7474C14.455 24.9095 14.2319 25 14 25ZM2.18663 1.72414C1.946 1.72414 1.75 1.91724 1.75 2.15431V18.5362C1.75 18.7724 1.946 18.9655 2.18663 18.9655H9.69238C9.92688 18.9655 10.1509 19.0578 10.3154 19.2233L14.0044 22.9138L17.7564 19.2181C17.92 19.056 18.1423 18.9655 18.375 18.9655H25.8143C26.054 18.9655 26.25 18.7724 26.25 18.5362V2.15431C26.25 1.91724 26.054 1.72414 25.8143 1.72414H2.18663Z" fill="#4C4944"/>
<rect x="5" y="6" width="18" height="1" fill="#4C4944"/>
<rect x="5" y="10" width="18" height="1" fill="#4C4944"/>
<rect x="5" y="14" width="18" height="1" fill="#4C4944"/>
</svg>
