<svg width="35" height="44" viewBox="0 0 35 44" fill="none" xmlns="http://www.w3.org/2000/svg">
<g clip-path="url(#clip0)">
<path d="M31.7817 44H2.95518C1.32983 44 0 42.658 0 41.0179V2.98213C0 1.34196 1.32983 0 2.95518 0H31.7817C33.407 0 34.7368 1.34196 34.7368 2.98213V41.0179C34.7368 42.658 33.407 44 31.7817 44ZM2.95518 1.76217C2.28355 1.76217 1.74624 2.30437 1.74624 2.98213V41.0179C1.74624 41.6956 2.28355 42.2378 2.95518 42.2378H31.7817C32.4533 42.2378 32.9906 41.6956 32.9906 41.0179V2.98213C32.9906 2.30437 32.4533 1.76217 31.7817 1.76217H2.95518Z" fill="#979085"/>
<path d="M8.63721 34.4694C8.63721 34.9303 8.99989 35.2963 9.4566 35.2963H25.3474C25.8041 35.2963 26.1668 34.9303 26.1668 34.4694C26.1668 34.0086 25.8041 33.6426 25.3474 33.6426H9.4566C9.01332 33.6426 8.63721 34.0221 8.63721 34.4694Z" fill="#979085"/>
<path d="M8.63721 30.5925C8.63721 31.0534 8.99989 31.4194 9.4566 31.4194H25.3474C25.8041 31.4194 26.1668 31.0534 26.1668 30.5925C26.1668 30.1316 25.8041 29.7656 25.3474 29.7656H9.4566C9.01332 29.7656 8.63721 30.1316 8.63721 30.5925Z" fill="#979085"/>
<path d="M23.9782 15.7499C23.9782 15.1455 23.5635 14.6226 23.0179 14.5064V11.4151C23.0179 9.69508 22.385 8.07969 21.2393 6.87106C20.1044 5.66242 18.5877 5 16.9836 5C16.9727 5 16.9727 5 16.9618 5C15.7942 5 14.6703 5.36027 13.6991 6.04593C13.47 6.20863 13.4045 6.53403 13.5573 6.78971C13.7101 7.03376 14.0156 7.10349 14.2557 6.94079C15.0631 6.37133 16.0016 6.0808 16.9727 6.06918H16.9836C18.3258 6.06918 19.5807 6.62701 20.53 7.63807C21.4793 8.64914 22.014 9.99723 22.014 11.4267V14.4831H21.0865V13.8207C21.0865 13.5302 20.8574 13.2861 20.5846 13.2861C20.3118 13.2861 20.0826 13.5302 20.0826 13.8207V14.4831H13.8846V11.4615C13.8846 9.63697 15.2595 8.12618 16.9509 8.11455C17.7802 8.10293 18.5659 8.43996 19.1551 9.06751C19.7443 9.69507 20.0717 10.5202 20.0717 11.4151V12.3448C20.0717 12.6353 20.3009 12.8794 20.5737 12.8794C20.8465 12.8794 21.0756 12.6353 21.0756 12.3448V11.4151C21.0756 10.2413 20.6391 9.13724 19.8644 8.31212C19.0787 7.48699 18.0421 7.03376 16.94 7.04538C14.703 7.06862 12.8807 9.04427 12.8807 11.4615V14.4715H11.9532V11.4732C11.9532 10.067 12.4552 8.73049 13.3718 7.7078C13.5573 7.49862 13.5573 7.16159 13.3609 6.95241C13.2627 6.85944 13.1426 6.80133 13.0008 6.80133C12.8698 6.80133 12.7389 6.85944 12.6516 6.96403C11.5713 8.18428 10.9712 9.78805 10.9712 11.4732V14.5064C10.4256 14.6226 10.0109 15.1455 10.0109 15.7499V19.922H10V20.7587L10.0109 20.9911V21.2468H10V22.0836L10.0109 22.316V22.9436H10V23.7803L10.0109 24.0127V24.7216C10.0109 25.4189 10.5456 26 11.2112 26H18.544C18.8168 26 19.046 25.7559 19.046 25.4654C19.046 25.1749 18.8168 24.9308 18.544 24.9308H11.2112C11.1021 24.9308 11.0148 24.8379 11.0148 24.7216V15.7615C11.0148 15.6453 11.1021 15.5523 11.2112 15.5523H11.5277C11.6041 15.5755 11.6913 15.5988 11.7786 15.5988H13.1099C13.1972 15.5988 13.2845 15.5872 13.3609 15.5523H22.7997C22.9088 15.5523 22.9961 15.6453 22.9961 15.7615V24.7216C22.9961 24.8379 22.9088 24.9308 22.7997 24.9308H19.9408C19.668 24.9308 19.4388 25.1749 19.4388 25.4654C19.4388 25.7559 19.668 26 19.9408 26H22.7997C23.4544 26 24 25.4305 24 24.7216L23.9782 15.7499Z" fill="#979085"/>
<path d="M17 21C17.5523 21 18 20.5523 18 20C18 19.4477 17.5523 19 17 19C16.4477 19 16 19.4477 16 20C16 20.5523 16.4477 21 17 21Z" fill="#979085"/>
</g>
<defs>
<clipPath id="clip0">
<rect width="34.7368" height="44" fill="white"/>
</clipPath>
</defs>
</svg>
