<svg width="31" height="44" viewBox="0 0 31 44" fill="none" xmlns="http://www.w3.org/2000/svg">
<g clip-path="url(#clip0)">
<path d="M4.26542 18H7.14778C7.84075 18 8.4132 17.4315 8.4132 16.721V14.0715C8.4132 10.0516 11.6069 6.75252 15.5237 6.71192C17.4519 6.69162 19.2697 7.4428 20.6456 8.81321C22.0215 10.1938 22.7747 12.021 22.7747 13.97V15.8784C22.7747 16.2235 23.0459 16.4976 23.3874 16.4976C23.7288 16.4976 24 16.2235 24 15.8784V13.97C24 11.686 23.1162 9.54409 21.5093 7.94021C19.9024 6.33633 17.7733 5.46333 15.5136 5.48363C10.924 5.52424 7.19799 9.38167 7.19799 14.0817V16.7311C7.19799 16.7514 7.17791 16.7717 7.15782 16.7717H4.26542C4.24534 16.7717 4.22525 16.7514 4.22525 16.7311V14.102C4.22525 11.0871 5.36011 8.22444 7.41894 6.04194C7.64993 5.79832 7.63989 5.40242 7.39885 5.16895C7.15782 4.93547 6.76614 4.94562 6.53515 5.18925C4.25538 7.59507 3 10.7622 3 14.102V16.7311C3 17.4214 3.56241 18 4.26542 18Z" fill="#979085" stroke="#979085" stroke-width="0.5"/>
<path d="M10.6029 33.471C10.6029 34.9221 9.43771 36.0025 7.85947 36.0025C6.89558 36.0025 6.02702 35.5682 5.45504 34.7738C5.37031 34.6679 5.34912 34.5514 5.34912 34.4455C5.34912 34.1383 5.60333 33.9053 5.88932 33.9053C6.0588 33.9053 6.1965 33.9688 6.31301 34.0959C6.74729 34.6361 7.22394 34.9009 7.8277 34.9009C8.73862 34.9009 9.36356 34.3184 9.36356 33.4816C9.36356 32.6448 8.74922 32.1681 7.63704 32.1681H7.38282C7.05446 32.1681 6.80025 31.9139 6.80025 31.5856C6.80025 31.4161 6.86381 31.2678 7.05446 31.1089L8.72803 29.4883H6.1859C5.86814 29.4883 5.62452 29.2447 5.62452 28.9269C5.62452 28.6197 5.86814 28.3867 6.1859 28.3867H9.82962C10.158 28.3867 10.4334 28.6621 10.4334 28.9905C10.4334 29.16 10.3698 29.3082 10.2215 29.4459L8.47382 31.1619C9.70251 31.289 10.6029 32.2423 10.6029 33.471Z" fill="#979085"/>
<path d="M17.5301 33.4182C17.5301 34.8587 16.3649 36.0133 14.8714 36.0133C13.3779 36.0133 12.2234 34.8693 12.2234 33.4076C12.2234 32.6026 12.5306 31.9564 13.3779 30.8972L15.2316 28.5563C15.3905 28.3551 15.5705 28.2598 15.7612 28.2598C16.0895 28.2598 16.3649 28.5246 16.3649 28.8317C16.3649 28.98 16.312 29.1177 16.1955 29.2342L14.8397 30.929C14.9032 30.9184 14.988 30.9184 15.0621 30.9184C16.4285 30.9078 17.5301 32.0306 17.5301 33.4182ZM16.3544 33.4182C16.3544 32.5814 15.7188 31.9247 14.882 31.9247C14.0558 31.9247 13.4309 32.5708 13.4309 33.4182C13.4309 34.2655 14.0664 34.9117 14.882 34.9117C15.6976 34.9011 16.3544 34.2655 16.3544 33.4182Z" fill="#979085"/>
<path d="M25.0188 32.0624C25.0188 34.5198 23.9278 36.0027 22.1695 36.0027C20.4006 36.0027 19.3096 34.5092 19.3096 32.0624C19.3096 29.6685 20.3794 28.2598 22.1695 28.2598C23.949 28.2598 25.0188 29.6685 25.0188 32.0624ZM20.5489 32.073C20.5489 33.916 21.1102 34.9011 22.1589 34.9011C23.2075 34.9011 23.7583 33.9266 23.7583 32.073C23.7583 30.2617 23.2287 29.3614 22.1589 29.3614C21.0891 29.3614 20.5489 30.2723 20.5489 32.073Z" fill="#979085"/>
<path d="M30 22.5359C30 21.3732 29.0857 20.4329 27.9527 20.4025V13.6688C27.9527 10.2817 26.6508 7.09682 24.2855 4.70058C21.9301 2.30434 18.7896 0.989947 15.4602 1.00006C13.0651 1.01017 10.7395 1.71792 8.73201 3.05253C8.45374 3.24464 8.37423 3.62885 8.55312 3.91195C8.73201 4.19505 9.10966 4.27593 9.38794 4.08383C11.1967 2.88065 13.2937 2.23357 15.4602 2.22346C15.4702 2.22346 15.4801 2.22346 15.4901 2.22346C18.4815 2.22346 21.304 3.40641 23.4208 5.5701C25.5576 7.7338 26.7303 10.6052 26.7303 13.6688V20.4025H23.7985V18.5624C23.7985 18.2186 23.5302 17.9456 23.1923 17.9456C22.8544 17.9456 22.586 18.2186 22.586 18.5624V20.4025H3.09698C1.94414 20.4025 1 21.3631 1 22.5359V40.8666C1 42.0395 1.94414 43 3.09698 43H18.8194C19.1573 43 19.4256 42.727 19.4256 42.3832C19.4256 42.0395 19.1573 41.7665 18.8194 41.7665H3.09698C2.61001 41.7665 2.21247 41.3621 2.21247 40.8666V22.5359C2.21247 22.0405 2.61001 21.636 3.09698 21.636H27.903C28.39 21.636 28.7875 22.0405 28.7875 22.5359V40.8666C28.7875 41.3621 28.39 41.7665 27.903 41.7665H21.791C21.4531 41.7665 21.1847 42.0395 21.1847 42.3832C21.1847 42.727 21.4531 43 21.791 43H27.903C29.0559 43 30 42.0395 30 40.8666V22.5359Z" fill="#979085" stroke="#979085" stroke-width="0.5"/>
</g>
<defs>
<clipPath id="clip0">
<rect width="30.908" height="44" fill="white"/>
</clipPath>
</defs>
</svg>
