<svg width="69" height="25" viewBox="0 0 69 25" fill="none" xmlns="http://www.w3.org/2000/svg">
<path d="M8.5821 19.3465C12.3139 19.3465 15.3391 16.3213 15.3391 12.5895C15.3391 8.85772 12.3139 5.83252 8.5821 5.83252C4.85032 5.83252 1.82512 8.85772 1.82512 12.5895C1.82512 16.3213 4.85032 19.3465 8.5821 19.3465Z" fill="#AAAAAA"/>
<path d="M63.9844 18.9568C63.6762 18.9568 63.3598 18.9406 63.0516 18.9649C62.7596 18.9811 62.7109 18.8757 62.7758 18.608C63.1327 17.1398 63.4815 15.6635 63.8222 14.1953C63.9033 13.8303 63.9844 13.4571 64.0169 13.0759C64.0818 12.3053 63.7005 11.9078 62.938 11.8916C61.9241 11.8754 61.9241 11.8754 61.6888 12.8569C61.2346 14.7793 60.7722 16.6937 60.3261 18.6161C60.2693 18.8757 60.172 18.973 59.8962 18.9649C59.2716 18.9487 58.6551 18.9568 58.0305 18.9649C57.7953 18.9649 57.6898 18.9406 57.7547 18.6486C58.4117 15.9717 59.0526 13.2949 59.6934 10.61C59.7258 10.4802 59.7583 10.3504 59.9205 10.3017C61.3806 9.83124 62.865 9.56356 64.39 9.83935C65.9312 10.1151 66.7343 11.2589 66.6045 12.8731C66.5234 13.8871 66.2232 14.8604 65.9961 15.8501C65.7852 16.7748 65.55 17.6914 65.3472 18.608C65.2823 18.8919 65.1687 18.9893 64.8848 18.9649C64.5766 18.9325 64.2764 18.9568 63.9844 18.9568Z" fill="#5B5B5B"/>
<path d="M34.8637 12.0373C34.4825 12.0373 34.1094 12.0454 33.7281 12.0373C33.5334 12.0292 33.428 12.1022 33.3874 12.2969C33.1441 13.4487 32.7953 14.5682 32.6087 15.7362C32.4708 16.6042 32.8277 17.0097 33.7119 17.026C34.1743 17.0341 34.6285 16.9773 35.0665 16.8394C35.2774 16.7745 35.3829 16.7745 35.3991 17.0422C35.4234 17.4964 35.4802 17.9588 35.537 18.4131C35.5613 18.624 35.4964 18.7294 35.2937 18.7943C34.1824 19.1674 33.0467 19.281 31.8949 19.0458C30.7268 18.8105 30.0779 18.0156 30.0292 16.8232C29.9887 15.7849 30.2645 14.7872 30.4997 13.7894C30.9458 11.8994 31.4001 10.0094 31.83 8.1113C31.903 7.80306 32.0247 7.65705 32.3491 7.6246C32.9818 7.5516 33.6064 7.45426 34.231 7.34069C34.5068 7.29202 34.5961 7.31636 34.5149 7.63271C34.3365 8.28164 34.1905 8.9468 34.0201 9.59573C33.9552 9.84719 33.9958 9.96075 34.2959 9.95264C35.0016 9.93641 35.6992 9.95264 36.4049 9.94453C36.6807 9.93641 36.8024 9.98508 36.7051 10.3014C36.5672 10.7638 36.4536 11.2424 36.3563 11.721C36.2995 11.9887 36.1616 12.0698 35.9101 12.0535C35.5695 12.0211 35.2207 12.0373 34.8637 12.0373Z" fill="#5B5B5B"/>
<path d="M42.1317 9.70099C42.8374 9.68477 43.5431 9.82267 44.2326 10.0822C44.4679 10.1715 44.5652 10.2607 44.4354 10.5203C44.2083 10.9826 44.0055 11.4531 43.8189 11.9317C43.7297 12.1588 43.6162 12.2156 43.389 12.1101C42.9348 11.9074 42.4562 11.8506 41.9614 11.8668C40.7933 11.9074 39.9984 12.4914 39.5766 13.5621C39.2846 14.3165 39.2115 15.1114 39.4306 15.9064C39.6334 16.6364 40.047 16.9609 40.8014 17.0096C41.4017 17.0501 41.9938 16.9933 42.5535 16.7743C42.8131 16.677 42.878 16.75 42.8942 17.0014C42.9267 17.4719 42.9753 17.9424 43.024 18.4129C43.0402 18.5832 43.024 18.7211 42.8212 18.7941C41.5396 19.2565 40.2255 19.3781 38.9276 18.9158C37.6217 18.4534 36.916 17.4638 36.7375 16.1011C36.4293 13.7406 37.4594 11.0962 39.9903 10.0741C40.6716 9.81455 41.3692 9.69288 42.1317 9.70099Z" fill="#5B5B5B"/>
<path d="M26.2898 18.9566C26.0059 18.9566 25.7219 18.9404 25.438 18.9647C25.1136 18.989 25.0487 18.8917 25.1217 18.5753C25.4867 17.0828 25.8436 15.5822 26.1924 14.0815C26.4925 12.8242 26.8008 11.5588 27.0847 10.3015C27.1496 10.0257 27.2631 9.92835 27.5471 9.93646C28.1554 9.9608 28.7638 9.95269 29.3722 9.93646C29.6236 9.92835 29.7291 9.96891 29.6561 10.269C28.9747 13.0594 28.3095 15.8579 27.6444 18.6565C27.5876 18.8917 27.4903 18.9647 27.255 18.9566C26.9387 18.9404 26.6142 18.9566 26.2898 18.9566Z" fill="#5B5B5B"/>
<path d="M54.5182 18.9568C54.2181 18.9568 53.926 18.9406 53.6259 18.9649C53.3177 18.9893 53.2366 18.9081 53.3177 18.5837C53.8368 16.4747 54.3316 14.3575 54.8264 12.2404C54.9805 11.5833 55.1428 10.9263 55.2888 10.2693C55.3375 10.034 55.4348 9.93669 55.6944 9.93669C56.319 9.95291 56.9354 9.95291 57.56 9.93669C57.8277 9.92858 57.9251 9.99347 57.8521 10.2774C57.1788 13.0759 56.5055 15.8663 55.8404 18.6648C55.7836 18.9 55.67 18.9649 55.4429 18.9568C55.1347 18.9487 54.8264 18.9568 54.5182 18.9568Z" fill="#5B5B5B"/>
<path d="M57.0247 8.83342C56.1729 8.83342 55.6132 8.32239 55.6132 7.5599C55.6132 6.64329 56.4325 5.83212 57.3572 5.83212C58.1927 5.82401 58.7687 6.35127 58.7605 7.12187C58.7605 8.0466 57.9656 8.82531 57.0247 8.83342Z" fill="#5B5B5B"/>
<path d="M30.5565 7.12971C30.5484 8.22477 29.4776 9.06027 28.4069 8.79259C27.6687 8.60602 27.3199 8.05443 27.4497 7.25949C27.6201 6.18065 28.8936 5.5155 29.8832 5.99408C30.3537 6.22121 30.5646 6.57001 30.5565 7.12971Z" fill="#5B5B5B"/>
<path d="M10.7236 12.5724C11.4455 13.2294 11.5672 13.6756 11.2589 14.4381C10.9588 15.1681 10.4397 15.4682 9.5555 15.4682C9.26348 15.4682 8.91468 15.2411 8.70378 15.4682C8.53344 15.6548 8.51722 15.9874 8.46043 16.2632C8.40365 16.5309 8.26576 16.5795 8.03052 16.4984C7.81962 16.4335 7.58438 16.4092 7.70605 16.0847C7.77095 15.8981 7.79528 15.6872 7.86017 15.5007C7.94129 15.2654 7.86017 15.1681 7.62494 15.0951C7.37348 15.0221 7.30859 15.1519 7.26803 15.3466C7.23558 15.5007 7.19502 15.6629 7.15446 15.817C7.04901 16.2226 6.83 16.3118 6.45687 16.1009C6.37575 16.0523 6.3433 15.9955 6.35142 15.9063C6.35953 15.8414 6.37575 15.7765 6.38386 15.7035C6.57854 14.8112 6.57854 14.8112 5.67815 14.5922C5.55648 14.5597 5.44292 14.5354 5.32935 14.5029C5.26446 14.4867 5.19957 14.4705 5.17523 14.3894C5.09412 14.1055 5.53214 13.6026 5.80794 13.6918C6.20541 13.8135 6.3433 13.635 6.42442 13.2862C6.65155 12.3371 6.89489 11.3962 7.12202 10.4553C7.23558 10.001 7.16258 9.86311 6.70833 9.75766C6.37575 9.68465 6.31086 9.55487 6.39197 9.22229C6.47309 8.88971 6.62721 8.84104 6.91112 8.9465C6.92734 8.95461 6.93545 8.95461 6.95167 8.95461C7.28425 9.0195 7.64116 9.26285 7.92507 9.13306C8.20086 9.00328 8.15219 8.55714 8.23331 8.25701C8.32254 7.93254 8.52533 8.05422 8.71189 8.09478C8.91468 8.13533 9.07692 8.19212 8.97958 8.46791C8.91468 8.65448 8.88224 8.86538 8.83357 9.06006C8.77679 9.25474 8.80112 9.39263 9.03636 9.45753C9.27971 9.52242 9.39327 9.44941 9.43383 9.21418C9.45816 9.05195 9.51494 8.89783 9.54739 8.74371C9.59606 8.48413 9.66906 8.33001 9.99353 8.41924C10.2937 8.50036 10.3829 8.62203 10.3018 8.93027C10.1071 9.67654 10.1071 9.70899 10.7804 10.0497C11.7943 10.5607 11.8998 11.964 10.7236 12.5724Z" fill="#FEFEFE"/>
<path d="M24.6593 12.0942C24.2619 10.553 23.0938 9.70132 21.4877 9.7581C21.0659 9.77432 20.6846 9.92033 20.2223 10.0177C20.5792 8.52513 20.928 7.08126 21.2768 5.64551C21.1389 5.64551 21.0091 5.64551 20.8712 5.64551C20.709 5.79152 20.49 5.76718 20.3034 5.79963C19.8491 5.88074 19.3949 5.95375 18.9406 6.01053C18.7054 6.03487 18.5918 6.1322 18.5351 6.36744C17.6022 10.3259 16.6613 14.2763 15.7203 18.2266C15.6635 18.47 15.7284 18.5673 15.9475 18.6484C17.3994 19.1676 18.892 19.3785 20.4088 19.0459C23.4994 18.3807 25.4543 15.1442 24.6593 12.0942ZM21.4715 15.9959C20.8307 16.8233 19.987 17.1721 18.9488 17.0829C18.673 17.0586 18.5675 16.9693 18.6405 16.6773C18.9812 15.3146 19.3057 13.9518 19.6301 12.5809C19.6869 12.3457 19.8086 12.1997 20.0195 12.1024C20.4575 11.8915 20.928 11.8347 21.3985 11.9158C21.7554 11.9807 21.9906 12.2078 22.1285 12.5485C22.2583 12.8973 22.2907 13.2542 22.2907 13.6273C22.2826 14.5115 22.0068 15.3064 21.4715 15.9959Z" fill="#5B5B5B"/>
<path d="M52.9526 12.6539C52.7417 11.3236 52.1171 10.3015 50.7706 9.89594C49.4971 9.51469 48.2479 9.62014 47.1041 10.3421C45.2304 11.5183 44.4841 13.3109 44.4111 15.4443C44.4111 15.6309 44.403 15.8255 44.4111 16.0121C44.5165 17.4884 45.3439 18.6322 46.6337 19.0053C47.9072 19.3703 49.1564 19.2567 50.3082 18.5754C52.1901 17.456 53.3095 14.9333 52.9526 12.6539ZM49.3997 16.5069C49.2051 16.7178 48.9617 16.8638 48.6859 16.953C47.7855 17.237 47.1609 16.8719 46.9825 15.9553C46.9338 15.7201 46.9176 15.4767 46.9014 15.3307C46.9257 14.3411 47.1285 13.4975 47.6638 12.7593C48.0775 12.1753 48.6129 11.8184 49.3754 11.8833C49.8459 11.9238 50.1866 12.151 50.3001 12.5971C50.6895 14.0491 50.4137 15.3713 49.3997 16.5069Z" fill="#5B5B5B"/>
<path d="M8.76057 14.3815C8.55778 14.341 8.2252 14.2761 7.89262 14.2112C7.68172 14.1706 7.59249 14.0814 7.65739 13.8462C7.75473 13.4974 7.83584 13.1405 7.92507 12.7835C7.97374 12.5645 8.09541 12.5078 8.31443 12.5645C8.63889 12.6538 8.97147 12.7349 9.2716 12.8809C9.77452 13.1242 9.9692 13.4568 9.84752 13.8624C9.74207 14.2193 9.39327 14.4059 8.76057 14.3815Z" fill="#AAAAAA"/>
<path d="M9.23102 11.9566C8.22518 11.916 8.16029 11.8349 8.40364 10.8615C8.55776 10.2369 8.55776 10.2369 9.17424 10.4235C9.31214 10.4641 9.45814 10.5208 9.58793 10.5776C10.0097 10.7804 10.1801 11.0643 10.0909 11.4375C10.0097 11.7781 9.68527 11.9728 9.23102 11.9566Z" fill="#AAAAAA"/>
</svg>
