<svg width="24" height="24" viewBox="0 0 24 24" fill="none" xmlns="http://www.w3.org/2000/svg">
<path d="M21.6017 6.96226L12.353 10C12.215 10 11.9389 10 11.8008 10L2.41412 6.96226C1.86196 6.83019 1.86196 6.30189 2.41412 6.03774L11.6628 3C11.8008 3 12.0769 3 12.215 3L21.4637 6.03774C22.1539 6.30189 22.1539 6.83019 21.6017 6.96226Z" fill="#4C4944"/>
<path d="M11.8611 12.027L5.88889 10C5.75 10 5.47222 10 5.33333 10L2.41667 10.9459C1.86111 11.0811 1.86111 11.7568 2.41667 11.8919L11.7222 15C11.8611 15 12.1389 15 12.2778 15L21.5833 11.8919C22.1389 11.7568 22.1389 11.0811 21.5833 10.9459L18.9444 10C18.8056 10 18.5278 10 18.3889 10L12.4167 12.027C12.2778 12.027 12.1389 12.027 11.8611 12.027Z" fill="#4C4944"/>
<path d="M11.8611 17.4324L5.88889 15C5.75 15 5.47222 15 5.33333 15L2.41667 16.1351C1.86111 16.2973 1.86111 17.1081 2.41667 17.2703L11.7222 21C11.8611 21 12.1389 21 12.2778 21L21.5833 17.2703C22.1389 17.1081 22.1389 16.2973 21.5833 16.1351L18.9444 15C18.8056 15 18.5278 15 18.3889 15L12.4167 17.4324C12.2778 17.4324 12.1389 17.4324 11.8611 17.4324Z" fill="#4C4944"/>
</svg>
