<svg width="27" height="21" viewBox="0 0 27 21" fill="none" xmlns="http://www.w3.org/2000/svg">
<path d="M10.6264 0C10.035 0 9.37361 0.521463 9.37361 1.25278V6.25119C9.37361 6.9062 9.97138 7.50397 10.6264 7.50397H12.2607V9.13832H4.00636C3.33863 9.13832 2.75994 9.68521 2.75358 10.3911V12.5087H1.25278C0.661367 12.5087 0 13.0302 0 13.7615V18.7599C0 19.4149 0.597774 20.0127 1.25278 20.0127H6.25119C6.9062 20.0127 7.50397 19.4149 7.50397 18.7599V13.7615C7.50397 13.1065 6.9062 12.5087 6.25119 12.5087H4.74404V10.8744H12.2544V12.5087H10.62C10.0286 12.5087 9.36725 13.0302 9.36725 13.7615V18.7599C9.36725 19.4149 9.96502 20.0127 10.62 20.0127H15.6184C16.2735 20.0127 16.8712 19.4149 16.8712 18.7599V13.7615C16.8712 13.1065 16.2735 12.5087 15.6184 12.5087H13.9841V10.8744H21.4944V12.5087H19.9873C19.3959 12.5087 18.7345 13.0302 18.7345 13.7615V18.7599C18.7345 19.4149 19.3323 20.0127 19.9873 20.0127H24.9857C25.6407 20.0127 26.2385 19.4149 26.2385 18.7599V13.7615C26.2385 13.1065 25.6407 12.5087 24.9857 12.5087H23.4785V10.3911C23.4785 9.73609 22.8808 9.13832 22.2258 9.13832H13.9968V7.50397H15.6312C16.2862 7.50397 16.8839 6.9062 16.8839 6.25119V1.25278C16.8776 0.597774 16.2798 0 15.6248 0H10.6264ZM11.2496 1.87599H15.0016V5.62798H11.2496V1.87599ZM1.87599 14.3784H5.62798V18.1304H1.87599V14.3784ZM11.2496 14.3784H15.0016V18.1304H11.2496V14.3784ZM20.6232 14.3784H24.3752V18.1304H20.6232V14.3784Z" fill="#4C4944"/>
</svg>
