<svg width="44" height="44" viewBox="0 0 44 44" fill="none" xmlns="http://www.w3.org/2000/svg">
<path d="M21.5506 9.00439C14.3844 9.00439 8.55835 14.829 8.55835 21.9952C8.55835 29.153 14.3844 34.9869 21.5506 34.9869C28.7182 34.9869 34.5428 29.1525 34.5428 21.9952C34.5428 14.829 28.7182 9.00439 21.5506 9.00439ZM21.5506 32.7815C15.6091 32.7815 10.7642 27.9479 10.7642 21.9952C10.7642 16.0537 15.5993 11.2098 21.5506 11.2098C27.5018 11.2098 32.3369 16.0532 32.3369 21.9952C32.3369 27.9381 27.4935 32.7815 21.5506 32.7815Z" fill="#979085"/>
<path d="M42.4021 23.7786L41.6189 22.6981C41.2503 22.1936 41.241 21.5013 41.6106 20.988L42.3753 19.8983C42.9781 19.0427 43.1941 17.9623 42.9521 16.9356C42.7087 15.9089 42.0428 15.0368 41.1149 14.5415L39.944 13.9113C39.3852 13.6141 39.0894 13.002 39.1882 12.3801L39.4126 11.066C39.5837 10.03 39.305 8.96769 38.648 8.1488C37.9821 7.32893 36.9994 6.83467 35.9561 6.7892L34.6229 6.73542C33.9928 6.70804 33.4516 6.28418 33.2814 5.68138L32.8947 4.41124C32.4445 2.85364 30.9944 1.76489 29.3649 1.76489C28.8697 1.76489 28.3745 1.86413 27.9149 2.06213L26.6902 2.58378C26.1231 2.82724 25.4299 2.67471 25.0251 2.21516L24.1338 1.22467C23.4411 0.449778 22.4423 0 21.4073 0C20.344 0 19.3364 0.459556 18.6333 1.26036L17.769 2.26893C17.3642 2.7368 16.6793 2.89911 16.1038 2.66542L14.8699 2.16187C14.4201 1.98147 13.9522 1.88271 13.4746 1.88271C11.8275 1.88271 10.3687 2.99053 9.93552 4.58382L9.58449 5.87058C9.42218 6.47436 8.88245 6.90653 8.25227 6.94222L6.92836 7.02338C5.8841 7.07716 4.9029 7.59049 4.25463 8.41867C3.60538 9.24684 3.3453 10.319 3.53352 11.3452L3.77698 12.651C3.89383 13.2719 3.59658 13.8937 3.04756 14.1993L1.88645 14.8476C0.96734 15.3609 0.310762 16.2428 0.0853843 17.2695C-0.139993 18.2962 0.0853845 19.3761 0.707251 20.2224L1.49045 21.294C1.85907 21.7991 1.86885 22.4913 1.49876 23.0042L0.733651 24.0939C0.130851 24.95 -0.0852378 26.0299 0.157251 27.0566C0.400718 28.0832 1.06658 28.9559 1.99401 29.4507L3.1649 30.0808C3.7237 30.3781 4.01947 30.9902 3.92023 31.612L3.69583 32.9262C3.52521 33.9607 3.80338 35.0245 4.46094 35.8434C5.12681 36.6632 6.10947 37.1575 7.15227 37.2025L8.48547 37.2563C9.11565 37.2836 9.65636 37.7065 9.82698 38.3098L10.1956 39.5883C10.6454 41.1459 12.0959 42.2356 13.7249 42.2356C14.2201 42.2356 14.7154 42.1368 15.1749 41.9384L16.3981 41.4162C16.9662 41.1737 17.66 41.3263 18.0643 41.7858L18.956 42.7753C19.6517 43.5502 20.6505 44 21.6855 44C22.7488 44 23.7564 43.5414 24.4594 42.7396L25.3316 41.7311C25.7374 41.2632 26.4213 41.1009 26.9977 41.3346L28.2307 41.8391C28.6805 42.019 29.1498 42.1183 29.627 42.1183C31.2741 42.1183 32.7329 41.0104 33.1646 39.4172L33.5156 38.1294C33.6779 37.5266 34.2186 37.0949 34.8488 37.0578L36.181 36.9776C37.2351 36.9145 38.207 36.4095 38.8548 35.5818C39.504 34.7532 39.7641 33.6913 39.5759 32.6563L39.3324 31.3505C39.2156 30.7286 39.5128 30.1077 40.0618 29.8022L41.2229 29.1529C42.1421 28.6401 42.7986 27.7576 43.0245 26.7315C43.2499 25.7048 43.0245 24.6248 42.4021 23.7786ZM40.8719 26.2538C40.7825 26.6684 40.5209 27.0106 40.1523 27.2184L38.9912 27.8667C37.613 28.6313 36.8753 30.1889 37.1627 31.7372L37.4062 33.043C37.4873 33.4669 37.3788 33.881 37.1187 34.2139C36.8572 34.5473 36.4788 34.7453 36.0471 34.7717L34.7232 34.8529C33.1475 34.9438 31.806 36.0238 31.3924 37.5457L31.0413 38.8241C30.8702 39.4626 30.2845 39.9041 29.628 39.9041C29.4378 39.9041 29.2496 39.8684 29.0692 39.7965L27.8352 39.292C27.3849 39.1116 26.9171 39.0124 26.4399 39.0124C25.3776 39.0124 24.3695 39.4719 23.6674 40.2727L22.7938 41.2735C22.5146 41.5966 22.1181 41.7765 21.686 41.7765C21.2636 41.7765 20.8754 41.6059 20.5972 41.2911L19.7055 40.3006C19.0122 39.5262 18.0129 39.0759 16.9687 39.0759C16.4637 39.0759 15.9782 39.1747 15.5186 39.3732L14.294 39.8943C14.1053 39.9755 13.917 40.0126 13.7185 40.0126C13.0693 40.0126 12.4939 39.579 12.3135 38.9586L11.9449 37.6801C11.5034 36.168 10.1521 35.1047 8.57641 35.0333L7.24418 34.9795C6.82032 34.9619 6.43361 34.7717 6.17254 34.4388C5.90267 34.1059 5.79561 33.6923 5.86698 33.2777L6.09138 31.9636C6.35294 30.4055 5.59712 28.866 4.20085 28.1189L3.03094 27.4888C2.65254 27.2908 2.39098 26.948 2.29223 26.534C2.19347 26.1199 2.27414 25.697 2.52641 25.3548L3.29152 24.265C4.20085 22.9788 4.19254 21.2588 3.25583 19.9804L2.47263 18.9088C2.22085 18.566 2.12992 18.1436 2.22916 17.7296C2.3201 17.3155 2.58116 16.9728 2.95027 16.7664L4.11138 16.1182C5.48858 15.3531 6.22778 13.7955 5.93885 12.2462L5.70467 10.9501C5.62352 10.5263 5.73205 10.1122 5.99214 9.77924C6.2537 9.44631 6.6321 9.24831 7.06378 9.22191L8.3877 9.14076C9.96338 9.04982 11.2951 7.96987 11.719 6.44796L12.07 5.1612C12.2406 4.52124 12.8268 4.07978 13.4834 4.07978C13.6731 4.07978 13.8618 4.11693 14.0422 4.18831L15.2761 4.69187C15.7259 4.87227 16.1938 4.97102 16.6714 4.97102C17.7338 4.97102 18.7424 4.51147 19.4439 3.71067L20.3176 2.71187C20.5967 2.38724 20.9932 2.20684 21.4254 2.20684C21.8478 2.20684 22.236 2.37893 22.5141 2.69378L23.4054 3.68329C24.0991 4.45769 25.0979 4.90796 26.1427 4.90796C26.6472 4.90796 27.1332 4.80871 27.5927 4.61071L28.8174 4.08907C29.0061 4.00791 29.1943 3.97222 29.3928 3.97222C30.0421 3.97222 30.6175 4.4044 30.7979 5.0248L31.1665 6.30422C31.608 7.81636 32.9593 8.87871 34.5349 8.95058L35.8672 9.00533C36.291 9.02342 36.6777 9.21164 36.9476 9.54507C37.2185 9.878 37.3255 10.2921 37.2541 10.7062L37.0288 12.0213C36.7672 13.5789 37.524 15.1174 38.9193 15.8659L40.0902 16.4961C40.4686 16.6931 40.7292 17.0358 40.8279 17.4499C40.9272 17.864 40.847 18.2879 40.6035 18.6291L39.8389 19.7188C38.9296 21.0066 38.9374 22.7255 39.8746 24.0054L40.6578 25.0756C40.8719 25.4173 40.9629 25.8397 40.8719 26.2538Z" fill="#979085"/>
<path d="M24.7469 18.4218L19.9211 23.2198L18.3537 21.6441C17.9216 21.2119 17.2283 21.2119 16.7961 21.6441C16.3639 22.0763 16.3639 22.7695 16.7878 23.2022L19.1379 25.5616C19.3442 25.7679 19.6239 25.8852 19.9211 25.8852C20.2086 25.8852 20.4882 25.7679 20.6955 25.5616L26.3045 19.9878C26.7367 19.5556 26.7367 18.8623 26.3143 18.4302C25.8821 17.998 25.1791 17.998 24.7469 18.4218Z" fill="#979085"/>
</svg>
