<svg width="26" height="20" viewBox="0 0 26 20" fill="none" xmlns="http://www.w3.org/2000/svg">
<path fill-rule="evenodd" clip-rule="evenodd" d="M22.404 16.6887V13.4106H19.6026C19.245 13.4106 18.947 13.1126 18.947 12.755V9.11921C18.947 8.76159 19.245 8.46358 19.6026 8.46358H22.3444V5.36424H7.68212C7.2053 5.36424 6.72848 5.24503 6.31126 5.00662V7H5V2.68212C5 1.19205 6.19205 0 7.68212 0H20.7351C21.0927 0 21.3907 0.298013 21.3907 0.655629V3.99338H23C23.4172 3.99338 23.7152 4.29139 23.7152 4.64901V8.46358H24.6689C25.0265 8.46358 25.3245 8.76159 25.3245 9.11921V12.755C25.3245 13.1126 25.0265 13.4106 24.6689 13.4106H23.7152V17.3444C23.7152 17.702 23.4172 18 23.0596 18H11V16.6887H22.404ZM7.68212 3.99338H20.0795V1.31126H7.68212C6.90728 1.31126 6.31126 1.90728 6.31126 2.68212C6.31126 3.39735 6.90728 3.99338 7.68212 3.99338ZM20.2583 12.0993H23.9536V9.77483H20.2583V12.0993Z" fill="#4C4944"/>
<path d="M1.649 20.0001V17.0931H0.255005V15.7671H1.649V7.86206H5.11701C6.63567 7.86206 7.78034 8.08873 8.55101 8.54206C9.33301 8.98406 9.72401 9.76039 9.72401 10.8711C9.72401 11.5851 9.52567 12.1801 9.129 12.6561C8.73234 13.1207 8.16001 13.4211 7.41201 13.5571V13.6421C7.92201 13.7214 8.38101 13.8687 8.78901 14.0841C9.20834 14.2994 9.53701 14.6054 9.77501 15.0021C10.013 15.3987 10.132 15.9144 10.132 16.5491C10.132 17.6484 9.75234 18.4984 8.99301 19.0991C8.24501 19.6997 7.21934 20.0001 5.91601 20.0001H1.649ZM3.179 13.0301H5.42301C6.46567 13.0301 7.17967 12.8657 7.56501 12.5371C7.95034 12.1971 8.14301 11.6984 8.14301 11.0411C8.14301 10.3724 7.90501 9.89639 7.42901 9.61306C6.96434 9.31839 6.21634 9.17106 5.18501 9.17106H3.179V13.0301ZM3.179 18.7081H5.62701C6.70367 18.7081 7.45167 18.4984 7.87101 18.0791C8.29034 17.6597 8.5 17.1101 8.5 16.4301C8.5 15.7954 8.279 15.2854 7.83701 14.9001C7.40634 14.5034 6.63 14.3051 5.508 14.3051H3.179V15.7671H5.695V17.0931H3.179V18.7081Z" fill="#979085"/>
</svg>
