<svg width="23" height="20" viewBox="0 0 23 20" fill="none" xmlns="http://www.w3.org/2000/svg">
<path d="M10.8505 1L20.1715 16.1942C20.989 17.5268 20.0301 19.24 18.4667 19.24H3.51948C1.9677 19.24 1.00707 17.5495 1.80127 16.2164L8.816 4.44151" stroke="#4C4944" stroke-width="1.5" stroke-linecap="round"/>
<path d="M11.2383 14.4863H10.0137L9.87891 8.46875H11.3789L11.2383 14.4863ZM9.83789 16.3262C9.83789 16.1035 9.91016 15.9199 10.0547 15.7754C10.1992 15.627 10.3965 15.5527 10.6465 15.5527C10.8965 15.5527 11.0938 15.627 11.2383 15.7754C11.3828 15.9199 11.4551 16.1035 11.4551 16.3262C11.4551 16.541 11.3848 16.7207 11.2441 16.8652C11.1035 17.0098 10.9043 17.082 10.6465 17.082C10.3887 17.082 10.1895 17.0098 10.0488 16.8652C9.9082 16.7207 9.83789 16.541 9.83789 16.3262Z" fill="#4C4944"/>
</svg>
