<svg width="37" height="44" viewBox="0 0 37 44" fill="none" xmlns="http://www.w3.org/2000/svg">
<g clip-path="url(#clip0)">
<path d="M34.1725 26.0122C33.6845 26.0122 33.2914 26.4053 33.2914 26.8933V41.0178C33.2914 41.6955 32.7492 42.2377 32.0715 42.2377H2.98213C2.30437 42.2377 1.76217 41.6955 1.76217 41.0178V26.8933C1.76217 26.4053 1.36907 26.0122 0.881084 26.0122C0.393099 26.0122 0 26.4053 0 26.8933V41.0178C0 42.6579 1.3284 43.9999 2.98213 43.9999H32.0715C33.7116 43.9999 35.0536 42.6715 35.0536 41.0178V26.8933C35.0536 26.4053 34.6605 26.0122 34.1725 26.0122Z" fill="#979085"/>
<path d="M0.881084 6.26248C1.36907 6.26248 1.76217 5.86938 1.76217 5.38139V2.98213C1.76217 2.30437 2.30437 1.76217 2.98213 1.76217H32.0715C32.7492 1.76217 33.2914 2.30437 33.2914 2.98213V5.38139C33.2914 5.86938 33.6845 6.26248 34.1725 6.26248C34.6605 6.26248 35.0536 5.86938 35.0536 5.38139V2.98213C35.0536 1.34196 33.7252 0 32.0715 0H2.98213C1.3284 0 0 1.3284 0 2.98213V5.38139C0 5.85582 0.393099 6.26248 0.881084 6.26248Z" fill="#979085"/>
<path d="M32.7897 9.90869H29.7534C29.2247 9.90869 28.8588 10.2882 28.8588 10.8033V15.0054H27.815C27.3677 15.0054 27.0288 15.3308 27.0288 15.7781C27.0288 16.2254 27.3677 16.5507 27.815 16.5507H28.8588V17.4725H27.815C27.3677 17.4725 27.0288 17.7978 27.0288 18.2451C27.0288 18.6924 27.3677 19.0178 27.815 19.0178H28.8588V20.0479C28.8588 20.5495 29.2383 20.929 29.7263 20.929C30.2143 20.929 30.5938 20.5495 30.5938 20.0479V19.0178H31.6376C32.0849 19.0178 32.4238 18.6924 32.4238 18.2451C32.4238 17.7978 32.0849 17.4725 31.6376 17.4725H30.5938V16.5643H32.7897C34.9721 16.5643 36.4632 15.2088 36.4632 13.2433C36.4632 11.2371 34.9857 9.90869 32.7897 9.90869ZM32.7762 15.0054H30.5938V11.454H32.7762C33.9555 11.454 34.6739 12.1453 34.6739 13.2433C34.6739 14.3412 33.9555 15.0054 32.7762 15.0054Z" fill="#979085"/>
<path d="M8.74306 19.6413C8.74306 19.0719 8.29574 18.6382 7.69931 18.6382H4.3783L5.86937 17.3776C7.68576 15.8729 8.36352 14.7479 8.36352 13.3788C8.36352 11.3997 6.8589 9.96289 4.7714 9.96289C2.87368 9.96289 1.38262 11.1557 1.09796 12.823C1.04374 13.1212 1.03018 13.4059 1.07085 13.6228C1.12507 14.2463 1.55883 14.6665 2.14171 14.6665C2.69747 14.6665 3.13123 14.3005 3.21256 13.7312C3.22612 13.5821 3.26678 13.433 3.28034 13.2703C3.38878 12.457 3.94454 11.9555 4.73074 11.9555C5.61182 11.9555 6.18114 12.5655 6.18114 13.5008C6.18114 14.3548 5.78804 14.9918 4.60874 15.9949L1.39617 18.7195C1.09796 18.9771 0.948853 19.2753 0.948853 19.6142C0.948853 20.197 1.42328 20.685 2.01971 20.685L7.72642 20.6715C8.3093 20.6715 8.74306 20.2377 8.74306 19.6413Z" fill="#979085"/>
<path d="M11.6573 17.8926C10.8034 17.8926 10.1663 18.5568 10.1663 19.3701C10.1663 20.197 10.8034 20.8476 11.6573 20.8476C12.4977 20.8476 13.1213 20.197 13.1213 19.3701C13.1213 18.5703 12.4977 17.8926 11.6573 17.8926Z" fill="#979085"/>
<path d="M20.3597 15.2224C21.3493 14.6531 21.9321 13.8533 21.9321 12.7554C21.9321 10.9525 20.4004 9.97656 18.462 9.97656C16.5236 9.97656 14.9919 10.9661 14.9919 12.7554C14.9919 13.8669 15.6019 14.6531 16.5778 15.2224C15.3308 15.7104 14.5039 16.5644 14.5039 17.8657C14.5039 19.7092 16.1576 20.8613 18.4485 20.8613C20.7393 20.8613 22.3794 19.7227 22.3794 17.8657C22.393 16.5508 21.5526 15.7239 20.3597 15.2224ZM18.462 11.7116C19.2753 11.7116 19.926 12.1318 19.926 12.8367C19.926 13.5416 19.3566 13.9076 18.462 14.3142C17.5674 13.894 16.9981 13.528 16.9981 12.8503C16.9981 12.1183 17.6351 11.7116 18.462 11.7116ZM18.462 19.1127C17.2692 19.1127 16.6592 18.557 16.6592 17.7979C16.6592 16.9575 17.3912 16.5372 18.462 16.1441C19.5329 16.5237 20.2648 16.9439 20.2648 17.7979C20.2648 18.5434 19.6684 19.1127 18.462 19.1127Z" fill="#979085"/>
<path d="M11.6981 35.3787C11.8608 35.5955 12.1048 35.704 12.3894 35.704C12.9045 35.704 13.3112 35.2838 13.3112 34.7822C13.3112 34.5654 13.2434 34.362 13.0672 34.1587L11.0068 31.5832L12.8774 29.6177C13.0672 29.428 13.1756 29.1704 13.1756 28.94C13.1756 28.4384 12.769 28.0453 12.2539 28.0318C11.9828 28.0182 11.7523 28.1402 11.5761 28.33L9.24464 30.8377C8.9871 31.1224 8.89221 31.3392 8.89221 31.5832C8.89221 31.8001 8.9871 32.0305 9.19043 32.3016L11.6981 35.3787Z" fill="#979085"/>
<path d="M6.56067 29.0353V34.6878C6.56067 35.2707 6.99443 35.718 7.56375 35.718C8.13307 35.718 8.55328 35.2707 8.55328 34.6878V29.0353C8.55328 28.4524 8.13307 28.0322 7.56375 28.0322C6.99443 28.0322 6.56067 28.4524 6.56067 29.0353Z" fill="#979085"/>
<path d="M18.3943 28.1948H15.9408C15.3444 28.1948 14.9106 28.6421 14.9106 29.2115V34.5115C14.9106 35.1079 15.3444 35.5282 15.9408 35.5282H18.8959C20.4276 35.5282 21.512 34.6064 21.512 33.3051C21.512 32.546 21.1325 31.9496 20.414 31.6107C20.7936 31.2583 21.0105 30.7839 21.0105 30.2281C21.0105 29.0081 19.9667 28.1948 18.3943 28.1948ZM16.8355 29.7943H18.3537C18.8823 29.7943 19.1534 29.9977 19.1534 30.4043C19.1534 30.8245 18.8552 31.0414 18.3537 31.0414H16.8355V29.7943ZM18.7332 33.9151H16.8355V32.4511H18.7332C19.3161 32.4511 19.6685 32.7222 19.6685 33.1696C19.6685 33.6169 19.3161 33.9151 18.7332 33.9151Z" fill="#979085"/>
<path d="M25.416 35.7178C25.9989 35.7178 26.4056 35.2705 26.4056 34.6876V29.862H27.9915C28.493 29.862 28.8455 29.5096 28.8455 29.0216C28.8455 28.5471 28.493 28.1812 27.9915 28.1812H22.8405C22.3526 28.1812 21.9866 28.5471 21.9866 29.0216C21.9866 29.5096 22.3526 29.862 22.8405 29.862H24.4129V34.6876C24.4129 35.2705 24.8467 35.7178 25.416 35.7178Z" fill="#979085"/>
</g>
<defs>
<clipPath id="clip0">
<rect width="36.4633" height="44" fill="white"/>
</clipPath>
</defs>
</svg>
