<svg width="44" height="44" viewBox="0 0 44 44" fill="none" xmlns="http://www.w3.org/2000/svg">
<path d="M35.1416 20.3536L30.9204 33.0173C30.8225 33.3086 30.6319 33.5597 30.3778 33.7325C30.1238 33.9053 29.8201 33.9901 29.5133 33.9741H15.4425C15.1211 33.9835 14.8061 33.8825 14.5501 33.6879C14.2941 33.4933 14.1124 33.2169 14.0354 32.9047L10.1237 17.0892H8.40708C8.0339 17.0892 7.676 16.9409 7.41212 16.677C7.14825 16.4132 7 16.0553 7 15.6821C7 15.3089 7.14825 14.951 7.41212 14.6871C7.676 14.4233 8.0339 14.275 8.40708 14.275H11.2212C11.5427 14.2656 11.8576 14.3667 12.1136 14.5612C12.3696 14.7558 12.5513 15.0322 12.6283 15.3444L16.54 31.16H28.5002L32.3978 19.4531C32.4569 19.2775 32.55 19.1153 32.6719 18.9758C32.7937 18.8362 32.9418 18.7221 33.1077 18.6397C33.2736 18.5574 33.4542 18.5086 33.639 18.496C33.8238 18.4835 34.0092 18.5075 34.1848 18.5666C34.3603 18.6257 34.5225 18.7189 34.662 18.8407C34.8016 18.9625 34.9158 19.1106 34.9981 19.2765C35.0804 19.4424 35.1292 19.623 35.1418 19.8078C35.1543 19.9926 35.1304 20.1781 35.0712 20.3536H35.1416ZM21.5492 26.5307C21.683 26.6588 21.8408 26.7592 22.0135 26.8262C22.182 26.9006 22.3641 26.9391 22.5482 26.9391C22.7324 26.9391 22.9145 26.9006 23.0829 26.8262C23.2556 26.7592 23.4134 26.6588 23.5473 26.5307L27.7685 22.3094C28.0335 22.0445 28.1823 21.6851 28.1823 21.3104C28.1823 20.9357 28.0335 20.5763 27.7685 20.3114C27.5035 20.0464 27.1442 19.8976 26.7695 19.8976C26.3948 19.8976 26.0354 20.0464 25.7704 20.3114L23.885 22.1406V15.6821C23.885 15.3089 23.7367 14.951 23.4728 14.6871C23.209 14.4233 22.8511 14.275 22.4779 14.275C22.1047 14.275 21.7468 14.4233 21.4829 14.6871C21.219 14.951 21.0708 15.3089 21.0708 15.6821V22.1406L19.2557 20.3114C18.9907 20.0464 18.6313 19.8976 18.2566 19.8976C17.8819 19.8976 17.5226 20.0464 17.2576 20.3114C16.9927 20.5763 16.8438 20.9357 16.8438 21.3104C16.8438 21.6851 16.9927 22.0445 17.2576 22.3094L21.5492 26.5307Z" fill="#979085"/>
<circle cx="22" cy="22" r="21" stroke="#979085" stroke-width="2"/>
</svg>
