<svg width="28" height="25" viewBox="0 0 28 25" fill="none" xmlns="http://www.w3.org/2000/svg">
<path d="M14 25C13.7673 24.9638 13.5415 24.9078 13.377 24.7422L9.32575 20.6897H2.18663C0.980875 20.6897 0 19.7233 0 18.5362V2.15431C0 0.966379 0.980875 0 2.18663 0H25.8143C27.0191 0 28 0.966379 28 2.15431V18.5362C28 19.7233 27.0191 20.6897 25.8143 20.6897H18.7372L14.6186 24.7474C14.455 24.9095 14.2319 25 14 25ZM2.18663 1.72414C1.946 1.72414 1.75 1.91724 1.75 2.15431V18.5362C1.75 18.7724 1.946 18.9655 2.18663 18.9655H9.69238C9.92688 18.9655 10.1509 19.0578 10.3154 19.2233L14.0044 22.9138L17.7564 19.2181C17.92 19.056 18.1423 18.9655 18.375 18.9655H25.8143C26.054 18.9655 26.25 18.7724 26.25 18.5362V2.15431C26.25 1.91724 26.054 1.72414 25.8143 1.72414H2.18663Z" fill="#4C4944"/>
<path d="M13.9457 15.5172C14.429 15.5172 14.8207 15.1313 14.8207 14.6552C14.8207 14.1791 14.429 13.7931 13.9457 13.7931C13.4625 13.7931 13.0707 14.1791 13.0707 14.6552C13.0707 15.1313 13.4625 15.5172 13.9457 15.5172Z" fill="#4C4944"/>
<path d="M13.9456 12.9308C13.4626 12.9308 13.0706 12.5446 13.0706 12.0688C13.0706 10.9213 14.1004 10.0481 15.1076 9.34461C15.4208 9.12565 15.7664 8.40065 15.5731 7.80582C15.3814 7.21875 14.6237 6.86875 14.0016 6.86875H14.0007C13.3182 6.86875 12.4712 7.18168 12.1413 8.05754C11.9724 8.5041 11.4676 8.72996 11.0161 8.5653C10.5619 8.40065 10.3318 7.9041 10.4998 7.45841C11.0292 6.0541 12.4029 5.14547 13.9998 5.14547H14.0016C15.2651 5.14547 16.7832 5.87823 17.2399 7.27996C17.6809 8.63427 17.0019 10.1369 16.1199 10.7524C14.9474 11.5705 14.8214 11.9463 14.8214 12.0696C14.8206 12.5446 14.4286 12.9308 13.9456 12.9308Z" fill="#4C4944"/>
</svg>
