<svg width="131" height="26" viewBox="0 0 131 26" fill="none" xmlns="http://www.w3.org/2000/svg">
<g clip-path="url(#clip0)">
<path d="M10.9 24.1H8.30003V0.400024H3.05176e-05V5.10002H4.40003V4.00002H1.10003V1.50002H7.10003V25.2H12.1V1.50002H18V4.00002H14.7V5.10002H19.2V0.400024H10.9V24.1Z" fill="black"/>
<path d="M66.5 14.2L66.2 13.8H66.5H66.6C69.1 13.3 70.5 11.5 70.5 8.80005C70.5 5.90005 68.3 4.00005 65 4.00005H59.3V10.4H60.4V5.10005H64.9C67.6 5.10005 69.2 6.50005 69.2 8.80005C69.2 12.1 66.7 12.8 64.7 12.8H63.6L73.4 24H70.2L60.5 12.9L60.4 12.8H59.1V24H56.4V1.50005H64.5C69.6 1.50005 72.9 4.40005 72.9 8.80005C72.9 11.5 71.9 13.6 69.8 14.9L70 15.1L70.7 16L70.8 15.9C73.1 14.5 74.4 11.9 74.4 8.80005C74.4 6.40005 73.5 4.30005 71.9 2.80005C70.2 1.20005 67.7 0.300049 64.8 0.300049H55.6V25.1H60.6V14.7L69.8 25.2001L69.9 25.3H76.2L66.5 14.2Z" fill="black"/>
<path d="M98 14.9C98 17.3 97.4 19 96.1 19.9H96V21.3L96.3 21.1C98.2 20 99.1 17.9 99.1 14.8V1.50002H101.8V14.8C101.8 16.4 101.6 18.7 100.4 20.7C99 23 96.7 24.2 93.6 24.4H93.4V20.8H93.2C93.1 20.8 93 20.8 92.8 20.8C89.3 20.8 87.6 18.8 87.6 14.8V0.400024H82.6V14.9C82.6 20.3 85 23.9 89.3 25.2L89.5 25.3V24H89.4C84.7 22.5 83.8 18.2 83.8 14.9V1.50002H86.5V14.8C86.5 20.7 90 21.8 92.1 21.9H92.3V25.5H92.5C92.6 25.5 92.8 25.5 92.9 25.5C96.2 25.5 98.8 24.5 100.6 22.4C102.2 20.5 103.1 17.9 103.1 14.7V0.400024H98.1V14.9H98Z" fill="black"/>
<path d="M117.2 20.5L129.9 4.00002H113V1.50002H130.1V0.400024H111.9V5.10002H127.8L115.1 21.6H129.2V24.1H111.9V21.7L122.9 7.60002H121.6L110.8 21.3V21.4V25.2H130.3V20.5H117.2Z" fill="black"/>
<path d="M39.4 0.5L39.2 0.4V1.6H39.3C44.2 3.1 47.6 7.6 47.6 12.7C47.6 19.1 42.4 24.3 36 24.3C29.6 24.3 24.4 19.1 24.4 12.7C24.4 6.6 29.2 1.5 35.2 1.1H35.4V4.3V5.4H35.6C35.7 5.4 35.9 5.4 36 5.4C40 5.4 43.3 8.7 43.3 12.7C43.3 16.7 40 20 36 20C32 20 28.7 16.7 28.7 12.7C28.7 10 30.3 7.5 32.6 6.2L32.7 6.1V5L32.4 5.1C29.4 6.5 27.5 9.5 27.5 12.8C27.5 17.4 31.3 21.2 35.9 21.2C40.5 21.2 44.3 17.4 44.3 12.8C44.3 8.4 41 4.8 36.6 4.4H36.4V0H36.2C36.1 0 35.9 0 35.8 0C28.7 0 23 5.7 23 12.8C23 19.9 28.9 25.6 36 25.6C43.1 25.6 48.8 19.9 48.8 12.8C48.8 10 47.9 7.3 46.2 5C44.5 2.8 42.2 1.2 39.4 0.5Z" fill="black"/>
<path d="M46.2 5C44.5 2.8 42.2 1.2 39.4 0.4L39.2 0.3V1.5H39.3C44.2 3 47.6 7.5 47.6 12.6C47.6 19 42.4 24.2 36 24.2C29.6 24.2 24.4 19 24.4 12.6C24.4 6.5 29.2 1.4 35.2 1H35.4V2.9C35.6 2.9 35.8 2.9 36 2.9C36.2 2.9 36.4 2.9 36.6 2.9V0H36.4C36.3 0 36.1 0 36 0C28.9 0 23.2 5.7 23.2 12.8C23.2 19.9 28.9 25.6 36 25.6C43.1 25.6 48.8 19.9 48.8 12.8C48.8 10 47.9 7.3 46.2 5Z" fill="black"/>
<g clip-path="url(#clip1)">
<path d="M10.9 24.1H8.30003V0.400024H3.05176e-05V5.10002H4.40003V4.00002H1.10003V1.50002H7.10003V25.2H12.1V1.50002H18V4.00002H14.7V5.10002H19.2V0.400024H10.9V24.1Z" fill="#DFAB5A"/>
<path d="M66.5 14.2L66.2 13.8H66.5H66.6C69.1 13.3 70.5 11.5 70.5 8.80005C70.5 5.90005 68.3 4.00005 65 4.00005H59.3V10.4H60.4V5.10005H64.9C67.6 5.10005 69.2 6.50005 69.2 8.80005C69.2 12.1 66.7 12.8 64.7 12.8H63.6L73.4 24H70.2L60.5 12.9L60.4 12.8H59.1V24H56.4V1.50005H64.5C69.6 1.50005 72.9 4.40005 72.9 8.80005C72.9 11.5 71.9 13.6 69.8 14.9L70 15.1L70.7 16L70.8 15.9C73.1 14.5 74.4 11.9 74.4 8.80005C74.4 6.40005 73.5 4.30005 71.9 2.80005C70.2 1.20005 67.7 0.300049 64.8 0.300049H55.6V25.1H60.6V14.7L69.8 25.2001L69.9 25.3H76.2L66.5 14.2Z" fill="#DFAB5A"/>
<path d="M98 14.9C98 17.3 97.4 19 96.1 19.9H96V21.3L96.3 21.1C98.2 20 99.1 17.9 99.1 14.8V1.50002H101.8V14.8C101.8 16.4 101.6 18.7 100.4 20.7C99 23 96.7 24.2 93.6 24.4H93.4V20.8H93.2C93.1 20.8 93 20.8 92.8 20.8C89.3 20.8 87.6 18.8 87.6 14.8V0.400024H82.6V14.9C82.6 20.3 85 23.9 89.3 25.2L89.5 25.3V24H89.4C84.7 22.5 83.8 18.2 83.8 14.9V1.50002H86.5V14.8C86.5 20.7 90 21.8 92.1 21.9H92.3V25.5H92.5C92.6 25.5 92.8 25.5 92.9 25.5C96.2 25.5 98.8 24.5 100.6 22.4C102.2 20.5 103.1 17.9 103.1 14.7V0.400024H98.1V14.9H98Z" fill="#DFAB5A"/>
<path d="M117.2 20.5L129.9 4.00002H113V1.50002H130.1V0.400024H111.9V5.10002H127.8L115.1 21.6H129.2V24.1H111.9V21.7L122.9 7.60002H121.6L110.8 21.3V21.4V25.2H130.3V20.5H117.2Z" fill="#DFAB5A"/>
<path d="M39.4 0.5L39.2 0.4V1.6H39.3C44.2 3.1 47.6 7.6 47.6 12.7C47.6 19.1 42.4 24.3 36 24.3C29.6 24.3 24.4 19.1 24.4 12.7C24.4 6.6 29.2 1.5 35.2 1.1H35.4V4.3V5.4H35.6C35.7 5.4 35.9 5.4 36 5.4C40 5.4 43.3 8.7 43.3 12.7C43.3 16.7 40 20 36 20C32 20 28.7 16.7 28.7 12.7C28.7 10 30.3 7.5 32.6 6.2L32.7 6.1V5L32.4 5.1C29.4 6.5 27.5 9.5 27.5 12.8C27.5 17.4 31.3 21.2 35.9 21.2C40.5 21.2 44.3 17.4 44.3 12.8C44.3 8.4 41 4.8 36.6 4.4H36.4V0H36.2C36.1 0 35.9 0 35.8 0C28.7 0 23 5.7 23 12.8C23 19.9 28.9 25.6 36 25.6C43.1 25.6 48.8 19.9 48.8 12.8C48.8 10 47.9 7.3 46.2 5C44.5 2.8 42.2 1.2 39.4 0.5Z" fill="#DFAB5A"/>
<path d="M46.2 5C44.5 2.8 42.2 1.2 39.4 0.4L39.2 0.3V1.5H39.3C44.2 3 47.6 7.5 47.6 12.6C47.6 19 42.4 24.2 36 24.2C29.6 24.2 24.4 19 24.4 12.6C24.4 6.5 29.2 1.4 35.2 1H35.4V2.9C35.6 2.9 35.8 2.9 36 2.9C36.2 2.9 36.4 2.9 36.6 2.9V0H36.4C36.3 0 36.1 0 36 0C28.9 0 23.2 5.7 23.2 12.8C23.2 19.9 28.9 25.6 36 25.6C43.1 25.6 48.8 19.9 48.8 12.8C48.8 10 47.9 7.3 46.2 5Z" fill="white"/>
</g>
</g>
<defs>
<clipPath id="clip0">
<rect width="130.3" height="25.6" fill="white"/>
</clipPath>
<clipPath id="clip1">
<rect width="130.3" height="25.6" fill="white"/>
</clipPath>
</defs>
</svg>
