<svg width="25" height="25" viewBox="0 0 25 25" fill="none" xmlns="http://www.w3.org/2000/svg">
<path d="M14.6309 5.78025C14.6309 6.26982 14.4543 6.68521 14.1009 7.02643C13.7624 7.36764 13.3502 7.53825 12.8644 7.53825C12.3785 7.53825 11.9664 7.36764 11.6278 7.02643C11.2892 6.68521 11.1199 6.26982 11.1199 5.78025C11.1199 5.29068 11.2892 4.87529 11.6278 4.53408C11.9664 4.17803 12.3785 4 12.8644 4C13.3502 4 13.7624 4.17803 14.1009 4.53408C14.4543 4.87529 14.6309 5.29068 14.6309 5.78025ZM9 17.3296C9 17.1368 9.01472 16.9217 9.04416 16.6843C9.07361 16.4321 9.11777 16.165 9.17666 15.8832L10.6782 8.73992H13.858L12.2681 16.306C12.2387 16.4395 12.2166 16.5656 12.2019 16.6843C12.1872 16.7881 12.1798 16.8994 12.1798 17.0181C12.1798 17.3148 12.2461 17.5299 12.3785 17.6634C12.5258 17.7821 12.7613 17.8414 13.0852 17.8414C13.4974 17.8414 13.8875 17.6634 14.2555 17.3074C14.6236 16.9365 14.8959 16.4618 15.0726 15.8832H16C15.5289 17.2332 14.8959 18.2568 14.1009 18.9541C13.306 19.6514 12.3933 20 11.3628 20C10.6267 20 10.0452 19.7701 9.6183 19.3102C9.2061 18.8354 9 18.1752 9 17.3296Z" fill="#4C4944"/>
<circle cx="12.5" cy="12.5" r="11.5" stroke="#4C4944" stroke-width="2"/>
</svg>
