<svg width="95" height="11" viewBox="0 0 95 11" fill="none" xmlns="http://www.w3.org/2000/svg">
<path d="M7.33594 7.29297C7.23047 8.19531 6.89648 8.89258 6.33398 9.38477C5.77539 9.87305 5.03125 10.1172 4.10156 10.1172C3.09375 10.1172 2.28516 9.75586 1.67578 9.0332C1.07031 8.31055 0.767578 7.34375 0.767578 6.13281V5.3125C0.767578 4.51953 0.908203 3.82227 1.18945 3.2207C1.47461 2.61914 1.87695 2.1582 2.39648 1.83789C2.91602 1.51367 3.51758 1.35156 4.20117 1.35156C5.10742 1.35156 5.83398 1.60547 6.38086 2.11328C6.92773 2.61719 7.24609 3.31641 7.33594 4.21094H6.20508C6.10742 3.53125 5.89453 3.03906 5.56641 2.73438C5.24219 2.42969 4.78711 2.27734 4.20117 2.27734C3.48242 2.27734 2.91797 2.54297 2.50781 3.07422C2.10156 3.60547 1.89844 4.36133 1.89844 5.3418V6.16797C1.89844 7.09375 2.0918 7.83008 2.47852 8.37695C2.86523 8.92383 3.40625 9.19727 4.10156 9.19727C4.72656 9.19727 5.20508 9.05664 5.53711 8.77539C5.87305 8.49023 6.0957 7.99609 6.20508 7.29297H7.33594ZM13.8926 10H12.8086V4.55664H9.89062V10H8.80078V3.66016H13.8926V10ZM15.3457 6.77148C15.3457 6.15039 15.4668 5.5918 15.709 5.0957C15.9551 4.59961 16.2949 4.2168 16.7285 3.94727C17.166 3.67773 17.6641 3.54297 18.2227 3.54297C19.0859 3.54297 19.7832 3.8418 20.3145 4.43945C20.8496 5.03711 21.1172 5.83203 21.1172 6.82422V6.90039C21.1172 7.51758 20.998 8.07227 20.7598 8.56445C20.5254 9.05273 20.1875 9.43359 19.7461 9.70703C19.3086 9.98047 18.8047 10.1172 18.2344 10.1172C17.375 10.1172 16.6777 9.81836 16.1426 9.2207C15.6113 8.62305 15.3457 7.83203 15.3457 6.84766V6.77148ZM16.4355 6.90039C16.4355 7.60352 16.5977 8.16797 16.9219 8.59375C17.25 9.01953 17.6875 9.23242 18.2344 9.23242C18.7852 9.23242 19.2227 9.01758 19.5469 8.58789C19.8711 8.1543 20.0332 7.54883 20.0332 6.77148C20.0332 6.07617 19.8672 5.51367 19.5352 5.08398C19.207 4.65039 18.7695 4.43359 18.2227 4.43359C17.6875 4.43359 17.2559 4.64648 16.9277 5.07227C16.5996 5.49805 16.4355 6.10742 16.4355 6.90039ZM25.0195 9.23242C25.4062 9.23242 25.7441 9.11523 26.0332 8.88086C26.3223 8.64648 26.4824 8.35352 26.5137 8.00195H27.5391C27.5195 8.36523 27.3945 8.71094 27.1641 9.03906C26.9336 9.36719 26.625 9.62891 26.2383 9.82422C25.8555 10.0195 25.4492 10.1172 25.0195 10.1172C24.1562 10.1172 23.4688 9.83008 22.957 9.25586C22.4492 8.67773 22.1953 7.88867 22.1953 6.88867V6.70703C22.1953 6.08984 22.3086 5.54102 22.5352 5.06055C22.7617 4.58008 23.0859 4.20703 23.5078 3.94141C23.9336 3.67578 24.4355 3.54297 25.0137 3.54297C25.7246 3.54297 26.3145 3.75586 26.7832 4.18164C27.2559 4.60742 27.5078 5.16016 27.5391 5.83984H26.5137C26.4824 5.42969 26.3262 5.09375 26.0449 4.83203C25.7676 4.56641 25.4238 4.43359 25.0137 4.43359C24.4629 4.43359 24.0352 4.63281 23.7305 5.03125C23.4297 5.42578 23.2793 5.99805 23.2793 6.74805V6.95312C23.2793 7.68359 23.4297 8.24609 23.7305 8.64062C24.0312 9.03516 24.4609 9.23242 25.0195 9.23242ZM28.4707 6.77148C28.4707 6.15039 28.5918 5.5918 28.834 5.0957C29.0801 4.59961 29.4199 4.2168 29.8535 3.94727C30.291 3.67773 30.7891 3.54297 31.3477 3.54297C32.2109 3.54297 32.9082 3.8418 33.4395 4.43945C33.9746 5.03711 34.2422 5.83203 34.2422 6.82422V6.90039C34.2422 7.51758 34.123 8.07227 33.8848 8.56445C33.6504 9.05273 33.3125 9.43359 32.8711 9.70703C32.4336 9.98047 31.9297 10.1172 31.3594 10.1172C30.5 10.1172 29.8027 9.81836 29.2676 9.2207C28.7363 8.62305 28.4707 7.83203 28.4707 6.84766V6.77148ZM29.5605 6.90039C29.5605 7.60352 29.7227 8.16797 30.0469 8.59375C30.375 9.01953 30.8125 9.23242 31.3594 9.23242C31.9102 9.23242 32.3477 9.01758 32.6719 8.58789C32.9961 8.1543 33.1582 7.54883 33.1582 6.77148C33.1582 6.07617 32.9922 5.51367 32.6602 5.08398C32.332 4.65039 31.8945 4.43359 31.3477 4.43359C30.8125 4.43359 30.3809 4.64648 30.0527 5.07227C29.7246 5.49805 29.5605 6.10742 29.5605 6.90039ZM38.3848 4.02344C39.1816 4.02344 39.8184 4.29102 40.2949 4.82617C40.7754 5.35742 41.0156 6.05859 41.0156 6.92969V7.0293C41.0156 7.62695 40.9004 8.16211 40.6699 8.63477C40.4395 9.10352 40.1074 9.46875 39.6738 9.73047C39.2441 9.98828 38.748 10.1172 38.1855 10.1172C37.334 10.1172 36.6484 9.83398 36.1289 9.26758C35.6094 8.69727 35.3496 7.93359 35.3496 6.97656V6.44922C35.3496 5.11719 35.5957 4.05859 36.0879 3.27344C36.584 2.48828 37.3145 2.00977 38.2793 1.83789C38.8262 1.74023 39.1953 1.62109 39.3867 1.48047C39.5781 1.33984 39.6738 1.14648 39.6738 0.900391H40.5645C40.5645 1.38867 40.4531 1.76953 40.2305 2.04297C40.0117 2.31641 39.6602 2.50977 39.1758 2.62305L38.3672 2.80469C37.7227 2.95703 37.2383 3.21484 36.9141 3.57812C36.5938 3.9375 36.3848 4.41797 36.2871 5.01953C36.8613 4.35547 37.5605 4.02344 38.3848 4.02344ZM38.1738 4.91406C37.6426 4.91406 37.2207 5.09375 36.9082 5.45312C36.5957 5.80859 36.4395 6.30273 36.4395 6.93555V7.0293C36.4395 7.70898 36.5957 8.24805 36.9082 8.64648C37.2246 9.04102 37.6504 9.23828 38.1855 9.23828C38.7246 9.23828 39.1504 9.03906 39.4629 8.64062C39.7754 8.24219 39.9316 7.66016 39.9316 6.89453C39.9316 6.29688 39.7734 5.81836 39.457 5.45898C39.1445 5.0957 38.7168 4.91406 38.1738 4.91406ZM43.418 5.8457H45.0645C45.7832 5.85352 46.3516 6.04102 46.7695 6.4082C47.1875 6.77539 47.3965 7.27344 47.3965 7.90234C47.3965 8.53516 47.1816 9.04297 46.752 9.42578C46.3223 9.80859 45.7441 10 45.0176 10H42.334V3.66016H43.418V5.8457ZM49.6582 10H48.5684V3.66016H49.6582V10ZM43.418 6.73047V9.11523H45.0293C45.4355 9.11523 45.75 9.01172 45.9727 8.80469C46.1953 8.59375 46.3066 8.30664 46.3066 7.94336C46.3066 7.5918 46.1973 7.30469 45.9785 7.08203C45.7637 6.85547 45.4609 6.73828 45.0703 6.73047H43.418ZM54.2402 6.77148C54.2402 6.15039 54.3613 5.5918 54.6035 5.0957C54.8496 4.59961 55.1895 4.2168 55.623 3.94727C56.0605 3.67773 56.5586 3.54297 57.1172 3.54297C57.9805 3.54297 58.6777 3.8418 59.209 4.43945C59.7441 5.03711 60.0117 5.83203 60.0117 6.82422V6.90039C60.0117 7.51758 59.8926 8.07227 59.6543 8.56445C59.4199 9.05273 59.082 9.43359 58.6406 9.70703C58.2031 9.98047 57.6992 10.1172 57.1289 10.1172C56.2695 10.1172 55.5723 9.81836 55.0371 9.2207C54.5059 8.62305 54.2402 7.83203 54.2402 6.84766V6.77148ZM55.3301 6.90039C55.3301 7.60352 55.4922 8.16797 55.8164 8.59375C56.1445 9.01953 56.582 9.23242 57.1289 9.23242C57.6797 9.23242 58.1172 9.01758 58.4414 8.58789C58.7656 8.1543 58.9277 7.54883 58.9277 6.77148C58.9277 6.07617 58.7617 5.51367 58.4297 5.08398C58.1016 4.65039 57.6641 4.43359 57.1172 4.43359C56.582 4.43359 56.1504 4.64648 55.8223 5.07227C55.4941 5.49805 55.3301 6.10742 55.3301 6.90039ZM66.5566 10H65.4727V4.55664H62.5547V10H61.4648V3.66016H66.5566V10ZM73.4941 3.66016V10H72.4043V4.55664H70.248L70.1191 6.92969C70.0488 8.01953 69.8652 8.79883 69.5684 9.26758C69.2754 9.73633 68.8086 9.98047 68.168 10H67.7344V9.04492L68.0449 9.02148C68.3965 8.98242 68.6484 8.7793 68.8008 8.41211C68.9531 8.04492 69.0508 7.36523 69.0938 6.37305L69.2109 3.66016H73.4941ZM79.1484 10C79.0859 9.875 79.0352 9.65234 78.9961 9.33203C78.4922 9.85547 77.8906 10.1172 77.1914 10.1172C76.5664 10.1172 76.0527 9.94141 75.6504 9.58984C75.252 9.23438 75.0527 8.78516 75.0527 8.24219C75.0527 7.58203 75.3027 7.07031 75.8027 6.70703C76.3066 6.33984 77.0137 6.15625 77.9238 6.15625H78.9785V5.6582C78.9785 5.2793 78.8652 4.97852 78.6387 4.75586C78.4121 4.5293 78.0781 4.41602 77.6367 4.41602C77.25 4.41602 76.9258 4.51367 76.6641 4.70898C76.4023 4.9043 76.2715 5.14062 76.2715 5.41797H75.1816C75.1816 5.10156 75.293 4.79688 75.5156 4.50391C75.7422 4.20703 76.0469 3.97266 76.4297 3.80078C76.8164 3.62891 77.2402 3.54297 77.7012 3.54297C78.4316 3.54297 79.0039 3.72656 79.418 4.09375C79.832 4.45703 80.0469 4.95898 80.0625 5.59961V8.51758C80.0625 9.09961 80.1367 9.5625 80.2852 9.90625V10H79.1484ZM77.3496 9.17383C77.6895 9.17383 78.0117 9.08594 78.3164 8.91016C78.6211 8.73438 78.8418 8.50586 78.9785 8.22461V6.92383H78.1289C76.8008 6.92383 76.1367 7.3125 76.1367 8.08984C76.1367 8.42969 76.25 8.69531 76.4766 8.88672C76.7031 9.07812 76.9941 9.17383 77.3496 9.17383ZM86.3789 4.53906H84.252V10H83.168V4.53906H81.082V3.66016H86.3789V4.53906ZM88.6172 5.8457H90.2637C90.9824 5.85352 91.5508 6.04102 91.9688 6.4082C92.3867 6.77539 92.5957 7.27344 92.5957 7.90234C92.5957 8.53516 92.3809 9.04297 91.9512 9.42578C91.5215 9.80859 90.9434 10 90.2168 10H87.5332V3.66016H88.6172V5.8457ZM94.8574 10H93.7676V3.66016H94.8574V10ZM88.6172 6.73047V9.11523H90.2285C90.6348 9.11523 90.9492 9.01172 91.1719 8.80469C91.3945 8.59375 91.5059 8.30664 91.5059 7.94336C91.5059 7.5918 91.3965 7.30469 91.1777 7.08203C90.9629 6.85547 90.6602 6.73828 90.2695 6.73047H88.6172Z" fill="#7C7C7C"/>
</svg>
