<svg width="25" height="23" viewBox="0 0 25 23" fill="none" xmlns="http://www.w3.org/2000/svg">
<path d="M25 16.3201V21.7615C25 21.8699 24.9843 21.9705 24.9606 22.0634C24.8504 22.5975 24.3703 23 23.8035 23H1.1886C0.582494 23 0.0787154 22.5433 0.0157431 21.9628C0 21.8931 0 21.8312 0 21.7538V16.3124C0 15.67 0.535264 15.1514 1.18073 15.1514C1.50346 15.1514 1.80258 15.283 2.01511 15.4919C2.22764 15.7009 2.36146 15.9951 2.36146 16.3124V20.6702H22.6464V16.3124C22.6464 15.67 23.1817 15.1514 23.8271 15.1514C24.1499 15.1514 24.449 15.283 24.6615 15.4919C24.8662 15.7087 25 16.0028 25 16.3201Z" fill="#C4C4C4"/>
<path d="M19.3092 10.8712L13.5079 16.5758C13.5 16.5912 13.4843 16.599 13.4764 16.6067C13.2639 16.8157 12.9883 16.9473 12.7128 16.986C12.6892 16.986 12.6656 16.9937 12.642 16.9937C12.5948 17.0015 12.5475 17.0015 12.5003 17.0015L12.3665 16.9937C12.3429 16.9937 12.3193 16.986 12.2957 16.986C12.0123 16.9473 11.7446 16.8157 11.5321 16.6067C11.5242 16.599 11.5085 16.5835 11.5006 16.5758L5.69931 10.8712C5.43168 10.6081 5.29786 10.2597 5.29786 9.91143C5.29786 9.56312 5.43168 9.21481 5.69931 8.95164C6.23457 8.42531 7.10831 8.42531 7.65145 8.95164L11.1385 12.3806V1.96391C11.1385 1.22085 11.7604 0.609375 12.5161 0.609375C12.8939 0.609375 13.2402 0.76418 13.4921 1.00413C13.744 1.25181 13.8936 1.58464 13.8936 1.96391V12.3806L17.3807 8.95164C17.9159 8.42531 18.7897 8.42531 19.3328 8.95164C19.8445 9.48572 19.8445 10.3449 19.3092 10.8712Z" fill="#C4C4C4"/>
</svg>
