<svg width="25" height="25" viewBox="0 0 25 25" fill="none" xmlns="http://www.w3.org/2000/svg">
<path d="M12.5007 5.75867C10.4174 5.75867 8.72292 7.45342 8.72292 9.53642V11.0057H8.25042C7.67092 11.0057 7.20117 11.4754 7.20117 12.0549V17.6169C7.20117 18.1962 7.67092 18.6662 8.25042 18.6662H16.7507C17.3302 18.6662 17.7999 18.1962 17.7999 17.6169V12.0552C17.7999 11.4757 17.3302 11.0059 16.7507 11.0059H16.2784V9.53667C16.2784 7.45342 14.5837 5.75867 12.5007 5.75867ZM10.8214 9.53667C10.8214 8.61092 11.5749 7.85767 12.5007 7.85767C13.4264 7.85767 14.1797 8.61092 14.1797 9.53667V11.0059H10.8214V9.53667ZM15.7014 16.5677H9.29992V13.1047H15.7012V16.5677H15.7014Z" fill="#4C4944"/>
<path d="M23.9505 11.4508C23.371 11.4508 22.9013 11.9205 22.9013 12.5C22.9013 18.2353 18.2353 22.9013 12.5002 22.9013C6.76475 22.9013 2.09875 18.2353 2.09875 12.5C2.09875 6.76475 6.76475 2.099 12.5 2.099C14.6935 2.099 16.8027 2.78875 18.5515 4.0405H17.1663C16.5868 4.0405 16.1168 4.51025 16.1168 5.09C16.1168 5.6695 16.5868 6.13925 17.1663 6.13925H21.2065C21.786 6.13925 22.2558 5.6695 22.2558 5.09V1.0495C22.2558 0.46975 21.7862 0 21.2065 0C20.6267 0 20.157 0.46975 20.157 1.0495V2.62075C17.984 0.93525 15.2995 0 12.5 0C9.16125 0 6.022 1.30025 3.66125 3.66125C1.3 6.02225 0 9.16125 0 12.5C0 15.8387 1.3 18.978 3.66125 21.3388C6.022 23.7 9.16125 25 12.5 25C15.8385 25 18.9777 23.7 21.3385 21.3388C23.6997 18.978 25 15.8387 25 12.5C25 11.9205 24.53 11.4508 23.9505 11.4508Z" fill="#4C4944"/>
</svg>
