<svg width="25" height="30" viewBox="0 0 25 30" fill="none" xmlns="http://www.w3.org/2000/svg">
<path fill-rule="evenodd" clip-rule="evenodd" d="M24.9038 28.9901V5.95766C24.6992 5.37037 24.1399 4.94781 23.4837 4.94781H5.13301V1.50313C5.13301 1.22687 5.3578 1.00209 5.63406 1.00209H19.2875C19.5638 1.00209 19.7885 1.22687 19.7885 1.50313V3.75783C19.7885 4.03453 20.0129 4.25887 20.2896 4.25887C20.5663 4.25887 20.7906 4.03453 20.7906 3.75783V1.50313C20.7906 0.67428 20.1164 0 19.2875 0H5.63406C4.80521 0 4.13093 0.67428 4.13093 1.50313V4.94781H1.43782C0.761554 4.94781 0.188191 5.39667 0 6.01213V28.9357C0.188191 29.5511 0.761554 30 1.43782 30H23.4837C24.1399 30 24.6992 29.5774 24.9038 28.9901ZM23.9848 28.4969C23.9848 28.7731 23.76 28.9979 23.4837 28.9979H1.43782C1.16155 28.9979 0.936772 28.7731 0.936772 28.4969V6.45094C0.936772 6.17468 1.16155 5.9499 1.43782 5.9499H23.4837C23.76 5.9499 23.9848 6.17468 23.9848 6.45094V28.4969Z" fill="#DFAB5A"/>
<path d="M11.1456 1.62817C10.8689 1.62817 10.6446 1.85252 10.6446 2.12922V3.75761C10.6446 4.03431 10.8689 4.25865 11.1456 4.25865H13.7761C14.0528 4.25865 14.2772 4.03431 14.2772 3.75761V2.12922C14.2772 1.85252 14.0528 1.62817 13.7761 1.62817H11.1456ZM13.2751 3.25657H11.6467V2.63026H13.2751V3.25657Z" fill="#DFAB5A"/>
<path d="M16.1562 1.62817H15.9683C15.6916 1.62817 15.4672 1.85252 15.4672 2.12922C15.4672 2.40592 15.6916 2.63026 15.9683 2.63026H16.1562C16.4329 2.63026 16.6572 2.40592 16.6572 2.12922C16.6572 1.85252 16.4329 1.62817 16.1562 1.62817Z" fill="#DFAB5A"/>
<path d="M16.1562 3.25635H15.9683C15.6916 3.25635 15.4672 3.48069 15.4672 3.75739C15.4672 4.03409 15.6916 4.25844 15.9683 4.25844H16.1562C16.4329 4.25844 16.6572 4.03409 16.6572 3.75739C16.6572 3.48069 16.4329 3.25635 16.1562 3.25635Z" fill="#DFAB5A"/>
<path d="M8.95352 1.62817H8.76563C8.48893 1.62817 8.26459 1.85252 8.26459 2.12922C8.26459 2.40592 8.48893 2.63026 8.76563 2.63026H8.95352C9.23022 2.63026 9.45457 2.40592 9.45457 2.12922C9.45457 1.85252 9.23022 1.62817 8.95352 1.62817Z" fill="#DFAB5A"/>
<path d="M8.95352 3.25635H8.76563C8.48893 3.25635 8.26459 3.48069 8.26459 3.75739C8.26459 4.03409 8.48893 4.25844 8.76563 4.25844H8.95352C9.23022 4.25844 9.45457 4.03409 9.45457 3.75739C9.45457 3.48069 9.23022 3.25635 8.95352 3.25635Z" fill="#DFAB5A"/>
<path d="M20.2583 14.9138C20.2714 14.9537 20.2842 14.9937 20.2967 15.034C20.3635 15.2486 20.5614 15.3863 20.7749 15.3863C21.1115 15.3863 21.3541 15.0594 21.2535 14.7362C21.2395 14.6913 21.2252 14.6465 21.2105 14.6018C21.1244 14.3388 20.8413 14.1955 20.5784 14.2816C20.3155 14.3678 20.1722 14.6508 20.2583 14.9138Z" fill="#DFAB5A"/>
<path d="M21.6557 16.9994C21.6416 16.723 21.4065 16.511 21.1298 16.5244C20.8534 16.5385 20.6408 16.774 20.6548 17.0503C20.7648 19.203 20.0344 21.2914 18.6029 22.9076L16.5168 20.8214C18.1247 18.8765 18.1239 16.0708 16.5168 14.1269L18.6058 12.038C19.0078 12.4922 19.3638 12.994 19.6625 13.5395C19.7954 13.7822 20.0998 13.8712 20.3426 13.7383C20.5853 13.6054 20.6743 13.3008 20.5413 13.0582C20.1963 12.428 19.7835 11.8493 19.3157 11.328L20.237 10.4068C20.4327 10.2111 20.4327 9.89387 20.237 9.69822C20.0413 9.5025 19.7241 9.5025 19.5284 9.69822L18.6072 10.6194C15.1226 7.49669 9.83166 7.46945 6.31809 10.6228L5.39354 9.69828C5.19788 9.50256 4.88066 9.50256 4.685 9.69828C4.48928 9.89394 4.48928 10.2112 4.685 10.4068L5.60955 11.3314C2.46775 14.832 2.46963 20.1186 5.60955 23.6171L4.685 24.5416C4.48928 24.7373 4.48928 25.0545 4.685 25.2502C4.88066 25.4458 5.19788 25.4459 5.39354 25.2502L6.31809 24.3256C9.81869 27.4674 15.1053 27.4655 18.6038 24.3256L19.5284 25.2502C19.724 25.4458 20.0412 25.4459 20.2369 25.2502C20.4326 25.0545 20.4326 24.7373 20.2369 24.5416L19.3123 23.6171C20.8912 21.858 21.7836 19.5154 21.6557 16.9994ZM15.8038 20.1084L13.1695 17.4742L15.8037 14.8401C17.0136 16.372 17.0369 18.5469 15.8038 20.1084ZM11.7525 17.4742L9.1183 20.1084C7.90846 18.5764 7.8851 16.4016 9.1183 14.8401L11.7525 17.4742ZM9.82684 14.1315C11.3588 12.9216 13.5337 12.8983 15.0952 14.1315L12.461 16.7657L9.82684 14.1315ZM12.461 18.1828L15.0952 20.8169C13.5632 22.0268 11.3883 22.0501 9.82684 20.8169L12.461 18.1828ZM17.8971 11.3296L15.8082 13.4185C13.8633 11.8105 11.0576 11.8114 9.11379 13.4185L7.02763 11.3323C10.13 8.58465 14.7877 8.58045 17.8971 11.3296ZM6.31909 12.0408L8.40525 14.127C6.79727 16.0719 6.79815 18.8776 8.40525 20.8215L6.31909 22.9076C3.56955 19.8031 3.56729 15.1479 6.31909 12.0408ZM7.02763 23.6162L9.11379 21.5301C11.0587 23.138 13.8644 23.1372 15.8082 21.5301L17.8944 23.6162C14.7899 26.3657 10.1347 26.368 7.02763 23.6162Z" fill="#DFAB5A"/>
</svg>
