<svg width="17" height="21" viewBox="0 0 17 21" fill="none" xmlns="http://www.w3.org/2000/svg">
<g opacity="0.5">
<path d="M14.3696 1H2.63043C2.19818 1.0005 1.78377 1.16748 1.47812 1.4643C1.17246 1.76113 1.00052 2.16356 1 2.58333V18.4167C1.00052 18.8364 1.17246 19.2389 1.47812 19.5357C1.78377 19.8325 2.19818 19.9995 2.63043 20H14.3696C14.8018 19.9995 15.2162 19.8325 15.5219 19.5357C15.8275 19.2389 15.9995 18.8364 16 18.4167V2.58333C15.9995 2.16356 15.8275 1.76113 15.5219 1.4643C15.2162 1.16748 14.8018 1.0005 14.3696 1ZM2.63043 1.63333H14.3696C14.629 1.63333 14.8778 1.73342 15.0613 1.91158C15.2448 2.08974 15.3478 2.33138 15.3478 2.58333V8.7H1.65217V2.58333C1.65217 2.33138 1.75524 2.08974 1.9387 1.91158C2.12216 1.73342 2.37098 1.63333 2.63043 1.63333ZM14.3696 19.3667H2.63043C2.37098 19.3667 2.12216 19.2666 1.9387 19.0884C1.75524 18.9103 1.65217 18.6686 1.65217 18.4167V9.33333H15.3478V18.4167C15.3478 18.6686 15.2448 18.9103 15.0613 19.0884C14.8778 19.2666 14.629 19.3667 14.3696 19.3667Z" fill="#979085" stroke="#979085"/>
<path d="M8.80856 4.40625H8.15784V5.05697H8.80856V4.40625Z" fill="#979085"/>
<path d="M10.1101 4.40625H9.45935V5.05697H10.1101V4.40625Z" fill="#979085"/>
<path d="M7.50705 4.40625H6.85632V5.05697H7.50705V4.40625Z" fill="#979085"/>
<path d="M11 16H6V17H11V16Z" fill="#979085"/>
<path d="M11 13H6V14H11V13Z" fill="#979085"/>
</g>
</svg>
