<svg width="17" height="13" version="1.1" xmlns="http://www.w3.org/2000/svg"><path fill="rgb(0,0,0)" stroke="rgb(0,0,0)" stroke-width="1" opacity="0" d="M 0 0 L 6 0.5 Q 2.3 2.4 4 9 L 0.5 11 L 0 0 Z "></path><path fill="rgb(0,0,0)" stroke="rgb(0,0,0)" stroke-width="1" opacity="0" d="M 10.5 0 L 17 0 L 17 12.5 L 16 12.5 L 13.5 9 L 11 8.5 Q 13.2 7.3 12 2.5 L 10.5 0 Z "></path><path fill="rgb(0,0,0)" stroke="rgb(0,0,0)" stroke-width="1" opacity="0" d="M 7.5 2 L 10 3.5 Q 11 8 8.5 9 L 6 7.5 Q 5 3 7.5 2 Z "></path><path fill="rgb(0,0,0)" stroke="rgb(0,0,0)" stroke-width="1" opacity="0" d="M 3.5 11 L 12.5 11 L 14 12.5 L 2.5 13 L 3.5 11 Z "></path><path fill="rgb(75,73,67)" stroke="rgb(75,73,67)" stroke-width="1" opacity="0.5098039215686274" d="M 5.5 6 L 4.5 8 L 5.5 6 Z "></path><path fill="rgb(75,73,67)" stroke="rgb(75,73,67)" stroke-width="1" opacity="0.5098039215686274" d="M 3.5 9 L 4.5 11 L 3.5 9 Z "></path><path fill="rgb(75,73,67)" stroke="rgb(75,73,67)" stroke-width="1" opacity="0.5098039215686274" d="M 12.5 9 L 11.5 11 L 12.5 9 Z "></path><path fill="rgb(76,72,67)" stroke="rgb(76,72,67)" stroke-width="1" opacity="0.7294117647058823" d="M 11.5 3 L 12 6.5 L 11 6.5 L 11.5 3 Z "></path><path fill="rgb(76,72,67)" stroke="rgb(76,72,67)" stroke-width="1" opacity="0.7294117647058823" d="M 4.5 9 L 3.5 11 L 4.5 9 Z "></path><path fill="rgb(76,72,67)" stroke="rgb(76,72,67)" stroke-width="1" opacity="0.7294117647058823" d="M 11.5 9 L 12.5 11 L 11.5 9 Z "></path><path fill="rgb(76,73,68)" stroke="rgb(76,73,68)" stroke-width="1" opacity="0.9294117647058824" d="M 6.5 1 L 5.5 3 L 6.5 1 Z "></path><path fill="rgb(76,73,68)" stroke="rgb(76,73,68)" stroke-width="1" opacity="0.9294117647058824" d="M 9.5 1 L 10.5 3 L 9.5 1 Z "></path><path fill="rgb(76,73,68)" stroke="rgb(76,73,68)" stroke-width="1" opacity="0.9294117647058824" d="M 5.5 7 L 7 9.5 L 5 10 L 5.5 7 Z "></path><path fill="rgb(76,73,68)" stroke="rgb(76,73,68)" stroke-width="1" opacity="0.9294117647058824" d="M 10.5 7 L 11 10 L 9 9.5 L 10.5 7 Z "></path><path fill="rgb(76,73,68)" stroke="rgb(76,73,68)" stroke-width="1" opacity="0.9294117647058824" d="M 2.5 10 L 0.5 13 L 2.5 10 Z "></path><path fill="rgb(76,73,68)" stroke="rgb(76,73,68)" stroke-width="1" opacity="0.9294117647058824" d="M 13.5 10 L 15.5 13 L 13.5 10 Z "></path><path fill="rgb(74,72,68)" stroke="rgb(74,72,68)" stroke-width="1" opacity="0.37254901960784315" d="M 6.5 8 Q 9.5 9.5 6.5 11 L 6.5 8 Z "></path></svg>