<svg width="23" height="26" viewBox="0 0 23 26" fill="none" xmlns="http://www.w3.org/2000/svg">
<path d="M22.9599 14.5201C22.9599 20.8452 17.8051 26 11.4799 26C5.15483 26 0.027864 20.873 0 14.5758C0 14.5479 0 14.5479 0 14.5201C0 14.4922 0 14.4922 0 14.4643C0 11.5943 1.08669 8.86367 3.03717 6.74601C3.45513 6.30019 4.15173 6.27232 4.56969 6.69028C5.01551 7.10824 5.04338 7.77698 4.62542 8.2228C3.28795 9.67172 2.45203 11.4829 2.22912 13.4055H3.84523C4.45823 13.4055 4.93192 13.907 4.93192 14.4922C4.93192 15.1052 4.43037 15.5789 3.84523 15.5789H2.22912C2.75853 19.9257 6.24153 23.3529 10.5883 23.7709V22.0433C10.5883 21.4303 11.0899 20.9566 11.675 20.9566C12.288 20.9566 12.7617 21.4582 12.7617 22.0433V23.7152C16.9413 23.13 20.2292 19.7863 20.7308 15.6067H19.0868C18.4738 15.6067 18.0001 15.1052 18.0001 14.5201C18.0001 13.907 18.5017 13.4334 19.0868 13.4334H20.7308C20.3964 10.2847 18.5574 7.55406 15.7431 6.18873C15.2416 5.93795 14.9908 5.32495 15.2137 4.79553L15.9939 2.84506L8.02482 5.40854L11.2849 11.9844L12.2323 9.97823C12.4831 9.42095 13.1518 9.19804 13.6812 9.44881C14.2385 9.69959 14.4614 10.3683 14.2106 10.8977L12.288 14.9659C12.1208 15.356 11.7307 15.5789 11.3128 15.5789C10.8948 15.5789 10.5047 15.356 10.3375 14.9659L5.51706 5.21349C5.37774 4.93485 5.37774 4.60049 5.4892 4.29398C5.60065 4.01534 5.85143 3.76457 6.15793 3.68097L17.5264 0.0586614C17.9165 -0.0806584 18.3623 0.0307974 18.6688 0.365165C18.9475 0.671668 19.0311 1.11749 18.8918 1.50759L17.61 4.71194C20.9537 6.74601 22.9599 10.4241 22.9599 14.5201Z" fill="#4C4944"/>
</svg>
