<svg width="22" height="20" viewBox="0 0 22 20" fill="none" xmlns="http://www.w3.org/2000/svg">
<path d="M21.7898 8.97727C21.7898 5.53977 20.0568 2.38636 17.1307 0.539773L16.2784 0L15.3125 1.5625C13.7216 0.539773 11.875 0 10 0C4.48864 0 0 4.48864 0 10C0 15.5114 4.48864 20 10 20C15.5114 20 20 15.5114 20 10V9.97159H21.8182V8.97727H21.7898ZM16.9034 2.78409C18.4943 4.09091 19.517 5.9375 19.7727 7.98295H13.608L16.9034 2.78409ZM10 18.0114C5.56818 18.0114 1.98864 14.4034 1.98864 10C1.98864 5.59659 5.56818 1.98864 10 1.98864C11.1932 1.98864 12.3295 2.24432 13.4091 2.75568L8.21022 10.9943H17.9545C17.4432 14.9432 14.0625 18.0114 10 18.0114Z" fill="#4C4944"/>
</svg>
