<svg width="39" height="24" viewBox="0 0 39 24" fill="none" xmlns="http://www.w3.org/2000/svg">
<path d="M6.26953 14.2534C6.26953 13.8042 6.11084 13.4258 5.79346 13.1182C5.48096 12.8105 4.95117 12.5322 4.2041 12.2832C3.16406 11.9658 2.40479 11.5532 1.92627 11.0454C1.45264 10.5327 1.21582 9.8833 1.21582 9.09717C1.21582 8.29639 1.44775 7.63965 1.91162 7.12695C2.38037 6.61426 3.02246 6.30908 3.83789 6.21143V4.60742H4.9292V6.21875C5.74951 6.33105 6.38672 6.67529 6.84082 7.25146C7.2998 7.82764 7.5293 8.61621 7.5293 9.61719H6.18164C6.18164 8.92871 6.01807 8.38184 5.69092 7.97656C5.36377 7.57129 4.92188 7.36865 4.36523 7.36865C3.78418 7.36865 3.33984 7.52002 3.03223 7.82275C2.72461 8.12061 2.5708 8.53809 2.5708 9.0752C2.5708 9.57324 2.73193 9.97119 3.0542 10.269C3.38135 10.562 3.91602 10.8306 4.6582 11.0747C5.40527 11.314 5.98633 11.5801 6.40137 11.873C6.82129 12.1611 7.12891 12.498 7.32422 12.8838C7.52441 13.2695 7.62451 13.7212 7.62451 14.2388C7.62451 15.064 7.37549 15.728 6.87744 16.231C6.38428 16.7339 5.69092 17.0317 4.79736 17.1245V18.5234H3.71338V17.1245C2.80518 17.0415 2.09229 16.7192 1.57471 16.1577C1.06201 15.5913 0.805664 14.8247 0.805664 13.8579H2.16064C2.16064 14.5366 2.33887 15.0591 2.69531 15.4253C3.05176 15.7915 3.55713 15.9746 4.21143 15.9746C4.85107 15.9746 5.354 15.8208 5.72021 15.5132C6.08643 15.2056 6.26953 14.7856 6.26953 14.2534Z" fill="#DFAB5A"/>
<path d="M26.455 17V14.435H25.225V13.265H26.455V6.29H29.515C30.855 6.29 31.865 6.49 32.545 6.89C33.235 7.28 33.58 7.965 33.58 8.945C33.58 9.575 33.405 10.1 33.055 10.52C32.705 10.93 32.2 11.195 31.54 11.315V11.39C31.99 11.46 32.395 11.59 32.755 11.78C33.125 11.97 33.415 12.24 33.625 12.59C33.835 12.94 33.94 13.395 33.94 13.955C33.94 14.925 33.605 15.675 32.935 16.205C32.275 16.735 31.37 17 30.22 17H26.455ZM27.805 10.85H29.785C30.705 10.85 31.335 10.705 31.675 10.415C32.015 10.115 32.185 9.675 32.185 9.095C32.185 8.505 31.975 8.085 31.555 7.835C31.145 7.575 30.485 7.445 29.575 7.445H27.805V10.85ZM27.805 15.86H29.965C30.915 15.86 31.575 15.675 31.945 15.305C32.315 14.935 32.5 14.45 32.5 13.85C32.5 13.29 32.305 12.84 31.915 12.5C31.535 12.15 30.85 11.975 29.86 11.975H27.805V13.265H30.025V14.435H27.805V15.86Z" fill="#4C4944"/>
<path d="M10.6464 7.64645C10.4512 7.84171 10.4512 8.15829 10.6464 8.35355L13.8284 11.5355C14.0237 11.7308 14.3403 11.7308 14.5355 11.5355C14.7308 11.3403 14.7308 11.0237 14.5355 10.8284L11.7071 8L14.5355 5.17157C14.7308 4.97631 14.7308 4.65973 14.5355 4.46447C14.3403 4.2692 14.0237 4.2692 13.8284 4.46447L10.6464 7.64645ZM22 7.5L11 7.5V8.5L22 8.5V7.5Z" fill="#DFAB5A"/>
<path d="M22.3536 16.3536C22.5488 16.1583 22.5488 15.8417 22.3536 15.6464L19.1716 12.4645C18.9763 12.2692 18.6597 12.2692 18.4645 12.4645C18.2692 12.6597 18.2692 12.9763 18.4645 13.1716L21.2929 16L18.4645 18.8284C18.2692 19.0237 18.2692 19.3403 18.4645 19.5355C18.6597 19.7308 18.9763 19.7308 19.1716 19.5355L22.3536 16.3536ZM11 16.5L22 16.5L22 15.5L11 15.5L11 16.5Z" fill="#4C4944"/>
</svg>
