<svg width="19" height="22" viewBox="0 0 19 22" fill="none" xmlns="http://www.w3.org/2000/svg">
<path d="M18.3074 14.0461H16.7817V15.7385H18.3074V14.0461Z" fill="#DFAB5A"/>
<path d="M11.4423 0C12.7048 0 13.7308 1.13808 13.7308 2.53846V3.38462H14.4936L18.3077 7.61538V12.3538H16.7821V9.30769H12.9679V5.07692H6.86538C6.44583 5.07692 6.10256 5.45769 6.10256 5.92308V19.4615C6.10256 19.9269 6.44583 20.3077 6.86538 20.3077H16.0192C16.4388 20.3077 16.7821 19.9269 16.7821 19.4615V17.4308H18.3077V19.4615C18.3077 20.8619 17.2817 22 16.0192 22H6.86538C5.60292 22 4.57692 20.8619 4.57692 19.4615V18.6154H2.28846C1.02599 18.6154 0 17.4773 0 16.0769V2.53846C0 1.13808 1.02599 0 2.28846 0H11.4423ZM14.4936 7.61538H16.1489L14.4936 5.77923V7.61538ZM12.2051 3.38462V2.53846C12.2051 2.07308 11.8619 1.69231 11.4423 1.69231H2.28846C1.86891 1.69231 1.52564 2.07308 1.52564 2.53846V16.0769C1.52564 16.5423 1.86891 16.9231 2.28846 16.9231H4.57692V5.92308C4.57692 4.52269 5.60292 3.38462 6.86538 3.38462H12.2051Z" fill="#DFAB5A"/>
</svg>
