<svg width="36" height="44" viewBox="0 0 36 44" fill="none" xmlns="http://www.w3.org/2000/svg">
<g clip-path="url(#clip0)">
<path d="M25.1447 29.9434C23.003 29.9434 21.2544 31.6784 21.2544 33.8337C21.2544 35.989 22.9895 37.724 25.1447 37.724C27.3 37.724 29.035 35.989 29.035 33.8337C29.035 31.6784 27.2864 29.9434 25.1447 29.9434Z" fill="#979085"/>
<path d="M32.0715 0H2.98213C1.34196 0 0 1.34196 0 2.98213V41.0179C0 42.658 1.34196 44 2.98213 44H32.0715C33.7116 44 35.0536 42.658 35.0536 41.0179V2.98213C35.0536 1.34196 33.7116 0 32.0715 0ZM33.2914 41.0179C33.2914 41.6956 32.7492 42.2378 32.0715 42.2378H2.98213C2.30437 42.2378 1.76217 41.6956 1.76217 41.0179V2.98213C1.76217 2.30437 2.30437 1.76217 2.98213 1.76217H32.0715C32.7492 1.76217 33.2914 2.30437 33.2914 2.98213V41.0179Z" fill="#979085"/>
<path d="M9.54268 23.0302H25.5784C26.0393 23.0302 26.4053 22.6642 26.4053 22.2033C26.4053 21.7425 26.0393 21.3765 25.5784 21.3765H9.54268C9.08181 21.3765 8.71582 21.7425 8.71582 22.2033C8.71582 22.6642 9.09536 23.0302 9.54268 23.0302Z" fill="#979085"/>
<path d="M9.54268 19.1532H25.5784C26.0393 19.1532 26.4053 18.7872 26.4053 18.3264C26.4053 17.8655 26.0393 17.4995 25.5784 17.4995H9.54268C9.08181 17.4995 8.71582 17.8655 8.71582 18.3264C8.71582 18.7737 9.09536 19.1532 9.54268 19.1532Z" fill="#979085"/>
<path d="M9.54268 9.67814H25.5784C26.0393 9.67814 26.4053 9.31215 26.4053 8.85128C26.4053 8.3904 26.0393 8.02441 25.5784 8.02441H9.54268C9.08181 8.02441 8.71582 8.3904 8.71582 8.85128C8.71582 9.31215 9.09536 9.67814 9.54268 9.67814Z" fill="#979085"/>
<path d="M14.7343 34.1592H9.54268C9.08181 34.1592 8.71582 34.5252 8.71582 34.986C8.71582 35.4469 9.08181 35.8129 9.54268 35.8129H14.7343C15.1952 35.8129 15.5612 35.4469 15.5612 34.986C15.5612 34.5252 15.1952 34.1592 14.7343 34.1592Z" fill="#979085"/>
</g>
<defs>
<clipPath id="clip0">
<rect width="35.0536" height="44" fill="white"/>
</clipPath>
</defs>
</svg>
