<svg width="26" height="24" viewBox="0 0 26 24" fill="none" xmlns="http://www.w3.org/2000/svg">
<path fill-rule="evenodd" clip-rule="evenodd" d="M22.404 16.6887V13.4106H19.6026C19.245 13.4106 18.947 13.1126 18.947 12.755V9.11921C18.947 8.76159 19.245 8.46358 19.6026 8.46358H22.3444V5.36424H7.68212C7.2053 5.36424 6.72848 5.24503 6.31126 5.00662V7H5V2.68212C5 1.19205 6.19205 0 7.68212 0H20.7351C21.0927 0 21.3907 0.298013 21.3907 0.655629V3.99338H23C23.4172 3.99338 23.7152 4.29139 23.7152 4.64901V8.46358H24.6689C25.0265 8.46358 25.3245 8.76159 25.3245 9.11921V12.755C25.3245 13.1126 25.0265 13.4106 24.6689 13.4106H23.7152V17.3444C23.7152 17.702 23.4172 18 23.0596 18H11V16.6887H22.404ZM7.68212 3.99338H20.0795V1.31126H7.68212C6.90728 1.31126 6.31126 1.90728 6.31126 2.68212C6.31126 3.39735 6.90728 3.99338 7.68212 3.99338ZM20.2583 12.0993H23.9536V9.77483H20.2583V12.0993Z" fill="#4C4944"/>
<path d="M6.79834 18.8457C6.79834 18.3753 6.64893 17.988 6.3501 17.6836C6.05127 17.3737 5.55322 17.097 4.85596 16.8535C4.15869 16.6045 3.61637 16.3748 3.229 16.1646C1.93962 15.4728 1.29492 14.4491 1.29492 13.0933C1.29492 12.1746 1.57438 11.4193 2.1333 10.8271C2.69222 10.235 3.45036 9.88363 4.40771 9.77295V7.96338H5.73584V9.78955C6.69873 9.9279 7.44303 10.3374 7.96875 11.0181C8.49447 11.6932 8.75732 12.5731 8.75732 13.6577H6.74854C6.74854 12.9604 6.59082 12.4126 6.27539 12.0142C5.96549 11.6102 5.54215 11.4082 5.00537 11.4082C4.47412 11.4082 4.05908 11.5521 3.76025 11.8398C3.46143 12.1276 3.31201 12.5399 3.31201 13.0767C3.31201 13.5581 3.45866 13.9455 3.75195 14.2388C4.05078 14.5265 4.55436 14.8005 5.2627 15.0605C5.97103 15.3206 6.52718 15.5614 6.93115 15.7827C7.33512 16.0041 7.67546 16.2586 7.95215 16.5464C8.22884 16.8286 8.44189 17.1551 8.59131 17.5259C8.74072 17.8966 8.81543 18.3311 8.81543 18.8291C8.81543 19.7643 8.52767 20.5225 7.95215 21.1035C7.38216 21.6846 6.58529 22.0277 5.56152 22.1328V23.7515H4.2417V22.1411C3.146 22.0194 2.30208 21.6265 1.70996 20.9624C1.12337 20.2983 0.830078 19.4185 0.830078 18.3228H2.84717C2.84717 19.02 3.02148 19.5596 3.37012 19.9414C3.72428 20.3232 4.22233 20.5142 4.86426 20.5142C5.49512 20.5142 5.9738 20.362 6.30029 20.0576C6.63232 19.7533 6.79834 19.3493 6.79834 18.8457Z" fill="#979085"/>
</svg>
