<svg width="25" height="25" viewBox="0 0 25 25" fill="none" xmlns="http://www.w3.org/2000/svg">
<path d="M4.39941 19.3311C4.04785 19.3311 3.71094 19.4189 3.41309 19.5801C1.84082 17.5684 0.976562 15.0635 0.976562 12.5C0.976562 6.14746 6.14746 0.976562 12.5 0.976562C13.2715 0.976562 14.043 1.05469 14.7949 1.20605C15.0586 1.25977 15.3174 1.08887 15.3711 0.825195C15.4248 0.561523 15.2539 0.302734 14.9902 0.249023C14.1748 0.0830078 13.335 0 12.5 0C9.16016 0 6.02051 1.29883 3.66211 3.66211C1.30371 6.02539 0 9.16016 0 12.5C0 15.3076 0.952148 18.0518 2.69043 20.249C2.46582 20.5811 2.34863 20.9766 2.34863 21.3867C2.34863 21.9336 2.56348 22.4512 2.94922 22.8369C3.33496 23.2227 3.85254 23.4375 4.39941 23.4375C4.94629 23.4375 5.46387 23.2227 5.84961 22.8369C6.23535 22.4512 6.4502 21.9336 6.4502 21.3867C6.4502 20.8398 6.23535 20.3223 5.84961 19.9365C5.45898 19.5459 4.94629 19.3311 4.39941 19.3311ZM5.15625 22.1436C4.95117 22.3486 4.68262 22.4561 4.39453 22.4561C4.10645 22.4561 3.83789 22.3438 3.63281 22.1436C3.42773 21.9434 3.32031 21.6699 3.32031 21.3818C3.32031 21.0938 3.43262 20.8252 3.63281 20.6201C3.83789 20.415 4.10645 20.3076 4.39453 20.3076C4.68262 20.3076 4.95117 20.4199 5.15625 20.6201C5.36133 20.8252 5.46875 21.0938 5.46875 21.3818C5.47363 21.6699 5.36133 21.9385 5.15625 22.1436Z" fill="#DFAB5A"/>
<path d="M22.3096 4.75098C22.8418 3.95508 22.7539 2.86621 22.0508 2.16309C21.665 1.77734 21.1474 1.5625 20.6006 1.5625C20.0537 1.5625 19.5361 1.77734 19.1504 2.16309C18.7646 2.54883 18.5498 3.06641 18.5498 3.61328C18.5498 4.16016 18.7646 4.67773 19.1504 5.06348C19.5361 5.44922 20.0537 5.66406 20.6006 5.66406C20.9521 5.66406 21.289 5.57617 21.5869 5.41504C23.1592 7.43164 24.0234 9.93652 24.0234 12.5C24.0234 18.8525 18.8525 24.0234 12.5 24.0234C11.7334 24.0234 10.9717 23.9502 10.2246 23.7988C9.96092 23.7451 9.70213 23.916 9.64842 24.1797C9.59471 24.4434 9.76561 24.7021 10.0293 24.7559C10.8349 24.917 11.665 25 12.4951 25C15.8349 25 18.9746 23.7012 21.333 21.3379C23.6914 18.9746 24.9951 15.8398 24.9951 12.5C25 9.69238 24.0478 6.94824 22.3096 4.75098ZM19.8437 4.375C19.6387 4.16992 19.5312 3.90137 19.5312 3.61328C19.5312 3.3252 19.6435 3.05664 19.8437 2.85156C20.0488 2.64648 20.3174 2.53906 20.6055 2.53906C20.8935 2.53906 21.1621 2.65137 21.3672 2.85156C21.7871 3.27148 21.7871 3.9502 21.3672 4.37012C21.1621 4.5752 20.8935 4.68262 20.6055 4.68262C20.3174 4.69238 20.0439 4.58008 19.8437 4.375Z" fill="#DFAB5A"/>
<path d="M10.4834 20.8984C10.4834 21.167 10.7031 21.3867 10.9717 21.3867H14.0234C14.292 21.3867 14.5117 21.167 14.5117 20.8984V19.9512C15.1514 19.7803 15.7666 19.5215 16.3428 19.1895L17.0117 19.8584C17.1045 19.9512 17.2266 20 17.3584 20C17.4854 20 17.6123 19.9463 17.7051 19.8584L19.8633 17.7002C20.0537 17.5098 20.0537 17.2021 19.8633 17.0117L19.1943 16.3428C19.5264 15.7666 19.7803 15.1514 19.9561 14.5117H20.8984C21.167 14.5117 21.3867 14.292 21.3867 14.0234V10.9717C21.3867 10.7031 21.167 10.4834 20.8984 10.4834H19.9561C19.7852 9.84375 19.5312 9.22852 19.1943 8.65234L19.8584 7.98828C19.9512 7.89551 20 7.77344 20 7.6416C20 7.50977 19.9463 7.3877 19.8584 7.29492L17.7002 5.13672C17.5098 4.94629 17.2021 4.94629 17.0117 5.13672L16.3477 5.80078C15.7715 5.46875 15.1562 5.21484 14.5166 5.03906V4.10156C14.5166 3.83301 14.2969 3.61328 14.0283 3.61328H10.9766C10.708 3.61328 10.4883 3.83301 10.4883 4.10156V5.03906C9.84863 5.20996 9.2334 5.46387 8.65723 5.80078L7.99316 5.13672C7.80273 4.94629 7.49512 4.94629 7.30469 5.13672L5.14648 7.29492C5.05371 7.3877 5.00488 7.50977 5.00488 7.6416C5.00488 7.77344 5.05859 7.89551 5.14648 7.98828L5.81055 8.65234C5.47852 9.22852 5.22461 9.84375 5.04883 10.4834H4.10156C3.83301 10.4834 3.61328 10.7031 3.61328 10.9717V14.0234C3.61328 14.1553 3.66699 14.2773 3.75488 14.3701C3.84277 14.4629 3.96973 14.5117 4.10156 14.5117H5.04395C5.21484 15.1514 5.47363 15.7666 5.80566 16.3428L5.13672 17.0117C4.94629 17.2021 4.94629 17.5098 5.13672 17.7002L7.29492 19.8584C7.3877 19.9512 7.50977 20 7.6416 20C7.77344 20 7.89551 19.9463 7.98828 19.8584L8.65723 19.1895C9.2334 19.5215 9.84863 19.7754 10.4883 19.9512V20.8984H10.4834ZM8.84277 18.1641C8.64746 18.0371 8.39356 18.0664 8.23242 18.2275L7.63672 18.8232L6.16699 17.3535L6.7627 16.7578C6.92383 16.5967 6.95313 16.3428 6.82617 16.1475C6.38184 15.4639 6.07422 14.7119 5.90332 13.916C5.85449 13.6914 5.6543 13.5303 5.4248 13.5303H4.58984V11.4551H5.42969C5.65918 11.4551 5.85938 11.2939 5.9082 11.0693C6.0791 10.2734 6.3916 9.52148 6.83105 8.83789C6.95801 8.64258 6.92871 8.38867 6.76758 8.22754L6.17676 7.63672L7.64648 6.16699L8.2373 6.75781C8.39844 6.91895 8.65234 6.94824 8.84766 6.82129C9.53125 6.37695 10.2832 6.06934 11.0791 5.89844C11.3037 5.84961 11.4648 5.64941 11.4648 5.41992V4.58984H13.54V5.4248C13.54 5.6543 13.7012 5.85449 13.9258 5.90332C14.7217 6.07422 15.4736 6.38672 16.1572 6.82617C16.3525 6.95313 16.6064 6.92383 16.7676 6.7627L17.3584 6.17188L18.8281 7.6416L18.2373 8.23242C18.0762 8.39356 18.0469 8.64746 18.1738 8.84277C18.6182 9.52637 18.9258 10.2783 19.0967 11.0742C19.1455 11.2988 19.3457 11.46 19.5752 11.46H20.4102V13.5352H19.5703C19.3408 13.5352 19.1406 13.6963 19.0918 13.9209C18.9209 14.7168 18.6084 15.4687 18.1689 16.1523C18.042 16.3477 18.0713 16.6016 18.2324 16.7627L18.8281 17.3584L17.3584 18.8281L16.7627 18.2324C16.6016 18.0713 16.3477 18.042 16.1523 18.1689C15.4687 18.6133 14.7168 18.9209 13.9209 19.0918C13.6963 19.1406 13.5352 19.3408 13.5352 19.5703V20.4102H11.46V19.5654C11.46 19.3359 11.2988 19.1357 11.0742 19.0869C10.2783 18.9209 9.53125 18.6084 8.84277 18.1641Z" fill="#DFAB5A"/>
<path d="M16.5332 12.4999C16.5332 10.2734 14.7217 8.46674 12.5 8.46674C10.2783 8.46674 8.4668 10.2783 8.4668 12.4999C8.4668 14.7216 10.2783 16.5331 12.5 16.5331C14.7217 16.5331 16.5332 14.7265 16.5332 12.4999ZM9.44336 12.4999C9.44336 10.8154 10.8154 9.4433 12.5 9.4433C14.1846 9.4433 15.5566 10.8154 15.5566 12.4999C15.5566 14.1845 14.1846 15.5566 12.5 15.5566C10.8154 15.5566 9.44336 14.1845 9.44336 12.4999Z" fill="#DFAB5A"/>
<path d="M16.9971 1.84573C17.124 1.84573 17.251 1.79202 17.3438 1.70413C17.4365 1.61136 17.4854 1.48929 17.4854 1.35745C17.4854 1.2305 17.4316 1.10355 17.3438 1.01077C17.251 0.917999 17.1289 0.869171 16.9971 0.869171C16.8701 0.869171 16.7432 0.922882 16.6504 1.01077C16.5576 1.10355 16.5088 1.22562 16.5088 1.35745C16.5088 1.48441 16.5625 1.61136 16.6504 1.70413C16.7432 1.79691 16.8652 1.84573 16.9971 1.84573Z" fill="#DFAB5A"/>
<path d="M8.02734 23.164C7.90039 23.164 7.77344 23.2177 7.68066 23.3056C7.58789 23.3935 7.53906 23.5204 7.53906 23.6523C7.53906 23.7792 7.59277 23.9062 7.68066 23.999C7.76856 24.0917 7.89551 24.1406 8.02734 24.1406C8.15918 24.1406 8.28125 24.0869 8.37402 23.999C8.4668 23.9111 8.51562 23.7841 8.51562 23.6523C8.51562 23.5204 8.46191 23.3984 8.37402 23.3056C8.28613 23.2128 8.1543 23.164 8.02734 23.164Z" fill="#DFAB5A"/>
</svg>
