<svg width="20" height="20" viewBox="0 0 20 20" fill="none" xmlns="http://www.w3.org/2000/svg">
<path d="M3.05451 0C2.28164 0 1.64474 0.645383 1.64474 1.42857V9.88095C0.669496 10.3985 0 11.4299 0 12.619C0 13.8082 0.669496 14.8396 1.64474 15.3571V18.5714C1.64474 19.3546 2.28163 20 3.05451 20C3.8274 20 4.46429 19.3546 4.46429 18.5714V15.3571C5.43953 14.8396 6.10902 13.8082 6.10902 12.619C6.10902 11.4299 5.43953 10.3985 4.46429 9.88095V1.42857C4.46429 0.645383 3.82738 0 3.05451 0ZM9.86842 0C9.09555 0 8.45865 0.645383 8.45865 1.42857V3.69048C7.48341 4.20803 6.81391 5.23944 6.81391 6.42857C6.81391 7.6177 7.48341 8.64911 8.45865 9.16667V18.5714C8.45865 19.3546 9.09554 20 9.86842 20C10.6413 20 11.2782 19.3546 11.2782 18.5714V13.3333C11.2791 13.2702 11.2676 13.2076 11.2444 13.149C11.2211 13.0905 11.1867 13.0372 11.1429 12.9922C11.0992 12.9473 11.0471 12.9116 10.9897 12.8873C10.9322 12.8629 10.8705 12.8504 10.8083 12.8504C10.746 12.8504 10.6843 12.8629 10.6269 12.8873C10.5694 12.9116 10.5173 12.9473 10.4736 12.9922C10.4299 13.0372 10.3954 13.0905 10.3722 13.149C10.349 13.2076 10.3375 13.2702 10.3383 13.3333V18.5714C10.3383 18.8435 10.1369 19.0476 9.86842 19.0476C9.59997 19.0476 9.3985 18.8435 9.3985 18.5714V9.47917C9.55222 9.50349 9.70815 9.52381 9.86842 9.52381C10.0287 9.52381 10.1846 9.50349 10.3383 9.47917V11.4286C10.3375 11.4917 10.349 11.5543 10.3722 11.6129C10.3954 11.6714 10.4299 11.7247 10.4736 11.7697C10.5173 11.8146 10.5694 11.8503 10.6269 11.8746C10.6843 11.899 10.746 11.9115 10.8083 11.9115C10.8705 11.9115 10.9322 11.899 10.9897 11.8746C11.0471 11.8503 11.0992 11.8146 11.1429 11.7697C11.1867 11.7247 11.2211 11.6714 11.2444 11.6129C11.2676 11.5543 11.2791 11.4917 11.2782 11.4286V9.16667C12.2534 8.64911 12.9229 7.6177 12.9229 6.42857C12.9229 5.23944 12.2534 4.20803 11.2782 3.69048V1.42857C11.2782 0.645383 10.6413 0 9.86842 0ZM16.6823 0C15.9095 0 15.2726 0.645383 15.2726 1.42857V9.88095C14.2973 10.3985 13.6278 11.4299 13.6278 12.619C13.6278 13.8082 14.2973 14.8396 15.2726 15.3571V18.5714C15.2726 19.3546 15.9095 20 16.6823 20C17.4552 20 18.0921 19.3546 18.0921 18.5714V15.3571C19.0673 14.8396 19.7368 13.8082 19.7368 12.619C19.7368 11.4299 19.0673 10.3985 18.0921 9.88095V1.42857C18.0921 0.645383 17.4552 0 16.6823 0ZM3.05451 0.952381C3.32298 0.952381 3.52444 1.15652 3.52444 1.42857V9.56845C3.37072 9.54413 3.21478 9.52381 3.05451 9.52381C2.89424 9.52381 2.73831 9.54413 2.58459 9.56845V1.42857C2.58459 1.15652 2.78604 0.952381 3.05451 0.952381ZM9.86842 0.952381C10.1369 0.952381 10.3383 1.15652 10.3383 1.42857V3.37798C10.1846 3.35365 10.0287 3.33333 9.86842 3.33333C9.70815 3.33333 9.55222 3.35365 9.3985 3.37798V1.42857C9.3985 1.15652 9.59995 0.952381 9.86842 0.952381ZM16.6823 0.952381C16.9508 0.952381 17.1523 1.15652 17.1523 1.42857V9.56845C16.9985 9.54413 16.8426 9.52381 16.6823 9.52381C16.5221 9.52381 16.3661 9.54413 16.2124 9.56845V1.42857C16.2124 1.15652 16.4139 0.952381 16.6823 0.952381ZM9.86842 4.28571C11.0419 4.28571 11.9831 5.23945 11.9831 6.42857C11.9831 7.61769 11.0419 8.57143 9.86842 8.57143C8.69495 8.57143 7.75376 7.61769 7.75376 6.42857C7.75376 5.23945 8.69495 4.28571 9.86842 4.28571ZM9.86842 5C9.09538 5 8.45865 5.64523 8.45865 6.42857C8.45865 7.21191 9.09538 7.85714 9.86842 7.85714C10.6415 7.85714 11.2782 7.21191 11.2782 6.42857C11.2782 5.64523 10.6415 5 9.86842 5ZM9.86842 5.95238C10.1335 5.95238 10.3383 6.15993 10.3383 6.42857C10.3383 6.69721 10.1335 6.90476 9.86842 6.90476C9.60332 6.90476 9.3985 6.69721 9.3985 6.42857C9.3985 6.15993 9.60332 5.95238 9.86842 5.95238ZM3.05451 10.4762C4.22798 10.4762 5.16917 11.4299 5.16917 12.619C5.16917 13.8082 4.22798 14.7619 3.05451 14.7619C1.88104 14.7619 0.93985 13.8082 0.93985 12.619C0.93985 11.4299 1.88104 10.4762 3.05451 10.4762ZM16.6823 10.4762C17.8558 10.4762 18.797 11.43 18.797 12.619C18.797 13.8082 17.8558 14.7619 16.6823 14.7619C15.5089 14.7619 14.5677 13.8082 14.5677 12.619C14.5677 11.43 15.5089 10.4762 16.6823 10.4762ZM3.05451 11.1905C2.28147 11.1905 1.64474 11.8357 1.64474 12.619C1.64474 13.4024 2.28147 14.0476 3.05451 14.0476C3.82755 14.0476 4.46429 13.4024 4.46429 12.619C4.46429 11.8357 3.82755 11.1905 3.05451 11.1905ZM16.6823 11.1905C15.9093 11.1905 15.2726 11.8357 15.2726 12.619C15.2726 13.4024 15.9093 14.0476 16.6823 14.0476C17.4554 14.0476 18.0921 13.4024 18.0921 12.619C18.0921 11.8357 17.4554 11.1905 16.6823 11.1905ZM3.05451 12.1429C3.31961 12.1429 3.52444 12.3504 3.52444 12.619C3.52444 12.8877 3.31961 13.0952 3.05451 13.0952C2.78941 13.0952 2.58459 12.8877 2.58459 12.619C2.58459 12.3504 2.78941 12.1429 3.05451 12.1429ZM16.6823 12.1429C16.9474 12.1429 17.1523 12.3504 17.1523 12.619C17.1523 12.8877 16.9474 13.0952 16.6823 13.0952C16.4172 13.0952 16.2124 12.8877 16.2124 12.619C16.2124 12.3504 16.4172 12.1429 16.6823 12.1429ZM2.58459 15.6696C2.73831 15.694 2.89424 15.7143 3.05451 15.7143C3.21478 15.7143 3.37072 15.694 3.52444 15.6696V18.5714C3.52444 18.8435 3.32297 19.0476 3.05451 19.0476C2.78606 19.0476 2.58459 18.8435 2.58459 18.5714V15.6696ZM16.2124 15.6696C16.3661 15.694 16.5221 15.7143 16.6823 15.7143C16.8426 15.7143 16.9985 15.694 17.1523 15.6696V18.5714C17.1523 18.8435 16.9508 19.0476 16.6823 19.0476C16.4139 19.0476 16.2124 18.8435 16.2124 18.5714V15.6696Z" fill="#DFAB5A"/>
</svg>
