<svg width="25" height="25" viewBox="0 0 25 25" fill="none" xmlns="http://www.w3.org/2000/svg">
<path d="M6.75065 16.477L7.02823 11.6333C7.03385 10.7099 7.33606 9.81265 7.8903 9.07399C8.44455 8.33534 9.22149 7.79433 10.1065 7.53075V6.9756C10.1065 6.3377 10.3599 5.72593 10.811 5.27487C11.2621 4.82381 11.8738 4.5704 12.5117 4.5704C13.1496 4.5704 13.7614 4.82381 14.2125 5.27487C14.6635 5.72593 14.9169 6.3377 14.9169 6.9756V7.53075C15.802 7.79433 16.5789 8.33534 17.1332 9.07399C17.6874 9.81265 17.9896 10.7099 17.9953 11.6333L18.2728 16.477C18.2728 16.477 18.2728 16.5048 18.2728 16.5159C18.2721 16.9942 18.0818 17.4527 17.7436 17.7909C17.4054 18.1291 16.9469 18.3194 16.4686 18.3201H14.8697C14.763 18.8675 14.4693 19.3608 14.0389 19.7154C13.6084 20.0701 13.0681 20.264 12.5104 20.264C11.9526 20.264 11.4123 20.0701 10.9818 19.7154C10.5514 19.3608 10.2577 18.8675 10.151 18.3201H8.55212C8.07383 18.3194 7.61534 18.1291 7.27714 17.7909C6.93894 17.4527 6.74861 16.9942 6.74788 16.5159C6.74788 16.5159 6.74788 16.4881 6.75065 16.477ZM12.5104 5.968C12.2411 5.96873 11.9832 6.076 11.7928 6.26637C11.6024 6.45673 11.4952 6.71471 11.4944 6.98393V7.35033H13.5263V6.98393C13.5255 6.71471 13.4183 6.45673 13.2279 6.26637C13.0375 6.076 12.7796 5.96873 12.5104 5.968ZM12.5104 18.8753C12.6968 18.8745 12.8795 18.8222 13.0381 18.7243C13.1968 18.6263 13.3254 18.4865 13.4097 18.3201H11.6082C11.6927 18.4869 11.8217 18.627 11.981 18.725C12.1402 18.823 12.3234 18.875 12.5104 18.8753ZM8.55212 16.9322H16.4686C16.5762 16.9309 16.6793 16.8885 16.7567 16.8137C16.8341 16.7389 16.88 16.6373 16.8849 16.5298L16.6074 11.6916C16.6074 11.6916 16.6074 11.6639 16.6074 11.6528C16.6066 10.88 16.2993 10.1391 15.7529 9.59267C15.2065 9.04624 14.4656 8.73894 13.6928 8.73821H11.3279C10.9448 8.73857 10.5655 8.81439 10.2117 8.96134C9.85787 9.10828 9.53647 9.32348 9.26583 9.59463C8.99519 9.86579 8.78061 10.1876 8.63434 10.5417C8.48807 10.8958 8.41297 11.2752 8.41333 11.6583C8.41333 11.6583 8.41333 11.6861 8.41333 11.6972L8.13576 16.5353C8.14207 16.6419 8.18854 16.7421 8.2658 16.8157C8.34307 16.8894 8.44538 16.931 8.55212 16.9322Z" fill="#DFAB5A"/>
<path d="M20.6006 19.3311C20.9521 19.3311 21.2891 19.4189 21.5869 19.5801C23.1592 17.5684 24.0234 15.0635 24.0234 12.5C24.0234 6.14746 18.8525 0.976562 12.5 0.976562C11.7285 0.976562 10.957 1.05469 10.2051 1.20605C9.94141 1.25977 9.68262 1.08887 9.62891 0.825195C9.5752 0.561523 9.74609 0.302734 10.0098 0.249023C10.8252 0.0830078 11.665 0 12.5 0C15.8398 0 18.9795 1.29883 21.3379 3.66211C23.6963 6.02539 25 9.16016 25 12.5C25 15.3076 24.0479 18.0518 22.3096 20.249C22.5342 20.5811 22.6514 20.9766 22.6514 21.3867C22.6514 21.9336 22.4365 22.4512 22.0508 22.8369C21.665 23.2227 21.1475 23.4375 20.6006 23.4375C20.0537 23.4375 19.5361 23.2227 19.1504 22.8369C18.7646 22.4512 18.5498 21.9336 18.5498 21.3867C18.5498 20.8398 18.7646 20.3223 19.1504 19.9365C19.541 19.5459 20.0537 19.3311 20.6006 19.3311ZM19.8438 22.1436C20.0488 22.3486 20.3174 22.4561 20.6055 22.4561C20.8936 22.4561 21.1621 22.3438 21.3672 22.1436C21.5723 21.9434 21.6797 21.6699 21.6797 21.3818C21.6797 21.0938 21.5674 20.8252 21.3672 20.6201C21.1621 20.415 20.8936 20.3076 20.6055 20.3076C20.3174 20.3076 20.0488 20.4199 19.8438 20.6201C19.6387 20.8252 19.5312 21.0938 19.5312 21.3818C19.5264 21.6699 19.6387 21.9385 19.8438 22.1436Z" fill="#DFAB5A"/>
<path d="M2.69045 4.75098C2.15822 3.95508 2.24611 2.86621 2.94924 2.16309C3.33498 1.77734 3.85256 1.5625 4.39943 1.5625C4.94631 1.5625 5.46388 1.77734 5.84963 2.16309C6.23537 2.54883 6.45021 3.06641 6.45021 3.61328C6.45021 4.16016 6.23537 4.67773 5.84963 5.06348C5.46388 5.44922 4.94631 5.66406 4.39943 5.66406C4.04787 5.66406 3.71096 5.57617 3.4131 5.41504C1.84084 7.43164 0.976583 9.93652 0.976583 12.5C0.976583 18.8525 6.14748 24.0234 12.5 24.0234C13.2666 24.0234 14.0283 23.9502 14.7754 23.7988C15.0391 23.7451 15.2979 23.916 15.3516 24.1797C15.4053 24.4434 15.2344 24.7021 14.9707 24.7559C14.1651 24.917 13.335 25 12.5049 25C9.16506 25 6.02541 23.7012 3.66701 21.3379C1.30861 18.9746 0.00490284 15.8398 0.00490284 12.5C2.00272e-05 9.69238 0.952168 6.94824 2.69045 4.75098ZM5.15627 4.375C5.36135 4.16992 5.46877 3.90137 5.46877 3.61328C5.46877 3.3252 5.35646 3.05664 5.15627 2.85156C4.95119 2.64648 4.68264 2.53906 4.39455 2.53906C4.10646 2.53906 3.83791 2.65137 3.63283 2.85156C3.21291 3.27148 3.21291 3.9502 3.63283 4.37012C3.83791 4.5752 4.10646 4.68262 4.39455 4.68262C4.68264 4.69238 4.95607 4.58008 5.15627 4.375Z" fill="#DFAB5A"/>
<path d="M8.00293 1.84573C7.87598 1.84573 7.74902 1.79202 7.65625 1.70413C7.56348 1.61136 7.51465 1.48929 7.51465 1.35745C7.51465 1.2305 7.56836 1.10355 7.65625 1.01077C7.74902 0.917999 7.87109 0.869171 8.00293 0.869171C8.12988 0.869171 8.25684 0.922882 8.34961 1.01077C8.44238 1.10355 8.49121 1.22562 8.49121 1.35745C8.49121 1.48441 8.4375 1.61136 8.34961 1.70413C8.25684 1.79691 8.13477 1.84573 8.00293 1.84573Z" fill="#DFAB5A"/>
<path d="M16.9727 23.164C17.0996 23.164 17.2266 23.2177 17.3193 23.3056C17.4121 23.3935 17.4609 23.5204 17.4609 23.6523C17.4609 23.7792 17.4072 23.9062 17.3193 23.999C17.2314 24.0917 17.1045 24.1406 16.9727 24.1406C16.8408 24.1406 16.7188 24.0869 16.626 23.999C16.5332 23.9111 16.4844 23.7841 16.4844 23.6523C16.4844 23.5204 16.5381 23.3984 16.626 23.3056C16.7139 23.2128 16.8457 23.164 16.9727 23.164Z" fill="#DFAB5A"/>
</svg>
