<svg width="30" height="30" viewBox="0 0 30 30" fill="none" xmlns="http://www.w3.org/2000/svg">
<path d="M24.3809 3.20505C24.5918 3.32224 24.6621 3.49802 24.6621 3.73825C24.6562 5.98239 24.6562 8.23239 24.6621 10.4765C24.6621 10.6992 24.6211 10.8925 24.3809 10.9687C24.0938 11.0566 23.8594 10.8574 23.8535 10.5058C23.8477 9.82028 23.8477 9.1406 23.8477 8.45505C23.8477 7.0781 23.8477 5.707 23.8477 4.33005C23.8477 4.23044 23.8477 4.13669 23.8477 4.02536C17.9414 4.02536 12.0586 4.02536 6.14648 4.02536C6.14648 4.14841 6.14648 4.25974 6.14648 4.37692C6.14648 10.3418 6.14648 16.0781 6.14648 22.0429C6.14648 22.1601 6.14648 22.2773 6.11719 22.3886C6.06445 22.5879 5.91797 22.6875 5.71289 22.6758C5.50195 22.664 5.36719 22.541 5.34375 22.3183C5.33203 22.2129 5.33789 22.1015 5.33789 21.9961C5.33789 15.8496 5.33789 9.93747 5.33789 3.79098C5.33789 3.53903 5.37891 3.32809 5.61914 3.20505C11.8711 3.20505 18.1289 3.20505 24.3809 3.20505Z" fill="#DFAB5A"/>
<path d="M18.4277 25.676C20.2559 25.676 22.0312 25.676 23.8477 25.676C23.8477 25.5529 23.8477 25.4416 23.8477 25.3303C23.8477 20.2912 23.8477 17.8244 23.8477 12.7853C23.8477 12.6623 23.8359 12.5334 23.8652 12.4103C23.9121 12.1877 24.0645 12.0705 24.293 12.0881C24.5098 12.1056 24.6387 12.2345 24.6504 12.4572C24.6621 12.6388 24.6562 12.8146 24.6562 12.9963C24.6562 18.1291 24.6562 20.6779 24.6562 25.8107C24.6562 26.426 24.5801 26.5021 23.9531 26.5021C21.9316 26.5021 19.9102 26.5021 17.8887 26.508C17.7422 26.508 17.584 26.5783 17.4609 26.6603C16.7109 27.1525 15.9785 27.674 15.2227 28.1545C15.1113 28.2248 14.8711 28.2131 14.7539 28.1369C13.9863 27.6388 13.2363 27.1115 12.4746 26.6017C12.375 26.5314 12.2285 26.4963 12.1055 26.4963C10.0547 26.4904 8.00977 26.4904 5.95898 26.4904C5.44336 26.4904 5.33789 26.3908 5.33789 25.881C5.33789 24.5978 5.33789 25.6525 5.33789 24.3693C5.33789 24.2873 5.33203 24.2053 5.34375 24.1291C5.36719 23.924 5.48438 23.801 5.68945 23.7775C5.90625 23.7541 6.05859 23.8537 6.11719 24.0588C6.14648 24.1525 6.14648 24.2521 6.14648 24.3517C6.14648 25.465 6.14648 24.2345 6.14648 25.3537C6.14648 25.4533 6.14648 25.547 6.14648 25.6642C7.95703 25.6642 9.74414 25.6642 11.5723 25.6642C11.5137 25.5705 11.4668 25.5002 11.4141 25.4299C10.6582 24.3459 10.2715 23.1388 10.2598 21.8205C10.248 20.6779 10.2598 19.5353 10.2539 18.3986C10.2539 18.1174 10.3594 17.9533 10.6406 17.8654C12.0293 17.4435 13.418 17.0041 14.8066 16.5822C14.9238 16.547 15.0762 16.547 15.1934 16.5822C16.582 17.0041 17.9707 17.4377 19.3594 17.8654C19.582 17.9357 19.7344 18.0529 19.7344 18.299C19.7285 19.6525 19.7461 21.0119 19.6934 22.3654C19.6465 23.5021 19.2187 24.5275 18.5625 25.4592C18.5215 25.5178 18.4863 25.5763 18.4277 25.676ZM18.9316 20.4142C18.9316 19.8928 18.9199 19.3713 18.9375 18.8498C18.9434 18.6447 18.8848 18.551 18.6855 18.4924C17.5195 18.1408 16.3535 17.7717 15.1875 17.4201C15.082 17.3908 14.9531 17.3791 14.8477 17.4142C13.6465 17.7775 12.4512 18.1584 11.25 18.5275C11.1152 18.5685 11.0625 18.6271 11.0625 18.7677C11.0684 19.8459 11.0391 20.924 11.0742 22.0021C11.127 23.4201 11.625 24.6916 12.6738 25.6584C13.3477 26.2795 14.1562 26.7541 14.9062 27.2873C14.9531 27.3224 15.0762 27.2931 15.1406 27.2521C15.6387 26.9299 16.1426 26.6193 16.623 26.2678C17.7422 25.4592 18.5039 24.381 18.7617 23.0158C18.9258 22.1662 18.9551 20.4142 18.9316 20.4142Z" fill="#DFAB5A"/>
<path d="M15 6.00586C16.9336 6.00586 18.8613 6.00586 20.7949 6.00586C21.2871 6.00586 21.4043 6.12305 21.4043 6.60938C21.4043 7.04883 21.4043 7.48828 21.4043 7.92773C21.3984 8.31445 21.2637 8.45508 20.8828 8.45508C16.9629 8.45508 13.0488 8.45508 9.12891 8.45508C8.74219 8.45508 8.60742 8.32031 8.60156 7.93359C8.5957 7.47656 8.5957 7.01953 8.60156 6.55664C8.60156 6.13477 8.73633 6.00586 9.15234 6.00586C11.0977 6.00586 13.0488 6.00586 15 6.00586ZM9.41016 6.82617C9.41016 7.00195 9.41016 7.14258 9.41016 7.2832C9.41016 7.64063 9.41016 7.64062 9.77344 7.64062C13.166 7.64062 16.5645 7.64062 19.957 7.64062C20.1094 7.64062 20.2617 7.65234 20.4141 7.63477C20.4727 7.62891 20.5723 7.56445 20.5723 7.51758C20.5898 7.28906 20.5781 7.06055 20.5781 6.82617C16.8457 6.82617 13.1484 6.82617 9.41016 6.82617Z" fill="#DFAB5A"/>
<path d="M15.0293 12.1638C17.3028 12.1638 19.5762 12.1638 21.8438 12.1638C21.9317 12.1638 22.0254 12.158 22.1133 12.1697C22.336 12.1931 22.459 12.3279 22.4766 12.533C22.4942 12.7439 22.3828 12.8963 22.1719 12.949C22.0782 12.9724 21.9785 12.9724 21.8789 12.9724C17.2969 12.9724 12.7207 12.9724 8.1387 12.9724C8.06838 12.9724 7.99221 12.9783 7.9219 12.9724C7.67581 12.949 7.50588 12.7732 7.51174 12.5564C7.5176 12.3338 7.68753 12.1697 7.93948 12.1697C8.54299 12.1638 9.14065 12.1697 9.74417 12.1697C11.5078 12.1638 13.2715 12.1638 15.0293 12.1638Z" fill="#DFAB5A"/>
<path d="M14.9941 11.2852C12.7031 11.2852 10.4121 11.2852 8.12695 11.2852C7.7168 11.2852 7.51758 11.1504 7.51758 10.8809C7.51758 10.6114 7.7168 10.4766 8.12695 10.4766C12.7148 10.4766 17.3027 10.4766 21.8906 10.4766C21.9727 10.4766 22.0547 10.4766 22.1309 10.4883C22.3477 10.5176 22.4766 10.6582 22.4824 10.8633C22.4883 11.086 22.3652 11.2383 22.1367 11.2735C22.0312 11.291 21.9199 11.2852 21.8144 11.2852C19.541 11.2852 17.2676 11.2852 14.9941 11.2852Z" fill="#DFAB5A"/>
<path d="M9.55664 15.1639C9.04688 15.1639 8.53125 15.1639 8.02148 15.1639C7.70508 15.1639 7.51758 15.0116 7.51758 14.7655C7.51758 14.5194 7.70508 14.3612 8.02148 14.3553C9.04687 14.3495 10.0723 14.3495 11.0918 14.3553C11.4023 14.3553 11.5957 14.5194 11.5957 14.7596C11.5957 15.0057 11.4082 15.1581 11.0918 15.1581C10.5762 15.1639 10.0664 15.1639 9.55664 15.1639Z" fill="#DFAB5A"/>
<path d="M20.4492 15.1639C19.9395 15.1639 19.4238 15.1698 18.9141 15.1639C18.5977 15.1639 18.4102 15.0057 18.4102 14.7596C18.4102 14.5135 18.6035 14.3553 18.9141 14.3553C19.9395 14.3495 20.9648 14.3495 21.9844 14.3553C22.2949 14.3553 22.4883 14.5194 22.4883 14.7655C22.4883 15.0116 22.3008 15.1639 21.9844 15.1639C21.4688 15.1639 20.959 15.1639 20.4492 15.1639Z" fill="#DFAB5A"/>
<path d="M18.1055 20.9236C18.1113 21.7146 18.123 22.5056 17.8594 23.2673C17.5195 24.2517 16.9336 25.0427 16.084 25.6404C15.8203 25.8279 15.5566 26.0154 15.2695 26.1677C15.1465 26.238 14.9297 26.2849 14.8242 26.2205C13.9336 25.7048 13.0957 25.1189 12.5625 24.199C12.1172 23.4373 11.8945 22.6169 11.8887 21.738C11.8887 21.0291 11.8887 20.3201 11.8887 19.6111C11.8887 19.2595 11.959 19.1658 12.2871 19.0662C13.1074 18.8142 13.9277 18.5505 14.7539 18.3103C14.9004 18.2693 15.0762 18.2634 15.2227 18.3044C16.0488 18.5447 16.8691 18.8142 17.6895 19.0603C17.9766 19.1482 18.1055 19.3123 18.0996 19.6052C18.0996 20.0447 18.1055 20.4841 18.1055 20.9236ZM17.3379 21.0994C17.3262 21.0994 17.3086 21.0994 17.2969 21.0935C17.2969 20.7244 17.291 20.3552 17.3027 19.9919C17.3086 19.8279 17.2441 19.7576 17.0918 19.7107C16.4473 19.5173 15.8086 19.3181 15.1641 19.1248C15.082 19.1013 14.9824 19.0837 14.9063 19.1072C14.2207 19.3123 13.5352 19.5232 12.8496 19.74C12.791 19.7576 12.709 19.8455 12.709 19.8982C12.7207 20.7419 12.668 21.5916 12.7734 22.4236C12.9434 23.7478 13.7578 24.6619 14.8828 25.3123C14.9355 25.3416 15.041 25.3474 15.0938 25.3181C16.1309 24.7205 16.9043 23.9001 17.1621 22.699C17.2852 22.1775 17.2852 21.6326 17.3379 21.0994Z" fill="#DFAB5A"/>
</svg>
