<svg width="30" height="30" viewBox="0 0 30 30" fill="none" xmlns="http://www.w3.org/2000/svg">
<path d="M27.832 11.7775L27.1523 10.6056C27.0117 10.3654 26.7012 10.2775 26.4609 10.4181C26.2207 10.5587 26.1328 10.8693 26.2734 11.1095L26.9531 12.2814C26.9883 12.3458 26.9824 12.4044 26.9707 12.4337C26.9648 12.463 26.9414 12.5157 26.877 12.5568L25.084 13.588C24.9902 13.6407 24.8672 13.6114 24.8145 13.5177L21.2109 7.27746C21.1582 7.18371 21.1875 7.06067 21.2813 7.00793L23.0742 5.97668C23.168 5.92395 23.291 5.95325 23.3438 6.047L23.9824 7.15442C24.123 7.39465 24.4336 7.48254 24.6738 7.34192C24.9141 7.20129 25.002 6.89075 24.8613 6.65051L24.2227 5.54309C23.8887 4.96301 23.1445 4.76379 22.5645 5.09778L20.7715 6.12903C20.502 6.28723 20.3086 6.53332 20.2207 6.80871H15.1465C14.4316 6.80871 13.7637 7.0841 13.2598 7.58801L12.7383 8.10949C12.2812 7.99817 11.8125 7.94543 11.3438 7.94543H9.78516C9.70898 7.64075 9.50977 7.36535 9.2168 7.20129L7.42383 6.17004C7.14258 6.00598 6.81445 5.96496 6.50391 6.047C6.19336 6.12903 5.92969 6.3341 5.76562 6.6095L2.16797 12.8497C2.00391 13.131 1.96289 13.4591 2.04492 13.7697C2.12695 14.0802 2.33203 14.3439 2.60742 14.5079L4.40039 15.5392C4.59375 15.6505 4.79883 15.7032 5.00391 15.7032C5.08008 15.7032 5.15625 15.6974 5.22656 15.6798L6.69141 17.1447C6.66797 17.2618 6.65625 17.379 6.65625 17.4962C6.65625 17.9825 6.84375 18.4454 7.18945 18.7853C7.51758 19.1134 7.94531 19.295 8.37891 19.3185C8.37305 19.3829 8.36719 19.4474 8.36719 19.5118C8.36719 19.9982 8.55469 20.4611 8.90039 20.8009C9.24609 21.1466 9.70313 21.3341 10.1895 21.3341C10.2012 21.3341 10.2129 21.3341 10.2305 21.3341C10.2305 21.3458 10.2305 21.3575 10.2305 21.3751C10.2305 21.8614 10.418 22.3243 10.7637 22.6642C11.1094 23.0099 11.5664 23.1974 12.0527 23.1974C12.0645 23.1974 12.0762 23.1974 12.0938 23.1974C12.0938 23.2091 12.0938 23.2208 12.0938 23.2384C12.0938 23.7247 12.2813 24.1876 12.627 24.5275C12.9727 24.8732 13.4297 25.0607 13.916 25.0607C14.4023 25.0607 14.8652 24.8732 15.2051 24.5275L15.9258 23.8068C16.1367 23.5958 16.2832 23.3439 16.3711 23.0743C16.6934 23.3087 17.0742 23.4318 17.4551 23.4318C17.9238 23.4318 18.3926 23.256 18.7441 22.8986C18.9551 22.6876 19.1133 22.4298 19.1953 22.1486C19.4883 22.3419 19.834 22.4415 20.1914 22.4415C20.6777 22.4415 21.1406 22.254 21.4805 21.9083C21.7383 21.6505 21.9082 21.3341 21.9785 20.9884C22.1602 21.047 22.3535 21.0821 22.5527 21.0821C23.0391 21.0821 23.502 20.8947 23.8418 20.5489C24.5566 19.8341 24.5566 18.6798 23.8418 17.965L22.6582 16.7814L24.8203 14.6193C24.8672 14.6251 24.9141 14.631 24.9668 14.631C25.1719 14.631 25.3828 14.5782 25.5703 14.4669L27.3633 13.4357C27.6445 13.2716 27.8438 13.0138 27.9258 12.6974C28.0371 12.381 27.9961 12.0587 27.832 11.7775ZM3.12305 13.6232C3.05859 13.588 3.04102 13.5353 3.0293 13.5001C3.02344 13.4708 3.01172 13.4122 3.04688 13.3478L6.65039 7.10754C6.68555 7.04309 6.73828 7.02551 6.77344 7.01379C6.78516 7.00793 6.80273 7.00793 6.82617 7.00793C6.85547 7.00793 6.89062 7.01379 6.92578 7.03723L8.71875 8.06848C8.8125 8.12121 8.84766 8.24426 8.78906 8.33801L5.17969 14.5841C5.12695 14.6779 5.00391 14.713 4.91016 14.6544L3.12305 13.6232ZM7.67578 17.4962C7.67578 17.2794 7.75781 17.0743 7.91602 16.922L8.35547 16.4825C8.51367 16.3243 8.71875 16.2482 8.92969 16.2482C9.13477 16.2482 9.3457 16.3243 9.50391 16.4825C9.65625 16.6349 9.74414 16.84 9.74414 17.0568C9.74414 17.2736 9.66211 17.4786 9.50391 17.631L9.06445 18.0704C8.74805 18.3868 8.23242 18.3868 7.91602 18.0704C7.76367 17.9181 7.67578 17.713 7.67578 17.4962ZM10.2012 20.3263C9.98438 20.3263 9.7793 20.2443 9.62695 20.0861C9.47461 19.9337 9.38672 19.7286 9.38672 19.5118C9.38672 19.295 9.46875 19.09 9.62695 18.9376L10.3477 18.2169C10.5059 18.0587 10.7109 17.9825 10.9219 17.9825C11.127 17.9825 11.3379 18.0587 11.4961 18.2169C11.6484 18.3693 11.7363 18.5743 11.7363 18.7911C11.7363 19.0079 11.6543 19.213 11.4961 19.3654L10.7754 20.0861C10.623 20.2384 10.418 20.3263 10.2012 20.3263ZM12.0645 22.1896C11.8477 22.1896 11.6426 22.1075 11.4902 21.9493C11.3379 21.797 11.25 21.5919 11.25 21.3751C11.25 21.1583 11.332 20.9532 11.4902 20.8009L12.2109 20.0802C12.3691 19.922 12.5742 19.8458 12.7852 19.8458C12.9902 19.8458 13.2012 19.922 13.3594 20.0802C13.5117 20.2325 13.5996 20.4376 13.5996 20.6544C13.5996 20.8712 13.5176 21.0763 13.3594 21.2286L12.6387 21.9493C12.4863 22.1017 12.2813 22.1896 12.0645 22.1896ZM15.2285 23.0919L14.5078 23.8126C14.3555 23.965 14.1504 24.0529 13.9336 24.0529C13.7168 24.0529 13.5117 23.9708 13.3594 23.8126C13.207 23.6603 13.1191 23.4552 13.1191 23.2384C13.1191 23.0216 13.2012 22.8165 13.3594 22.6642L14.0801 21.9435C14.2383 21.7853 14.4434 21.7091 14.6543 21.7091C14.8594 21.7091 15.0703 21.7853 15.2285 21.9435C15.5449 22.2657 15.5449 22.7755 15.2285 23.0919ZM23.1504 19.8341C22.998 19.9864 22.793 20.0743 22.5762 20.0743C22.3594 20.0743 22.1543 19.9923 22.002 19.8341L17.1562 14.9884C16.957 14.7892 16.6348 14.7892 16.4355 14.9884C16.2363 15.1876 16.2363 15.5099 16.4355 15.7091L20.7832 20.0568C20.9355 20.2091 21.0234 20.4142 21.0234 20.631C21.0234 20.8478 20.9414 21.0529 20.7832 21.2052C20.6309 21.3575 20.4258 21.4454 20.209 21.4454C19.9922 21.4454 19.7871 21.3634 19.6348 21.2052L14.4141 15.9845C14.2148 15.7853 13.8926 15.7853 13.6934 15.9845C13.4941 16.1837 13.4941 16.506 13.6934 16.7052L18.0469 21.0353C18.1992 21.1876 18.2871 21.3927 18.2871 21.6095C18.2871 21.8263 18.2051 22.0314 18.0469 22.1837C17.7305 22.5001 17.2148 22.5001 16.8984 22.1837L15.9434 21.2286C15.9434 21.2286 15.9434 21.2286 15.9375 21.2228C15.5742 20.8595 15.0879 20.6837 14.6133 20.6954C14.6133 20.6837 14.6133 20.6661 14.6133 20.6544C14.6133 20.1681 14.4258 19.7052 14.0801 19.3654C13.7168 19.0021 13.2305 18.8204 12.75 18.8322C12.75 18.8204 12.75 18.8029 12.75 18.7911C12.75 18.3048 12.5625 17.8419 12.2168 17.5021C11.8184 17.1036 11.2734 16.9279 10.752 16.9747C10.7285 16.5177 10.541 16.0958 10.2188 15.7677C9.50391 15.0529 8.34961 15.0587 7.63477 15.7677L7.19531 16.2072L6.07031 15.0822L9.60352 8.9591H11.3613C11.5312 8.9591 11.707 8.97082 11.877 8.9884L11.2969 9.56848C10.9512 9.91418 10.7637 10.3712 10.7637 10.8575C10.7637 11.3439 10.9512 11.8068 11.2969 12.1466C11.6543 12.504 12.123 12.6798 12.5859 12.6798C13.0547 12.6798 13.5234 12.504 13.875 12.1466L15.2461 10.7755L23.1504 18.6798C23.4668 19.0021 23.4668 19.5177 23.1504 19.8341ZM18.2754 12.3751C19.0137 11.8419 19.4648 10.9806 19.4648 10.0431C19.4648 9.76184 19.2363 9.53332 18.9551 9.53332C18.6738 9.53332 18.4453 9.76184 18.4453 10.0431C18.4453 10.7052 18.0938 11.3087 17.5371 11.6427L15.6035 9.7091C15.4043 9.50989 15.082 9.50403 14.8887 9.70325L13.1543 11.4376C12.8379 11.754 12.3223 11.754 12.0059 11.4376C11.8535 11.2853 11.7656 11.0802 11.7656 10.8634C11.7656 10.6466 11.8477 10.4415 12.0059 10.2892L13.9863 8.30871C14.2969 7.99817 14.7129 7.82239 15.1523 7.82239H20.3555L23.9355 14.0216C23.9414 14.0392 23.9531 14.0509 23.9648 14.0626L21.9668 16.0607L18.2754 12.3751Z" fill="#E5E5E5"/>
<path d="M25.5703 9.38672C25.7051 9.38672 25.834 9.33398 25.9277 9.24023C26.0215 9.14648 26.0742 9.01758 26.0742 8.88281C26.0742 8.74805 26.0215 8.61914 25.9277 8.52539C25.834 8.43164 25.7051 8.37891 25.5703 8.37891C25.4355 8.37891 25.3066 8.43164 25.2129 8.52539C25.1191 8.61914 25.0664 8.74805 25.0664 8.88281C25.0664 9.01758 25.1191 9.14648 25.2129 9.24023C25.3066 9.33398 25.4414 9.38672 25.5703 9.38672Z" fill="#E5E5E5"/>
</svg>
